<svg xmlns="http://www.w3.org/2000/svg" width="511" height="512" id="chatbot" fill="white">
  <path d="M393.9 119.233L418.861 119.137C479.796 121.828 562.612 149.858 568.721 221.053C573.933 281.789 540.181 321.925 486.49 342.43C450.233 356.276 412.422 359.635 374.031 356.87L341.213 352.637C339.465 352.33 331.666 350.176 332.449 354.719C334.888 356.542 337.92 357.213 340.744 358.247C361.792 365.961 362.833 378.306 362.844 397.671C362.854 417.354 364.025 439.191 340.143 445.279C330.893 447.638 335.205 444.765 329.82 453.763C320.215 469.811 300.318 478.781 282.882 483.089L261.555 487.54C262.128 492.467 261.749 497.713 261.803 502.683C261.848 506.747 263.571 515.712 259.12 518.239L258.594 518.445C256.657 519.246 254.712 519.106 252.647 519.103L199.202 519.033C185.763 519.244 186.39 516.731 186.374 505.313L186.467 487.55L177.566 486.034C155.059 481.165 130.768 473.202 118.499 452.275L116.238 448.23C115.471 446.877 115.689 447.005 114.178 446.652L109.513 445.65C92.3168 441.366 86.4106 429.452 85.4761 412.428L85.2671 395.148C85.3172 379.076 87.1727 365.575 103.8 358.044C112.307 354.191 112.517 357.984 114.002 350.474L116.04 341.814C118.614 332.039 122.974 322.248 129.848 314.707C146.25 296.714 178.628 286.739 203.057 285.494C189.641 259.576 231.322 239.991 239.964 271.474L240.357 272.93C241.553 277.939 240.59 281.811 237.969 286.129L249.849 287.549L243.533 240.247C239.755 157.884 323.197 122.251 393.9 119.233ZM398.618 132.639C342.052 134.589 263.779 158.604 257.378 224.412C255.766 240.982 258.924 257.883 261.705 274.136C266.128 299.98 269.179 321.833 300.121 318.99C320.486 317.118 315.195 342.358 311.472 354.688L310.843 356.484C325.266 346.262 321.256 335.243 342.149 338.687L348.961 339.62C363.016 342.102 376.892 343.853 391.172 344.034C429.486 344.035 461.364 340.549 496.922 323.089C535.97 303.914 555.581 274.223 555.432 229.426C555.249 174.496 502.86 146.91 454.969 137.286L440.924 134.794C433.852 133.848 426.98 132.99 419.848 132.793L398.618 132.639ZM210.592 297.841C192.53 300.226 175.343 303.066 158.521 310.767C133.691 322.134 128.269 339.448 126.093 365.625C124.51 384.665 123.63 415.692 126.053 434.541C131.321 475.541 217.207 480.386 252.425 475.328L256.502 474.653C275.32 471.809 304.285 465.745 316.2 449.51C326.157 435.942 324.71 410.637 324.718 394.375C324.723 385.311 326.304 374.541 321.837 366.226C314.634 369.419 309.365 374.545 301.084 375.515C287.446 377.114 292.725 365.551 295.323 358.232C298.202 350.12 301.395 341.491 301.252 332.766C298.077 332.766 294.913 333.263 291.757 333.121C272.991 332.271 263.567 322.301 255.031 307.344C251.727 301.555 253.422 301.799 246.875 300.525C239.095 299.012 230.745 297.832 222.812 297.757L210.592 297.841ZM200.273 489.357L200.27 505.382C204.17 505.523 247.345 505.979 248.061 504.844L248.046 494.32C248.043 492.812 248.263 490.891 247.856 489.453C241.904 490.08 235.829 490.019 229.848 490.027L200.273 489.357ZM110.856 370.469C105.374 372.477 100.611 375.441 99.7268 381.562C98.3479 391.107 98.469 401.101 99.0278 410.713C99.4644 418.221 99.4774 423.547 105.384 428.654C107.28 430.027 109.994 432.159 112.254 432.692C111.033 424.614 110.963 416.648 110.968 408.5L111.607 375.484C111.713 374.073 112.307 371.584 111.691 370.373L110.856 370.469ZM336.535 372.033C337.728 384.139 339.615 421.014 336.668 432.728C339.147 431.418 341.476 430.023 343.35 427.897C352.195 418.332 349.35 414.052 349.376 400.581L348.975 384.324C347.692 376.451 344.059 373.543 336.535 372.033ZM219.413 268.78C211.308 272.312 212.779 283.745 222.54 283.473C230.33 280.271 228.373 267.977 219.413 268.78Z" transform="scale(.8)"></path>
  <path d="M174.118 374.099C187.489 373.855 189.388 391.886 175.87 394.66 163.425 395.158 161.572 377.294 174.118 374.099zM225.391 375.714C238.793 374.07 241.649 392.772 229.106 395.858 215.358 396.434 212.758 380.273 225.391 375.714zM281.64 373.24C296.74 372.924 296.849 391.056 285.277 393.596 283.65 393.755 281.909 393.622 280.386 393.005L279.313 392.565C271.347 388.727 271.237 376.473 281.64 373.24zM188.094 427.606C192.361 427.2 195.443 428.899 199.422 429.856 217.856 434.29 239.189 431.99 257.5 428.346 259.484 427.951 263.03 427.037 264.827 428.306L265.156 428.555C271.664 433.203 268.593 438.972 262.48 441.051 242.021 446.236 219.194 446.98 198.486 443.63 192.883 442.724 177.585 441.043 182.591 431.484 183.799 429.178 185.702 428.3 188.094 427.606zM187.681 339.483C191.586 339.065 195.636 339.277 199.554 339.274L264.695 339.299C271.5 339.61 274.454 351.894 263.824 353L195.427 353.049C190.521 353.047 182.8 354.383 180.945 348.174 179.457 343.193 183.297 340.473 187.681 339.483zM407.344 214.514C408.858 214.588 410.534 214.542 412.006 214.911L412.344 215C439.674 221.964 437.082 260.732 408.203 262.507 393.031 262.713 379.076 248.643 383.618 232.949L383.756 232.5C386.921 221.838 396.259 215.019 407.344 214.514zM404.808 228.31C402.254 229.281 400.556 230.428 398.763 232.5L398.49 232.81C394.078 238.058 397.929 246.199 403.438 248.779L403.785 248.949C405.418 249.699 407.894 249.386 409.613 249.081 414.244 247.446 417.575 244.318 418.149 239.375L418.199 238.967C418.876 232.183 410.729 227.413 404.808 228.31zM472.69 214.507C474.655 214.382 476.835 214.359 478.763 214.824L479.375 214.983C488.536 217.259 496.685 224.829 498.194 234.373L498.281 234.947C500.622 249.598 490.277 260.941 476.323 262.402 442.466 263.67 441.876 216.407 472.69 214.507zM471.488 228.271C465.588 230.454 461.477 236.599 464.222 242.838L464.864 244.107C467.5 249.016 471.474 249.715 476.498 249.19 490.672 243.458 485.153 226.083 471.488 228.271zM338.295 214.497C343.938 213.944 349.655 215.345 354.248 218.727L354.688 219.057C372.982 232.639 364.927 259.335 342.544 262.495 340.503 262.518 338.394 262.644 336.373 262.307L335.938 262.229C326.365 260.678 317.85 252.402 316.238 242.835L315.823 240.312C314.558 227.43 325.77 215.62 338.295 214.497zM338.03 228.19C324.341 232.076 327.435 250.792 342.425 249.206 357.014 243.234 351.115 226.236 338.03 228.19z" transform="scale(.8)"></path>
</svg>
