<svg width="714" height="429" viewBox="0 0 714 429" fill="none" xmlns="http://www.w3.org/2000/svg">
<path d="M261.359 346.524C261.359 346.524 238.169 336.501 235.336 329.476C232.502 322.45 233.825 319.927 239.821 319.231C245.817 318.536 261.966 321.647 261.966 321.647C261.966 321.647 240.561 311.043 242.281 302.118C244.001 293.192 258.483 300.609 258.483 300.609C258.483 300.609 247.217 280.851 254.297 270.18C261.378 259.509 276.605 279.082 276.605 279.082C276.605 279.082 263.215 254.309 274.333 244.417C285.45 234.524 295.857 258.747 295.857 258.747C295.857 258.747 286.985 232.742 296.789 229.501C306.592 226.26 314.069 251.147 314.069 251.147C314.069 251.147 309.789 227.501 319.789 225.501C329.789 223.501 332.789 245.501 332.789 245.501C332.789 245.501 335.554 218.718 345.171 220.109C354.788 221.5 353.789 244.501 353.789 244.501C353.789 244.501 360.237 226.505 369.513 228.503C378.789 230.501 371.277 258.465 371.277 258.465C371.277 258.465 381.744 234.562 390.111 238.951C398.476 243.34 392.218 267.128 392.218 267.128C392.218 267.128 401.19 246.639 412.614 252.542C424.036 258.446 406.767 282.891 406.767 282.891C406.767 282.891 423.467 265.744 432.416 275.799C441.365 285.855 430.951 305.14 430.951 305.14C430.951 305.14 447.668 300.954 448.834 312.287C450 323.62 434.263 327.069 434.263 327.069C434.263 327.069 450.822 336.739 449.274 344.773C447.726 352.806 423.041 346.198 423.041 346.198C423.041 346.198 440.923 353.346 438.397 362.116C435.87 370.887 412.851 359.972 412.851 359.972L261.359 346.524Z" fill="#CCDA65"/>
<path d="M165.06 365.501C165.06 365.501 143.535 361.397 139.947 356.609C136.359 351.821 137.077 349.769 142.099 348.402C147.122 347.034 161.473 347.034 161.473 347.034C161.473 347.034 141.382 342.246 141.382 335.407C141.382 328.567 155.015 331.987 155.015 331.987C155.015 331.987 142.099 318.992 146.405 310.1C150.71 301.208 166.99 313.502 166.99 313.502C166.99 313.502 151.428 297.105 159.321 288.213C167.214 279.321 180.13 295.737 180.13 295.737C180.13 295.737 171.209 275.606 178.384 271.502C185.559 267.398 194.48 287.529 194.48 287.529C194.48 287.529 191.61 266.326 198.068 264.958C204.526 263.59 207.396 283.425 207.396 283.425C207.396 283.425 206.678 261.537 216.006 260.17C225.334 258.802 227.486 282.057 227.486 282.057C227.486 282.057 230.357 261.538 238.249 262.906C246.142 264.274 244.706 284.793 244.706 284.793C244.706 284.793 249.729 265.642 257.622 267.694C265.514 269.746 264.079 288.213 264.079 288.213C264.079 288.213 268.384 271.797 279.147 274.533C289.91 277.269 279.147 297.788 279.147 297.788C279.147 297.788 290.627 282.741 299.955 288.896C309.283 295.052 303.543 310.783 303.543 310.783C303.543 310.783 317.176 305.311 320.047 313.518C322.917 321.726 310.002 326.514 310.002 326.514C310.002 326.514 325.788 331.302 325.788 337.457C325.788 343.613 303.545 342.245 303.545 342.245C303.545 342.245 320.048 344.981 319.33 351.821C318.613 358.661 297.087 353.873 297.087 353.873L165.06 365.501Z" fill="#D8E76B"/>
<path d="M372.236 261.444L365.528 280.467L347.962 301.077L356.621 310.378C356.621 310.378 379.242 292.162 381.604 287.811C383.967 283.46 387.594 265.495 387.594 265.495L372.236 261.444Z" fill="#FACCBB"/>
<path d="M455.284 326.911C455.284 326.911 466.225 325.806 469.235 324.98C472.243 324.155 481.341 320.076 486.517 329.623C491.094 338.067 492.258 348.829 488.774 352.843C484.198 358.115 476.422 363.195 471.194 358.139C466.731 353.825 469.887 346.842 469.887 346.842L458.644 347.291L455.284 326.911Z" fill="#2B4240"/>
<path d="M469.886 346.843C469.886 346.843 476.717 342.66 482.002 346.433" stroke="#576661" stroke-width="0.9622" stroke-miterlimit="10"/>
<path d="M473.396 345.077C473.396 345.077 479.368 340.854 483.737 343.624" stroke="#576661" stroke-width="0.9622" stroke-miterlimit="10"/>
<path d="M396.446 298.868C396.446 298.868 348.797 319.325 366.595 340.847C384.393 362.37 419.765 347.13 419.765 347.13C419.765 347.13 444.722 306.853 429.783 296.539C414.843 286.225 396.446 298.868 396.446 298.868Z" fill="#83430F"/>
<path d="M406.997 299.833C406.997 299.833 386.565 325.386 386.497 337.422C386.429 349.459 393.242 358.439 405.279 358.507C417.316 358.576 454.69 353.819 457.12 353.483C461.482 352.88 466.245 346.997 466.554 340.269C466.862 333.54 463.091 328.231 458.874 325.631C454.659 323.03 443.802 325.094 443.802 325.094C443.802 325.094 455.097 308.134 442.562 294.396C430.027 280.657 406.997 299.833 406.997 299.833Z" fill="#AE5914"/>
<path d="M381.957 237.324C381.957 237.324 376.833 240.544 373.961 246.967C371.671 252.088 369.516 266.541 369.516 266.541L387.09 273.495C387.09 273.495 391.28 263.878 393.183 255.213C395.09 246.547 381.957 237.324 381.957 237.324Z" fill="#83C783"/>
<path d="M393.014 302.73C393.014 302.73 389.985 288.626 388.172 280.859C386.739 274.722 379.739 241.653 381.776 237.586C383.815 233.514 394.586 232.013 400.939 229.982C407.293 227.949 420.918 224.783 426.548 232.94C432.178 241.095 435.869 250.03 438.784 261.888C440.719 269.768 442.716 297.802 442.716 297.802C442.716 297.802 421.559 302.663 415.466 303.317C409.374 303.974 393.014 302.73 393.014 302.73Z" fill="#83C783"/>
<path d="M381.638 300.115L402.227 282.952C402.227 282.952 408.874 267.617 409.29 262.943C412.177 262.886 415.117 262.553 417.94 262.746C421.615 263 425.272 263.452 428.928 263.904C427.613 270.989 422.217 285.009 420.273 288.749C417.006 295.037 385.486 310.058 385.486 310.058L381.638 300.115Z" fill="#FACCBB"/>
<path d="M429.574 272.581L406.364 268.499C406.364 268.499 411.527 232.55 418.259 230.609C426.131 228.341 434.804 235.851 433.125 259.533C433.012 261.121 429.574 272.581 429.574 272.581Z" fill="#83C783"/>
<path d="M387.541 224.441L390.269 233.057C390.269 233.057 391.238 242.902 398.585 240.76C405.927 238.617 406.792 228.938 406.792 228.938L399.221 215.866L387.541 224.441Z" fill="#FACCBB"/>
<path d="M428.362 331.149C428.362 331.149 440.525 330.082 444.662 323.85" stroke="#83430F" stroke-width="0.9622" stroke-miterlimit="10"/>
<path d="M432.527 245.611C432.527 245.611 434.369 257.56 427.532 271.449" stroke="#6E975D" stroke-width="0.9622" stroke-miterlimit="10"/>
<path d="M378.519 190.603C378.519 190.603 366.244 198.764 368.127 209.951C369.388 217.44 377.309 220.655 379.474 219.452C381.638 218.249 382.075 193.455 378.519 190.603Z" fill="#D15431"/>
<path d="M370.989 206.072C371.199 210.856 374.018 227.852 385.419 230.18C400.477 233.263 406.524 224.164 407.377 208.868C408.226 193.577 392.704 188.845 381.748 192.815C370.449 196.908 370.773 201.287 370.989 206.072Z" fill="#FACCBB"/>
<path d="M375.073 216.498C375.686 217.858 377.287 218.465 378.645 217.848C380.005 217.235 380.609 215.638 379.997 214.277C379.381 212.914 377.782 212.313 376.424 212.926C375.065 213.54 374.46 215.139 375.073 216.498Z" fill="#7C564F"/>
<path d="M395.233 212.761C395.147 214.25 393.871 215.389 392.383 215.303C390.893 215.218 389.755 213.943 389.839 212.453C389.925 210.961 391.203 209.827 392.692 209.909C394.181 209.995 395.316 211.271 395.233 212.761Z" fill="#7C564F"/>
<path d="M382.565 210.45C383.041 211.12 383.434 211.815 383.779 212.524C384.14 213.229 384.444 213.95 384.727 214.677L383.775 214.063L383.959 214.044C384.016 214.038 384.193 214.055 384.299 214.086C384.566 214.175 384.848 214.369 384.952 214.798C384.989 215 384.969 215.023 384.961 215.146C384.954 215.195 384.943 215.244 384.93 215.29L384.908 215.354C384.768 215.689 384.694 215.741 384.618 215.858C384.47 216.058 384.343 216.209 384.212 216.36C383.957 216.661 383.719 216.942 383.502 217.218C383.292 217.496 383.099 217.77 382.984 218.011C382.868 218.259 382.848 218.412 382.859 218.436C382.891 218.537 382.889 218.557 382.949 218.647C383.004 218.73 383.085 218.826 383.195 218.915C383.412 219.1 383.707 219.275 384.028 219.436C384.675 219.767 385.416 220.033 386.192 220.353C385.398 220.656 384.562 220.752 383.689 220.679C383.252 220.634 382.803 220.534 382.344 220.314C382.117 220.2 381.884 220.054 381.67 219.851C381.46 219.656 381.236 219.343 381.131 219.075C380.993 218.73 380.967 218.352 381.01 218.04C381.05 217.725 381.141 217.456 381.248 217.217C381.462 216.741 381.726 216.368 382.001 216.029C382.272 215.689 382.563 215.387 382.837 215.107L383.21 214.724C383.257 214.688 383.307 214.584 383.243 214.738L383.236 214.767C383.225 214.802 383.216 214.838 383.211 214.875C383.202 214.974 383.196 214.971 383.222 215.151C383.317 215.527 383.557 215.695 383.779 215.762C383.837 215.789 383.965 215.793 383.973 215.79C383.986 215.79 383.998 215.788 384.01 215.782L383.058 215.168C382.898 214.404 382.76 213.633 382.678 212.846C382.581 212.069 382.531 211.272 382.565 210.45Z" fill="#DC8C7A"/>
<path d="M393.257 219.642C393.718 220.931 392.66 224.066 390.14 224.904C387.621 225.742 383.617 224.509 384.049 222.659C384.482 220.805 386.405 222.039 388.789 221.026C390.633 220.247 392.793 218.353 393.257 219.642Z" fill="white"/>
<path d="M374.98 211.769C375.598 211.435 376.215 211.115 376.877 210.875C377.616 210.607 378.33 210.177 379.075 209.945C379.32 209.869 379.414 209.488 379.151 209.361C378.376 208.987 377.543 208.638 376.65 208.937C375.732 209.244 374.876 209.674 374.032 210.145C372.973 210.739 373.915 212.345 374.98 211.769Z" fill="#D15431"/>
<path d="M389.612 208.488C390.335 208.224 391.107 208.063 391.876 208.032C392.294 208.015 392.684 207.959 393.098 207.895C393.542 207.827 393.849 207.56 394.265 207.436C394.508 207.363 394.571 207.016 394.337 206.886C393.891 206.639 393.587 206.34 393.098 206.149C392.601 205.954 392.074 205.963 391.554 206.004C390.474 206.09 389.649 206.447 388.826 207.137C388.213 207.65 388.864 208.76 389.612 208.488Z" fill="#D15431"/>
<path d="M390.684 230.784C390.684 230.784 393.735 231.171 397.01 229.545C401.01 227.555 403.005 224.788 403.005 224.788" stroke="#DC8C7A" stroke-width="0.9622" stroke-miterlimit="10"/>
<path d="M370.814 194.916C370.814 194.916 378.668 191.548 389.688 193.714C400.709 195.879 409.782 204.538 409.782 204.538C409.782 204.538 414.024 186.016 405.451 181.205C396.88 176.394 385.547 176.153 382.118 177.837C378.691 179.521 370.324 188.662 370.814 194.916Z" fill="#395754"/>
<path d="M407.617 203.576C408.339 198.765 403.528 193.714 394.387 189.865C388.401 187.344 379.358 185.657 372.738 186.497C357.458 188.433 361.913 200.208 366.725 203.816C368.608 205.228 377.955 202.662 386.931 202.613C397.041 202.558 407.378 205.17 407.617 203.576Z" fill="#2B4240"/>
<path d="M404.833 207.73C405.121 204.457 408.624 202.048 411.211 204.102C413.798 206.157 412.003 213.614 407.849 215.142C403.694 216.668 404.543 211.002 404.833 207.73Z" fill="#FACCBB"/>
<path d="M372.979 197.562C372.979 197.562 363.598 198.284 365.281 204.057C366.965 209.83 375.144 204.779 375.144 204.779C375.144 204.779 375.144 207.185 377.79 207.185C380.436 207.185 383.323 205.26 383.323 205.26C383.323 205.26 383.564 206.944 386.931 206.463C390.299 205.982 392.464 204.779 392.464 204.779C392.464 204.779 394.869 207.185 398.236 206.703C401.604 206.222 400.402 204.057 400.402 204.057C400.402 204.057 401.845 212.957 404.731 211.995C407.618 211.033 407.858 202.854 406.175 200.689C404.491 198.524 397.996 198.283 393.907 198.283C389.818 198.283 385.729 196.84 382.601 196.599C379.473 196.36 372.979 197.562 372.979 197.562Z" fill="#D15431"/>
<path d="M416.598 232.12C416.598 232.12 411.788 235.328 410.184 244.95C408.58 254.572 406.364 268.499 406.364 268.499" stroke="#6E975D" stroke-width="0.9622" stroke-miterlimit="10"/>
<path d="M382.921 241.421C382.921 241.421 380.996 251.042 382.921 258.419C384.845 265.796 386.449 272.211 386.449 272.211" stroke="#6E975D" stroke-width="0.9622" stroke-miterlimit="10"/>
<path d="M301.223 358.537C298.978 357.895 295.13 349.637 294.167 348.274C293.205 346.911 290.559 338.252 283.583 340.657C276.607 343.062 279.813 349.326 281.979 351.802C284.224 354.368 289.034 359.5 291.28 362.065C293.525 364.63 301.544 365.914 304.11 364.31C306.676 362.707 303.469 359.179 301.223 358.537Z" fill="#CD8290"/>
<path d="M365.417 352.1C364.401 350.948 361.28 335.365 359.356 333.921C357.431 332.478 352.861 331.034 348.05 333.44C342.727 336.101 346.446 345.084 347.202 346.362C348.081 347.849 348.887 349.089 349.535 349.875C352.857 353.903 356.502 358.829 358.954 359.82C361.406 360.811 368.256 361.744 370.155 359.888C372.552 357.549 367.373 354.318 365.417 352.1Z" fill="#CD8290"/>
<path d="M359.243 297.073C361.459 294.195 367.434 290.617 370.349 291.498C373.264 292.377 370.477 296.579 370.131 299.506C369.785 302.437 370.453 307.264 367.777 307.459C365.1 307.652 357.611 307.982 356.6 305.818C355.59 303.652 357.027 299.952 359.243 297.073Z" fill="#CD8290"/>
<path d="M376.421 324.053C372.105 321.172 371.973 316.183 370.581 310.748C369.189 305.313 367.508 299.502 356.508 298.231C352.141 297.726 320.069 293.758 306.436 292.481C291.361 291.067 269.872 299.194 269.872 299.194C262.766 303.408 254.738 309.073 258.666 328.114C257.758 328.397 256.825 328.365 256.001 327.998C256.028 327.955 256.066 327.923 256.091 327.877C257.204 325.92 256.724 322.9 254.645 321.682C252.892 320.654 252.201 322.521 252.25 323.916C252.304 325.479 252.856 326.947 253.859 328.044C253.13 328.369 252.248 328.461 251.424 328.272C247.405 327.353 248.052 321.199 251.347 320.014C251.704 319.886 251.566 319.348 251.19 319.442C248.968 319.992 247.702 321.338 247.537 323.772C247.391 325.955 248.321 328.318 250.481 329.227C251.854 329.805 253.713 329.847 255.019 329.004C255.176 329.101 255.328 329.202 255.497 329.284C256.656 329.849 257.845 329.845 258.959 329.473C259.634 332.426 260.582 335.682 261.853 339.291C264.431 346.608 267.305 350.196 266.984 351.158C266.663 352.119 265.06 357.893 267.304 360.459C269.549 363.025 274.36 368.157 276.606 370.723C278.851 373.288 286.87 374.572 289.435 372.967C292.001 371.363 288.794 367.837 286.549 367.195C284.304 366.553 280.134 358.857 279.493 356.932C279.102 355.76 283.826 353.156 287.291 348.546C291.213 349.607 295.124 350.196 298.737 350.196C309.723 350.196 320.546 351.946 330.157 350.767C331.902 354.037 333.656 357.07 334.862 358.532C338.185 362.559 341.829 367.485 344.281 368.476C346.734 369.468 353.582 370.4 355.483 368.544C357.879 366.205 352.7 362.973 350.744 360.756C349.489 359.334 346.833 350.784 345.09 344.837C347.691 342.826 350.593 340.422 351.978 339.611C353.364 338.8 357.014 336.649 360.17 335.367C362.099 334.582 364.648 334.16 367.053 334.16C369.459 334.16 376.929 333.573 377.878 331.514C378.827 329.456 379.206 325.913 376.421 324.053ZM255.212 324.636C255.648 325.722 255.452 326.61 254.923 327.251C254.493 326.828 254.127 326.284 253.868 325.604C253.327 324.183 253.933 321.453 255.212 324.636Z" fill="#E599A0"/>
<path d="M336.113 305.946C336.126 301.584 339.214 293.811 342.638 292.524C346.06 291.237 346.468 297.277 348.274 300.324C350.08 303.37 354.242 307.487 351.83 309.626C349.418 311.765 342.516 317.544 339.972 316.217C337.43 314.888 336.1 310.308 336.113 305.946Z" fill="#E599A0"/>
<path d="M340.753 313.957C339.471 313.315 337.557 306.915 338.784 303.366C340.01 299.819 341.883 296.58 343.166 296.56C344.449 296.54 346.496 302.731 347.649 304.334C348.802 305.937 351.017 308.023 349.895 308.824C348.774 309.626 346.793 309.333 345.405 310.108C342.552 311.701 342.036 314.599 340.753 313.957Z" fill="#CD8290"/>
<path d="M363.526 324.297C363.526 325.669 362.413 326.783 361.04 326.783C359.667 326.783 358.556 325.67 358.556 324.297C358.556 322.925 359.667 321.812 361.04 321.812C362.413 321.812 363.526 322.925 363.526 324.297Z" fill="#7C4C43"/>
<path d="M371.864 332.077C371.656 330.172 373.788 326.946 375.232 326.304C376.675 325.662 378.407 326 378.119 328.228C377.829 330.455 377.449 332.097 376.033 332.238C374.618 332.377 372.072 333.983 371.864 332.077Z" fill="#CD8290"/>
<path d="M368.335 325.983C368.335 325.983 369.287 324.06 371.19 322.836C373.093 321.611 374.588 322.312 374.588 322.312" stroke="#CD8290" stroke-width="0.9622" stroke-miterlimit="10"/>
<path d="M371.242 327.156C371.242 327.156 371.86 325.919 373.308 324.986C374.757 324.053 376.028 324.297 376.028 324.297" stroke="#CD8290" stroke-width="0.9622" stroke-miterlimit="10"/>
<path d="M375.182 327.683C374.596 327.683 374.186 328.565 373.94 328.981C373.485 329.752 373.251 330.74 373.528 331.615C373.603 331.855 373.872 331.855 374.002 331.717C374.009 331.715 374.016 331.717 374.024 331.715C374.984 331.441 376.483 327.683 375.182 327.683Z" fill="#955C6F"/>
<path d="M377.181 327.759C376.255 327.213 375.594 330.407 376.151 330.997C376.155 331.002 376.16 331.003 376.165 331.008C376.194 331.156 376.386 331.268 376.55 331.137C377.149 330.657 377.437 329.885 377.468 329.167C377.482 328.779 377.597 328.006 377.181 327.759Z" fill="#955C6F"/>
<path d="M339.973 316.216C337.43 314.887 336.101 310.308 336.114 305.946C336.127 301.584 339.215 293.811 342.639 292.524C346.061 291.237 346.469 297.277 348.275 300.324C349.949 303.148 353.646 306.89 352.259 309.125" stroke="#CD8290" stroke-width="0.9622" stroke-miterlimit="10"/>
<path d="M383.563 300.115C383.563 300.115 378.111 296.587 374.261 296.266C370.413 295.946 365.281 297.549 366.244 300.115C367.206 302.681 370.413 301.719 370.413 301.719C370.413 301.719 356.3 303.322 356.621 306.53C356.942 309.736 359.829 309.736 359.829 309.736C359.829 309.736 356.742 311.381 357.583 312.783C359.026 315.189 362.394 313.584 362.394 313.584C362.394 313.584 359.187 316.149 361.111 317.433C363.035 318.716 365.521 317.353 365.521 317.353C365.521 317.353 364.318 319.357 366.564 319.999C368.81 320.641 374.582 318.716 381.959 315.83C389.335 312.944 389.335 304.284 389.335 304.284L383.563 300.115Z" fill="#FACCBB"/>
<path d="M360.951 309.417C360.951 309.417 371.054 306.771 372.979 305.809" stroke="#DC8C7A" stroke-width="0.9622" stroke-miterlimit="10"/>
<path d="M363.598 313.025C363.598 313.025 372.497 310.86 374.422 310.139" stroke="#DC8C7A" stroke-width="0.9622" stroke-miterlimit="10"/>
<path d="M366.724 317.595C366.724 317.595 376.106 314.949 376.827 314.468" stroke="#DC8C7A" stroke-width="0.9622" stroke-miterlimit="10"/>
<path d="M104.651 394.285C112.99 391.719 133.517 386.587 155.968 387.87C178.419 389.153 185.475 369.269 207.926 356.439C230.377 343.609 244.489 349.383 256.677 356.439C268.864 363.495 275.921 376.324 291.957 382.739C307.994 389.153 340.067 397.493 337.5 409.68C334.934 421.866 266.94 423.792 240.64 420.586C214.341 417.378 194.455 427.641 167.514 426.358C140.573 425.076 85.4073 418.019 81.5593 409.039C77.7103 400.059 98.3993 396.21 104.651 394.285Z" fill="#F2C689"/>
<path d="M135.441 402.682C137.349 402.69 139.014 402.162 140.814 401.578C143.5 400.706 146.488 400.643 149.102 399.555C150.79 398.851 152.927 399.338 154.708 399.088C157.479 398.698 160.048 398.618 162.834 398.897C167.77 399.392 172.604 401.161 177.065 403.246C180.309 404.762 185.246 407.854 188.923 406.631C190.885 405.978 192.507 404.259 194.241 403.175C196.537 401.739 199.353 400.737 201.918 399.924C207.16 398.263 212.724 398.025 218.174 398.36C223.385 398.68 228.223 400.099 233.171 401.666C236.014 402.566 240.098 404.962 243.062 403.475C244.13 402.939 243.331 401.5 242.303 401.675C240.815 401.929 238.768 400.774 237.481 400.163C235.363 399.157 232.765 398.687 230.518 398.004C225.862 396.589 221.24 395.836 216.378 395.633C206.512 395.223 197.381 397.812 189.293 403.402C187.146 404.886 184.881 403.73 182.655 402.899C180.15 401.963 177.773 400.692 175.311 399.651C171.369 397.984 167.082 396.972 162.834 396.519C160.783 396.301 158.624 396.194 156.581 396.52C154.311 396.883 151.919 396.763 149.686 397.226C147.509 397.677 145.356 398.465 143.203 399.048C140.658 399.737 138.068 401.026 135.441 401.285C134.561 401.371 134.523 402.678 135.441 402.682Z" fill="#FCE0B3"/>
<path d="M218.223 385.338C221.75 381.34 227.28 380.25 232.302 379.683C235.109 379.366 237.613 379.332 240.338 380.155C242.837 380.91 245.044 382.317 247.541 383.055C249.849 383.738 252.091 384.615 254.417 385.242C256.866 385.903 259.399 385.824 261.764 386.862C265.036 388.298 268.291 392.841 272.238 391.672C272.707 391.533 272.897 390.777 272.385 390.545C268.208 388.655 265.035 385.059 260.575 383.779C258.045 383.053 255.403 382.943 252.871 382.169C250.019 381.297 247.178 380.407 244.46 379.181C242.317 378.214 239.994 377.365 237.634 377.176C234.549 376.929 231.527 377.697 228.453 377.813C226.522 377.886 224.11 379.252 222.346 380.02C220.244 380.936 218.357 382.236 216.873 383.987C216.085 384.917 217.403 386.267 218.223 385.338Z" fill="#FCE0B3"/>
<path d="M281.22 403.299C281.134 403.267 281.048 403.235 280.961 403.203C280.075 402.876 279.697 404.288 280.573 404.611C281.443 404.932 282.124 404.577 282.853 404.128C284.397 403.178 285.878 402.278 287.517 401.489C291.159 399.737 294.716 398.392 298.261 400.836C300.157 402.144 301.815 404.073 304.066 404.796C307.252 405.82 309.991 404.681 313.125 404.351C313.686 404.292 313.706 403.493 313.125 403.464C310.185 403.32 306.631 403.507 304.009 402.042C301.653 400.726 299.858 398.643 297.38 397.504C294.934 396.38 292.463 397.101 290.03 397.904C288.471 398.419 286.973 399.139 285.514 399.882C284.711 400.291 283.933 400.75 283.156 401.205C282.213 401.756 281.599 402.823 280.572 403.202C279.696 403.525 280.074 404.937 280.96 404.61C281.046 404.578 281.132 404.548 281.219 404.516C281.82 404.296 281.82 403.52 281.22 403.299Z" fill="#FCE0B3"/>
<path d="M111.642 406.487C111.052 406.37 110.572 406.471 110.019 406.647C109.848 406.711 109.68 406.778 109.514 406.854C109.508 406.857 109.505 406.858 109.499 406.861C109.311 406.932 109.116 406.973 108.919 407.006C108.294 407.11 107.859 407.807 107.859 408.398C107.859 409.247 108.521 409.758 109.302 409.841C110.144 409.93 111.286 409.748 112.007 409.272C112.463 408.973 112.761 408.516 112.761 407.956C112.762 407.315 112.301 406.618 111.642 406.487Z" fill="#E8B062"/>
<path d="M119.171 403.514C119.139 403.457 119.097 403.42 119.06 403.373C118.999 403.261 118.925 403.157 118.834 403.052C118.796 403.008 118.657 402.886 118.568 402.811C118.481 402.737 118.401 402.652 118.317 402.572C118.439 402.745 118.441 402.754 118.325 402.601C117.845 401.172 115.592 401.568 115.578 403.106C115.567 404.407 116.945 405.419 118.143 405.16C118.374 405.14 118.59 405.105 118.789 404.964C119.266 404.626 119.473 404.051 119.171 403.514Z" fill="#E8B062"/>
<path d="M125.05 411.765C125.05 411.379 124.836 411.131 124.555 410.948C124.45 410.839 124.335 410.741 124.19 410.652C124.052 410.566 123.904 410.514 123.745 410.499C123.361 410.481 123.28 410.46 123.5 410.437C123.172 410.305 122.648 410.369 122.292 410.356C120.474 410.286 120.474 413.245 122.292 413.175C122.573 413.164 122.854 413.153 123.135 413.143C123.535 413.122 123.623 413.101 123.397 413.078C123.56 413.059 123.721 413.037 123.883 413.009C124.154 412.965 124.391 412.777 124.58 412.566C124.847 412.385 125.05 412.14 125.05 411.765Z" fill="#E8B062"/>
<path d="M133.356 408.028C133.228 407.674 133.048 407.422 132.789 407.2C132.248 406.554 131.27 406.463 130.47 406.44C129.664 406.416 128.993 407.13 128.993 407.917C128.993 408.706 129.664 409.417 130.47 409.394C130.938 409.382 131.401 409.422 131.852 409.363C132.002 409.386 132.151 409.407 132.305 409.409C132.974 409.422 133.598 408.697 133.356 408.028Z" fill="#E8B062"/>
<path d="M98.5533 406.362C98.5063 404.823 95.9053 404.858 95.9883 406.475C96.0123 406.946 96.0183 407.414 96.3803 407.776C96.7063 408.029 96.7213 408.039 96.4223 407.807C96.6603 408.027 96.9453 408.159 97.2733 408.159C97.4043 408.159 97.5363 408.132 97.6643 408.097C97.7853 408.129 97.9183 408.143 98.0343 408.165C98.6213 408.279 99.0793 407.823 98.9633 407.236C98.8973 406.889 98.7543 406.599 98.5533 406.362Z" fill="#E8B062"/>
<path d="M191.141 413.793C190.972 413.737 190.797 413.707 190.618 413.703C190.89 413.759 190.797 413.75 190.339 413.677C190.064 413.677 189.793 413.764 189.533 413.842C189.36 413.895 189.186 413.946 189.012 413.997C188.953 414.015 188.442 414.117 188.682 414.094C187.856 414.175 187.16 414.725 187.16 415.616C187.16 416.471 187.854 417.104 188.682 417.138C189.46 417.17 190.335 416.974 191.04 416.579C191.19 416.52 191.339 416.458 191.477 416.371C192.505 415.724 192.34 414.136 191.141 413.793Z" fill="#E8B062"/>
<path d="M196.835 408.471C196.663 407.868 196.036 407.412 195.418 407.412C194.667 407.412 193.89 408.08 193.953 408.878C193.974 409.162 193.978 409.463 194.049 409.737C194.246 410.493 195.056 410.92 195.797 410.728C196.004 410.674 196.183 410.6 196.354 410.507C196.495 410.456 196.631 410.398 196.759 410.313C197.438 409.858 197.459 408.965 196.835 408.471Z" fill="#E8B062"/>
<path d="M210.119 412.66C210.005 412.545 209.871 412.465 209.729 412.398C209.687 412.367 209.657 412.344 209.599 412.301C209.303 412.128 208.98 412.102 208.647 412.085C208.103 412.057 207.587 412.201 207.061 412.299C206.437 412.414 206.001 413.091 206.001 413.691C206.001 414.548 206.663 415.042 207.444 415.134C207.768 415.173 208.081 415.131 208.402 415.076C208.483 415.067 208.565 415.059 208.647 415.056C208.908 415.043 209.16 415.036 209.396 414.948C209.55 414.926 209.695 414.885 209.835 414.826C209.839 414.826 209.845 414.826 209.85 414.826C210.076 414.832 210.305 414.697 210.415 414.502C210.538 414.283 210.611 414.035 210.577 413.788C210.606 413.365 210.435 412.954 210.119 412.66Z" fill="#E8B062"/>
<path d="M215.893 411.087C215.997 410.674 215.911 410.235 215.57 409.895C215.115 409.44 214.193 409.348 213.753 409.895C213.278 410.484 212.919 411.343 213.409 412.059C213.642 412.401 213.906 412.711 214.326 412.827C214.694 412.882 214.777 412.892 214.573 412.856C214.838 412.909 215.049 412.894 215.308 412.829C216.061 412.638 216.351 411.68 215.893 411.087Z" fill="#E8B062"/>
<path d="M180.419 411.455C180.41 411.443 180.362 411.374 180.323 411.32C180.301 411.221 180.267 411.127 180.215 411.037C180.06 410.833 179.92 410.624 179.757 410.426C179.292 409.864 178.393 409.841 177.772 410.1C177.155 410.359 176.719 410.904 176.914 411.612C177.124 412.376 177.919 412.653 178.602 412.389C178.731 412.425 178.857 412.464 178.984 412.509C179.433 412.669 179.968 412.468 180.324 412.188C180.522 412.034 180.562 411.656 180.419 411.455Z" fill="#E8B062"/>
<path d="M252.719 363.933C252.497 363.456 252.135 363.002 251.764 362.636C251.205 362.083 250.281 362.077 249.722 362.636C249.141 363.218 249.202 364.087 249.722 364.676C249.742 364.697 249.75 364.707 249.763 364.721C249.775 364.741 249.789 364.762 249.815 364.8C249.922 364.959 250.009 365.131 250.094 365.303C250.248 365.613 250.361 365.898 250.579 366.158C250.635 366.247 250.689 366.334 250.762 366.429C251.042 366.79 251.642 366.884 252.054 366.77C252.536 366.638 252.807 366.288 252.981 365.843C253.041 365.708 253.065 365.565 253.06 365.412C253.05 365.188 253.034 364.779 253.035 364.787C252.981 364.487 252.847 364.209 252.719 363.933Z" fill="#E8B062"/>
<path d="M253.063 365.393C253.063 365.4 253.06 365.405 253.06 365.411C253.066 365.57 253.071 365.639 253.063 365.393Z" fill="#E8B062"/>
<path d="M259.125 364.241C258.659 363.82 258.081 363.758 257.479 363.736C255.72 363.67 255.718 366.521 257.479 366.464C257.585 366.461 257.691 366.46 257.797 366.461C258.445 366.823 259.435 366.626 259.589 365.781C259.697 365.192 259.584 364.653 259.125 364.241Z" fill="#E8B062"/>
<path d="M260.348 371.231C260.266 370.923 260.097 370.681 259.871 370.484C259.356 369.819 258.245 369.818 257.479 369.797L257.484 369.836C256.799 369.858 256.186 370.189 255.979 370.939C255.716 371.896 256.464 372.935 257.48 372.909C258.06 372.894 258.688 372.984 259.229 372.8C259.417 372.767 259.6 372.715 259.787 372.61C260.265 372.343 260.487 371.754 260.348 371.231Z" fill="#E8B062"/>
<path d="M320.889 409.935C320.807 409.852 320.707 409.803 320.61 409.747C320.62 409.746 320.63 409.744 320.641 409.744C320.606 409.723 320.567 409.712 320.53 409.694C320.501 409.68 320.473 409.666 320.443 409.654C320.374 409.623 320.308 409.584 320.235 409.56C320.117 409.544 320.039 409.533 319.979 409.525C319.952 409.52 319.925 409.511 319.898 409.505C319.889 409.502 319.876 409.495 319.854 409.487C319.85 409.472 319.847 409.464 319.843 409.453C319.843 409.432 319.843 409.404 319.84 409.361C319.802 408.674 319.294 408.098 318.577 408.098C317.885 408.098 317.32 408.673 317.314 409.361C317.308 410.131 317.522 410.879 318.086 411.426C318.742 412.064 319.827 412.264 320.64 411.864C321.364 411.506 321.411 410.47 320.889 409.935Z" fill="#E8B062"/>
<path d="M325.368 406.425C325.218 405.886 324.733 405.435 324.178 405.354C323.552 405.262 322.933 405.5 322.749 406.165C322.585 406.76 322.913 407.303 323.424 407.527C323.494 407.679 323.575 407.824 323.71 407.945C324.081 408.279 324.624 408.302 324.991 407.945C325.427 407.52 325.51 406.93 325.368 406.425Z" fill="#E8B062"/>
<path d="M262.781 405.054C262.774 405.042 262.765 405.026 262.761 405.018C262.767 405.039 262.766 405.034 262.77 405.048L262.769 405.046C262.762 405.026 262.762 405.026 262.749 404.989C262.724 404.907 262.701 404.822 262.684 404.739C262.675 404.688 262.669 404.657 262.665 404.636C262.66 404.582 262.655 404.528 262.651 404.474C262.64 404.338 262.638 404.203 262.635 404.067C262.593 402.38 260.057 402.38 260.019 404.067C259.99 405.29 260.161 406.751 261.465 407.237C261.78 407.355 262.135 407.275 262.433 407.102C262.436 407.101 262.439 407.101 262.443 407.1C263.411 406.794 263.521 405.577 262.781 405.054Z" fill="#E8B062"/>
<path d="M268.181 402.62C268.136 402.485 268.082 402.352 268.035 402.218C267.99 402.073 267.928 401.937 267.849 401.81L267.848 401.809C267.848 401.807 267.848 401.806 267.848 401.806C267.701 401.259 267.184 400.87 266.62 400.87C266.105 400.87 265.474 401.254 265.392 401.806C265.299 402.423 265.365 402.882 265.626 403.457C265.645 403.499 265.648 403.503 265.655 403.519C265.693 403.617 265.726 403.716 265.767 403.811C265.938 404.222 266.051 404.412 266.336 404.664C266.735 405.017 267.479 405.144 267.857 404.664C268.041 404.432 268.14 404.236 268.205 404.005C268.386 403.549 268.341 403.098 268.181 402.62Z" fill="#E8B062"/>
<path d="M270.305 409.785C269.999 409.331 269.588 409.157 269.058 409.139C268.465 409.118 268.037 409.524 267.635 409.894C266.414 411.019 268.323 412.93 269.452 411.711C269.576 411.579 269.702 411.451 269.835 411.328C269.845 411.324 269.85 411.323 269.865 411.317C270.053 411.231 270.203 411.03 270.304 410.86C270.49 410.55 270.513 410.093 270.305 409.785Z" fill="#E8B062"/>
<path d="M62.7773 81.3485C62.7773 81.3485 57.5853 79.3035 55.0173 81.6355C52.4483 83.9675 50.9883 87.8185 50.9883 87.8185C50.9883 87.8185 56.3543 89.1635 58.6303 87.9975C60.9063 86.8315 62.7773 81.3485 62.7773 81.3485Z" fill="#D4B133"/>
<path d="M64.1492 82.6035C64.1492 82.6035 58.7042 83.8175 57.8812 87.1885C57.0602 90.5585 58.0062 94.5655 58.0062 94.5655C58.0062 94.5655 63.2052 92.6735 64.4392 90.4325C65.6712 88.1925 64.1492 82.6035 64.1492 82.6035Z" fill="#D4B133"/>
<path d="M90.5842 343.982L118.536 345.778C118.536 345.778 116.082 366.593 117.526 369.481C118.97 372.367 125.094 374.343 131.626 380.205C136.509 384.587 138.213 388.725 130.034 394.979C124.63 399.111 109.416 395.09 102.612 394.016C93.4712 392.573 93.5202 387.633 92.5092 381.989C91.4982 376.345 90.5842 343.982 90.5842 343.982Z" fill="#B88136"/>
<path d="M9.2792 340.615L34.7772 343.983C34.7772 343.983 30.2312 365.44 29.4852 370.924C29.1372 373.482 29.4852 380.065 31.9692 382.677C33.8412 384.648 37.6042 388.109 35.9372 394.816C34.9072 398.956 30.3422 399.244 22.7022 399.244C14.3832 399.244 6.00321 399.83 2.06321 394.498C-0.147791 391.504 0.13221 387.602 1.39521 383.154C2.54521 379.102 5.06821 372.774 5.91321 367.076C6.68121 361.883 9.2792 340.615 9.2792 340.615Z" fill="#B88136"/>
<path d="M115.601 141.443C115.601 141.443 122.176 171.432 121.855 183.618C125.921 197.731 128.739 215.053 128.977 224.678C129.059 227.96 135.004 233.651 132.119 237.822C129.232 241.992 122.817 242.954 118.648 237.502C114.479 232.049 101.409 189.757 99.7252 181.855C98.0412 173.953 94.7952 152.392 94.7952 152.392L115.601 141.443Z" fill="#FFC29B"/>
<path d="M99.8012 109.904C105.906 111.186 113.674 121.089 117.525 134.706C119.605 142.059 121.831 159.857 120.572 162.45C119.314 165.042 99.3992 167.932 97.1592 167.582C94.9212 167.231 88.2512 139.449 88.9312 131.798C89.8722 121.211 89.8652 107.816 99.8012 109.904Z" fill="#5C3924"/>
<path d="M97.8002 217.454C97.8002 217.454 125.704 270.374 125.223 291.061C124.742 311.748 122.817 346.868 118.007 349.274C113.195 351.679 97.8002 353.604 91.5472 349.754C85.2932 345.905 87.9022 313.271 87.6972 299.239C87.4912 285.202 73.7452 254.016 73.7452 254.016C73.7452 254.016 58.8312 292.985 55.4642 304.05C52.0962 315.115 48.2472 340.132 36.7012 347.829C29.6192 352.551 9.95117 349.965 6.39217 342.057C2.06117 332.434 15.3172 279.201 18.4192 269.892C21.7872 259.789 30.4462 213.444 30.4462 213.444L97.8002 217.454Z" fill="#478397"/>
<path d="M81.7023 105.03C93.0313 105.823 107.159 110.383 107.998 121.769C108.314 126.072 101.862 147.283 102.424 166.379C102.825 180.158 98.2703 197.688 100.206 204.465C101.138 207.725 102.084 215.638 100.687 218.897C99.2903 222.158 83.2233 223.386 70.5783 223.494C58.1193 223.602 30.1633 218.443 28.9813 216.188C25.4333 209.414 30.0283 206.971 29.9133 202.68C29.6423 192.531 33.0713 183.387 32.9603 172.765C32.6923 146.72 22.1013 123.098 30.4323 113.134C44.6783 96.0895 70.3723 104.234 81.7023 105.03Z" fill="#5C3924"/>
<path d="M96.0222 65.3555C93.3662 56.9885 78.5392 60.9705 71.5602 62.5565C64.5812 64.1425 57.9632 83.7675 67.4072 94.9555C76.8512 106.146 92.9892 98.7365 96.7162 83.1745C97.9602 77.9915 98.6742 73.7245 96.0222 65.3555Z" fill="#FFC29B"/>
<path d="M66.1143 95.0544L84.2693 98.3134L85.0523 111.373C85.0523 111.373 80.4813 114.741 73.0243 113.778C65.5683 112.816 62.8823 106.925 62.8823 106.925L66.1143 95.0544Z" fill="#FFC29B"/>
<path d="M63.7603 73.9874C60.9023 71.1714 56.7153 74.7944 57.5153 78.4054C58.3143 82.0204 63.8043 87.7104 65.3983 83.4474C65.6603 80.5274 66.2403 76.7564 63.7603 73.9874Z" fill="#FFC29B"/>
<path d="M68.6912 56.1875C74.0162 52.8255 86.9162 51.4065 93.9732 57.1035C95.7722 58.5545 98.7982 62.3885 99.7652 67.7505C100.929 74.2095 99.5692 78.4545 98.5532 79.5595C97.5362 80.6665 97.3072 73.4055 95.4252 71.1055C93.5412 68.8015 93.2022 64.4895 93.2022 64.4895C93.2022 64.4895 88.7312 64.4195 81.7642 64.6275C76.5182 64.7845 73.5022 66.2725 71.3212 66.9595C69.1372 67.6495 67.4352 71.6655 66.8982 74.0295C66.3582 76.3935 66.7042 82.4345 64.4032 81.2995C62.1012 80.1655 62.8252 74.8375 62.2432 70.0355C61.6612 65.2365 63.3682 59.5485 68.6912 56.1875Z" fill="#9B733F"/>
<path d="M78.8292 79.7435C78.7532 81.0855 77.6012 82.1125 76.2582 82.0365C74.9162 81.9595 73.8892 80.8075 73.9662 79.4665C74.0422 78.1225 75.1932 77.0965 76.5342 77.1735C77.8792 77.2505 78.9052 78.3995 78.8292 79.7435Z" fill="#7C564F"/>
<path d="M93.2882 80.8865C93.2112 82.2265 92.0612 83.2545 90.7172 83.1785C89.3752 83.1015 88.3492 81.9515 88.4262 80.6075C88.5042 79.2645 89.6502 78.2385 90.9932 78.3155C92.3392 78.3905 93.3662 79.5415 93.2882 80.8865Z" fill="#7C564F"/>
<path d="M84.7712 76.3354C84.7712 76.3354 84.9702 77.1735 85.1572 78.3575C85.2012 78.6525 85.2662 78.9695 85.3282 79.2895C85.3922 79.5995 85.4702 79.9565 85.5732 80.1515C85.5942 80.1965 85.6212 80.2195 85.6092 80.1875C85.5262 80.0785 85.6222 80.1614 85.6232 80.1414C85.7232 80.1924 85.8862 80.2685 86.0622 80.3445C86.4132 80.5105 86.8152 80.6935 87.2322 80.9995C87.4432 81.1515 87.6572 81.3445 87.8602 81.6185C88.0622 81.8895 88.2322 82.2965 88.2282 82.7165C88.2272 83.1355 88.0802 83.4825 87.9212 83.7335C87.7512 84.0045 87.6102 84.1485 87.3812 84.3605C87.2332 84.4785 87.0872 84.5945 86.9432 84.7085C86.7602 84.8335 86.5562 84.9625 86.3672 85.0685C85.9832 85.2565 85.6072 85.3544 85.2882 85.4084C84.6562 85.5074 84.1922 85.5474 83.8312 85.6154C83.4812 85.6844 83.2612 85.7165 83.2612 85.7165C83.2612 85.7165 83.3932 85.5524 83.6602 85.2804C83.9232 85.0204 84.3952 84.6835 84.9062 84.3875C85.1552 84.2365 85.3732 84.0555 85.5762 83.8755C85.6612 83.7685 85.7462 83.6894 85.8442 83.5844C85.9602 83.4424 86.0782 83.2975 86.1992 83.1505C86.2282 83.0875 86.3362 82.9334 86.3512 82.8624C86.3802 82.7754 86.3662 82.7375 86.3592 82.7585C86.3462 82.7805 86.3552 82.8015 86.3212 82.7505C86.2842 82.7025 86.1932 82.6245 86.0822 82.5355C85.8512 82.3605 85.5352 82.1724 85.1882 81.9614C85.0152 81.8494 84.8322 81.7355 84.6122 81.5655C84.4572 81.4305 84.3972 81.3945 84.2062 81.1255C84.0912 80.9305 84.0462 80.7764 84.0112 80.6414C83.9012 80.1104 83.9332 79.7314 83.9612 79.3514C83.9922 78.9794 84.0632 78.6415 84.1202 78.3325C84.3792 77.1005 84.7712 76.3354 84.7712 76.3354Z" fill="#CC8A6B"/>
<path d="M72.7262 75.2425C73.8022 75.6585 75.0042 75.6345 76.1292 75.8435C77.4092 76.0815 78.3932 76.9215 79.7672 76.5685C79.3162 76.4495 78.8652 76.3305 78.4142 76.2115C78.4692 76.2545 78.5242 76.2975 78.5792 76.3405C79.3602 76.9525 80.2872 76.7165 80.6602 75.7915C80.6862 75.7275 80.7122 75.6625 80.7382 75.5985C80.9802 74.9985 80.5712 74.3545 80.0992 74.0285C79.1672 73.3835 77.6862 72.9965 76.5712 72.8315C75.3202 72.6465 73.9742 72.5395 72.7272 72.7785C71.3592 73.0395 71.6672 74.8335 72.7262 75.2425Z" fill="#9B733F"/>
<path d="M88.5183 77.0685C89.5603 77.1965 90.6093 76.8715 91.6433 76.7895C92.8523 76.6935 93.9183 77.2525 95.0773 76.5805C94.7163 76.6275 94.3553 76.6745 93.9953 76.7225C94.0483 76.7405 94.1003 76.7595 94.1533 76.7785C94.7733 76.9975 95.5433 76.5365 95.6863 75.9075C95.6993 75.8515 95.7113 75.7965 95.7243 75.7405C95.9053 74.9465 95.4863 74.2845 94.7433 74.0115C93.7733 73.6575 92.3253 73.6415 91.3043 73.7645C90.1543 73.9035 88.9044 74.1395 87.8744 74.6875C86.6344 75.3465 87.3693 76.9275 88.5183 77.0685Z" fill="#9B733F"/>
<path d="M76.3383 88.2675C76.3383 88.2675 75.7073 92.6125 80.0613 93.7245C84.4153 94.8365 86.0083 90.4725 86.0083 90.4725L76.3383 88.2675Z" fill="white"/>
<path d="M89.5882 89.1545C89.4392 88.8945 89.1862 88.6724 88.9382 88.5054C88.1082 87.9434 87.6542 87.0625 86.9682 86.4305C86.2962 85.8135 85.2242 85.6365 84.3272 85.9035C83.1742 86.2465 83.6332 86.4694 82.9122 85.8364C82.5692 85.5354 82.1562 85.1255 81.7002 85.0095C80.7872 84.7785 80.0822 85.3215 79.4302 85.8705C78.4712 85.0485 77.9822 84.5395 76.4172 84.8575C75.7112 85.0015 74.9442 85.4754 74.3872 86.0884C73.0432 86.4714 71.5522 88.0285 71.9792 89.4675C72.1292 89.9685 72.8212 90.1915 73.2792 90.1545C74.4982 90.0545 75.7652 90.3715 76.9462 90.1805C77.1592 90.7655 77.5862 91.2124 78.3782 91.2554C79.1522 91.2964 79.8212 91.1705 80.5332 90.8595C80.8882 90.7035 81.1322 90.3845 81.3592 90.0485C81.6332 90.8325 82.2032 91.4055 83.1362 91.4605C83.6002 91.8895 84.4532 92.0275 84.9562 91.9935C86.1862 91.9095 86.1172 91.3865 87.0922 92.0085C87.6912 92.3935 88.6222 92.9915 89.3802 92.8565C90.9422 92.5775 90.0782 90.0155 89.5882 89.1545Z" fill="#9B733F"/>
<path d="M98.4331 88.6775C98.0331 85.9475 99.7921 76.4555 98.4521 75.7765C97.1161 75.0955 96.5571 84.0545 95.0171 86.9735C93.4801 89.8935 92.5531 92.8685 89.3251 95.3675C86.2921 97.7155 83.9491 98.0625 80.3991 97.5535C76.8501 97.0455 72.2191 96.1715 71.0301 92.7895C69.8401 89.4135 71.3121 87.6905 69.7331 86.3955C68.1531 85.0995 67.3301 85.0515 67.2041 82.3355C67.0801 79.6185 67.6171 74.8355 66.5691 73.8705C65.5221 72.9065 64.5461 74.8405 64.5461 74.8405C64.5461 74.8405 64.0871 83.9605 63.3901 86.6275C62.6911 89.2945 62.5271 92.2945 63.8151 93.8745C64.2531 94.4125 64.5951 94.8375 64.8721 95.2515C64.7571 95.5585 64.6671 95.8835 64.6261 96.2465C64.4911 97.4115 64.9711 98.6135 65.6221 99.4945C66.2391 100.327 67.3971 100.834 68.5361 100.944C68.6071 101.095 68.6871 101.25 68.7791 101.4C69.7811 103.036 71.1141 103.442 72.5381 103.176C72.8141 103.343 73.0991 103.477 73.3941 103.565C73.4511 103.834 73.5281 104.099 73.6421 104.334C74.0871 105.257 74.8251 106.339 75.8291 106.584C77.4971 106.986 79.3231 106.593 80.6951 105.494C81.4241 106.513 82.5571 107.08 84.0011 106.816C85.2701 106.582 86.1631 105.49 86.9591 104.486C86.9761 104.467 86.9921 104.445 87.0081 104.424C88.1671 104.752 89.3851 104.712 90.6241 104.104C91.6641 103.594 92.5751 102.817 93.2731 101.859C93.8131 101.722 94.3251 101.479 94.7461 101.094C95.9811 99.9695 96.9131 97.8175 97.2181 95.8245C98.6671 94.4015 98.8331 91.4045 98.4331 88.6775Z" fill="#9B733F"/>
<path d="M100.466 124.847C100.466 124.847 103.573 139.998 103.26 149.687C103.079 155.282 102.423 166.379 102.423 166.379" stroke="#785951" stroke-width="0.9622" stroke-miterlimit="10"/>
<path d="M43.9082 153.072C47.1692 158.661 43.4422 169.839 43.4422 169.839C43.4422 169.839 55.4772 172.354 61.2362 174.637C66.9962 176.919 80.8011 184.579 80.8011 184.579L80.7021 196.386C80.7021 196.386 19.6852 195.594 15.9632 182.88C12.2402 170.166 17.4061 148.755 17.4061 148.755C17.4061 148.755 40.6482 147.483 43.9082 153.072Z" fill="#FFC29B"/>
<path d="M47.1693 106.496C44.6273 105.568 31.6863 106.851 25.7443 116.278C20.5743 124.476 13.8793 152.542 14.4483 158.582C15.0143 164.619 44.2393 165.978 46.8043 164.054C49.3703 162.13 51.8263 146.552 52.2923 138.635C52.7583 130.716 51.9213 108.233 47.1693 106.496Z" fill="#5C3924"/>
<path d="M73.0656 137.558L68.2126 140.352L194.08 358.942L198.933 356.148L73.0656 137.558Z" fill="#C79A4A"/>
<path d="M66.0633 123.801C65.1523 122.218 63.0173 121.74 61.2943 122.733C59.5703 123.726 58.9112 125.811 59.8232 127.395L76.6123 156.555C77.5233 158.136 79.6583 158.614 81.3823 157.621C83.1053 156.628 83.7643 154.542 82.8543 152.962L66.0633 123.801Z" fill="#A47031"/>
<path d="M195.163 347.956C194.759 347.254 193.861 347.011 193.158 347.415L189.409 349.574C188.707 349.979 188.465 350.878 188.87 351.58L201.738 373.93C202.142 374.631 203.041 374.875 203.744 374.47L207.493 372.311C208.195 371.907 208.437 371.007 208.033 370.305L195.163 347.956Z" fill="#54272A"/>
<path d="M238.266 362.7L172.172 377.259C168.62 378.041 166.366 381.568 167.148 385.121L169.528 395.923C169.731 396.844 170.642 397.426 171.563 397.224C172.485 397.021 173.069 396.109 172.866 395.188L170.487 384.385C170.109 382.675 171.195 380.974 172.908 380.597L239 366.04C240.713 365.661 242.414 366.748 242.79 368.458L245.169 379.261C245.372 380.182 246.283 380.765 247.206 380.562C248.128 380.358 248.71 379.447 248.506 378.525L246.126 367.722C245.346 364.172 241.818 361.919 238.266 362.7Z" fill="#54272A"/>
<path d="M176.492 379.89C176.385 379.399 175.898 379.086 175.405 379.193L174.564 379.379C174.072 379.487 173.761 379.976 173.87 380.467L177.087 395.072C177.195 395.566 177.681 395.876 178.174 395.768L179.015 395.582C179.508 395.473 179.818 394.988 179.71 394.494L176.492 379.89Z" fill="#54272A"/>
<path d="M182.651 378.533C182.542 378.04 182.056 377.728 181.563 377.838L180.722 378.022C180.228 378.132 179.918 378.619 180.027 379.112L183.244 393.716C183.353 394.208 183.839 394.52 184.332 394.411L185.174 394.226C185.666 394.117 185.977 393.63 185.868 393.139L182.651 378.533Z" fill="#54272A"/>
<path d="M188.809 377.177C188.701 376.685 188.213 376.374 187.721 376.483L186.881 376.668C186.389 376.776 186.078 377.263 186.186 377.756L189.403 392.361C189.512 392.852 189.998 393.163 190.491 393.055L191.332 392.871C191.824 392.761 192.135 392.274 192.027 391.782L188.809 377.177Z" fill="#54272A"/>
<path d="M194.968 375.821C194.858 375.329 194.372 375.017 193.879 375.125L193.039 375.31C192.545 375.418 192.235 375.907 192.344 376.398L195.561 391.003C195.669 391.496 196.155 391.807 196.649 391.699L197.49 391.513C197.982 391.406 198.293 390.919 198.185 390.427L194.968 375.821Z" fill="#54272A"/>
<path d="M201.125 374.464C201.017 373.971 200.53 373.66 200.039 373.768L199.196 373.954C198.704 374.062 198.392 374.55 198.501 375.043L201.719 389.648C201.826 390.14 202.313 390.451 202.806 390.342L203.648 390.157C204.14 390.048 204.45 389.562 204.342 389.07L201.125 374.464Z" fill="#54272A"/>
<path d="M207.284 373.108C207.176 372.615 206.688 372.304 206.196 372.413L205.355 372.597C204.861 372.707 204.551 373.193 204.66 373.686L207.877 388.291C207.985 388.781 208.472 389.094 208.964 388.985L209.806 388.8C210.298 388.693 210.609 388.203 210.501 387.712L207.284 373.108Z" fill="#54272A"/>
<path d="M213.442 371.751C213.334 371.258 212.847 370.948 212.355 371.055L211.512 371.242C211.02 371.35 210.709 371.838 210.818 372.329L214.034 386.936C214.142 387.428 214.63 387.739 215.121 387.631L215.964 387.445C216.456 387.338 216.766 386.851 216.658 386.359L213.442 371.751Z" fill="#54272A"/>
<path d="M219.601 370.395C219.492 369.903 219.005 369.59 218.513 369.699L217.671 369.884C217.177 369.994 216.867 370.483 216.976 370.974L220.193 385.578C220.302 386.072 220.788 386.382 221.282 386.273L222.123 386.087C222.616 385.979 222.928 385.492 222.818 385L219.601 370.395Z" fill="#54272A"/>
<path d="M225.76 369.037C225.651 368.544 225.164 368.232 224.672 368.343L223.83 368.528C223.337 368.636 223.028 369.123 223.136 369.616L226.352 384.221C226.462 384.713 226.947 385.024 227.44 384.915L228.28 384.731C228.772 384.622 229.084 384.135 228.975 383.643L225.76 369.037Z" fill="#54272A"/>
<path d="M231.917 367.683C231.809 367.19 231.322 366.879 230.829 366.986L229.989 367.171C229.496 367.28 229.185 367.768 229.294 368.26L232.511 382.864C232.62 383.357 233.106 383.668 233.598 383.56L234.439 383.373C234.933 383.267 235.243 382.78 235.134 382.287L231.917 367.683Z" fill="#54272A"/>
<path d="M238.077 366.325C237.969 365.834 237.481 365.52 236.99 365.629L236.148 365.814C235.655 365.923 235.344 366.412 235.452 366.903L238.669 381.509C238.777 382.001 239.264 382.312 239.757 382.202L240.599 382.017C241.092 381.908 241.402 381.422 241.294 380.93L238.077 366.325Z" fill="#54272A"/>
<path d="M75.0061 180.308C75.0061 180.308 81.8931 173.263 90.3401 173.671C98.7871 174.078 99.3161 177.342 100.371 180.196C101.427 183.051 106.461 185.862 106.144 191.207C105.951 194.464 103.182 194.469 97.4671 196.508C91.7521 198.547 81.6771 201.124 76.6121 195.692C71.5471 190.261 75.0061 180.308 75.0061 180.308Z" fill="#FFC29B"/>
<path d="M127.842 234.458C127.842 234.458 130.122 235.486 131.218 239.513C132.312 243.536 131.738 246.173 134.247 246.017C136.755 245.862 136.811 242.499 137.251 237.66C137.492 235.014 135.957 231.995 134.365 229.481C132.627 226.736 131.026 224.327 129.578 223.991C126.803 223.349 123.858 224.544 124.137 227.232C124.414 229.919 127.842 234.458 127.842 234.458Z" fill="#FFC29B"/>
<path d="M128.169 237.421C127.27 236.759 126.544 236.747 125.971 237.032C125.92 236.193 125.771 235.363 125.463 234.555C124.987 233.306 123.71 233.661 122.772 234.112C122.667 234.161 122.579 234.238 122.482 234.303C122.758 232.518 122.565 230.879 120.767 230.383C120.169 230.219 119.673 230.37 119.266 230.71C118.811 229.089 117.991 227.318 116.564 227.318C113.935 227.318 112.265 234.297 115.724 237.269C115.724 237.269 114.781 239.945 118.556 242.324C118.556 242.324 117.927 245.296 121.701 247.379C122.39 247.758 123.751 248.585 123.751 248.585C123.751 248.585 124.955 252.206 127.388 252.093C129.822 251.98 130.555 249.523 130.822 248.864C132.394 245 131 239.502 128.169 237.421Z" fill="#FFC29B"/>
<path d="M125.945 237.42C125.945 237.42 123.54 242.712 124.261 247.523" stroke="#DC8C7A" stroke-width="0.9622" stroke-miterlimit="10"/>
<path d="M122.538 234.505C122.538 234.505 119.204 238.207 118.751 242.293" stroke="#DC8C7A" stroke-width="0.9622" stroke-miterlimit="10"/>
<path d="M119.649 230.568C119.649 230.568 116.443 233.812 116.106 237.482" stroke="#DC8C7A" stroke-width="0.9622" stroke-miterlimit="10"/>
<path d="M89.7822 178.807C89.7822 178.807 95.5552 176.562 99.0832 179.449" stroke="#DC8C7A" stroke-width="0.9622" stroke-miterlimit="10"/>
<path d="M92.9902 184.259C92.9902 184.259 98.7632 182.014 102.291 184.901" stroke="#DC8C7A" stroke-width="0.9622" stroke-miterlimit="10"/>
<path d="M95.2341 188.75C95.2341 188.75 101.007 186.505 104.535 189.392" stroke="#DC8C7A" stroke-width="0.9622" stroke-miterlimit="10"/>
<path d="M49.3702 122.358C49.3702 122.358 50.6532 136.79 50.3332 143.525C50.1002 148.425 46.8042 164.053 46.8042 164.053" stroke="#785951" stroke-width="0.9622" stroke-miterlimit="10"/>
<path d="M62.2001 74.8905C63.3441 76.2725 71.4161 70.5685 80.9461 68.3235C90.4771 66.0775 100.226 68.5215 100.226 68.5215C100.226 68.5215 100.527 59.1325 94.9731 55.1575C89.4191 51.1835 79.7261 51.3855 74.5121 51.7345C71.4131 51.9425 63.3021 53.2035 60.8841 61.6385C59.9941 64.7385 61.0551 73.5085 62.2001 74.8905Z" fill="#D4B133"/>
<path d="M27.0793 227.557C27.0793 227.557 49.2103 231.406 50.1713 236.217C51.1333 241.028 46.3223 267.007 34.7763 268.931C23.2303 270.856 17.4573 268.18 17.4573 259.31C17.4573 248.725 22.7493 230.925 27.0793 227.557Z" fill="#3B6B86"/>
<path d="M98.7632 229.963C98.7632 229.963 104.054 226.114 107.422 229.963C110.79 233.812 121.855 258.828 120.412 262.677C118.969 266.526 113.195 263.639 109.828 258.828C106.46 254.018 98.7632 229.963 98.7632 229.963Z" fill="#3B6B86"/>
<path d="M437.872 414.881C439.883 414.322 443.381 406.962 444.251 405.749C445.121 404.536 447.545 396.809 453.768 399.007C459.991 401.205 457.081 406.785 455.128 408.986C453.103 411.266 448.766 415.824 446.741 418.103C444.716 420.382 437.535 421.478 435.252 420.025C432.968 418.573 435.859 415.439 437.872 414.881Z" fill="#CD8290"/>
<path d="M380.5 408.695C381.417 407.672 384.311 393.755 386.043 392.477C387.774 391.199 391.871 389.938 396.158 392.122C400.901 394.538 397.515 402.547 396.83 403.685C396.034 405.01 395.305 406.113 394.72 406.812C391.722 410.392 388.429 414.774 386.23 415.644C384.03 416.513 377.897 417.302 376.211 415.63C374.082 413.52 378.736 410.665 380.5 408.695Z" fill="#CD8290"/>
<path d="M386.39 359.519C384.428 356.93 379.107 353.69 376.494 354.459C373.881 355.227 376.346 359.003 376.636 361.623C376.926 364.247 376.295 368.56 378.689 368.753C381.082 368.943 387.777 369.289 388.696 367.361C389.613 365.429 388.352 362.11 386.39 359.519Z" fill="#CD8290"/>
<path d="M369.493 390.202C370.328 392.05 377.005 392.625 379.156 392.641C381.308 392.657 383.584 393.052 385.304 393.767C388.119 394.934 391.369 396.882 392.603 397.617C393.837 398.352 396.417 400.521 398.729 402.338C397.13 407.646 394.698 415.275 393.566 416.538C391.802 418.508 387.148 421.364 389.275 423.472C390.963 425.145 397.094 424.356 399.295 423.485C401.494 422.615 404.787 418.234 407.785 414.654C408.873 413.355 410.463 410.654 412.045 407.741C420.633 408.859 430.324 407.366 440.15 407.439C443.381 407.463 446.883 406.963 450.397 406.04C453.466 410.186 457.673 412.546 457.316 413.592C456.73 415.309 452.949 422.165 450.937 422.724C448.925 423.283 446.033 426.416 448.317 427.867C450.6 429.32 457.781 428.225 459.806 425.946C461.831 423.666 466.169 419.108 468.194 416.828C470.218 414.548 468.824 409.373 468.543 408.511C468.263 407.648 470.857 404.459 473.212 397.932C474.372 394.713 475.242 391.807 475.866 389.17C476.86 389.51 477.923 389.522 478.963 389.024C479.115 388.951 479.252 388.862 479.393 388.777C480.555 389.539 482.218 389.514 483.45 389.007C485.388 388.208 486.236 386.1 486.119 384.147C485.989 381.968 484.865 380.756 482.882 380.25C482.546 380.164 482.42 380.644 482.738 380.761C485.678 381.843 486.215 387.351 482.614 388.146C481.875 388.31 481.087 388.222 480.437 387.927C481.342 386.952 481.845 385.642 481.904 384.245C481.956 382.998 481.351 381.323 479.776 382.231C477.908 383.306 477.459 386.004 478.442 387.762C478.464 387.804 478.497 387.832 478.521 387.871C477.782 388.193 476.948 388.215 476.137 387.957C479.778 370.953 472.636 365.832 466.309 362.016C466.309 362.016 447.143 354.604 433.651 355.767C421.449 356.818 392.737 360.153 388.829 360.576C378.982 361.639 377.44 366.825 376.159 371.677C374.878 376.529 374.726 380.99 370.847 383.538C368.343 385.181 368.657 388.352 369.493 390.202ZM480.447 385.742C480.21 386.349 479.88 386.833 479.492 387.208C479.023 386.631 478.854 385.835 479.251 384.868C480.415 382.028 480.939 384.474 480.447 385.742Z" fill="#E599A0"/>
<path d="M407.018 367.61C407.036 363.709 404.326 356.736 401.271 355.562C398.218 354.389 397.814 359.788 396.178 362.501C394.543 365.213 390.792 368.867 392.935 370.796C395.078 372.725 401.212 377.941 403.496 376.771C405.78 375.599 407 371.513 407.018 367.61Z" fill="#E599A0"/>
<path d="M402.814 374.744C403.965 374.178 405.72 368.467 404.647 365.285C403.575 362.105 401.92 359.196 400.773 359.169C399.626 359.142 397.754 364.667 396.711 366.092C395.669 367.518 393.674 369.369 394.672 370.093C395.669 370.818 397.444 370.57 398.679 371.271C401.22 372.715 401.663 375.31 402.814 374.744Z" fill="#CD8290"/>
<path d="M382.378 383.841C382.369 385.069 383.357 386.072 384.585 386.081C385.813 386.09 386.814 385.102 386.824 383.874C386.833 382.646 385.847 381.644 384.619 381.635C383.389 381.626 382.387 382.614 382.378 383.841Z" fill="#7C4C43"/>
<path d="M374.867 390.744C375.066 389.041 373.181 386.141 371.894 385.559C370.607 384.975 369.057 385.265 369.299 387.26C369.544 389.253 369.872 390.725 371.137 390.861C372.403 390.993 374.67 392.447 374.867 390.744Z" fill="#CD8290"/>
<path d="M378.064 385.317C378.064 385.317 377.227 383.59 375.531 382.483C373.837 381.375 372.495 381.991 372.495 381.991" stroke="#CD8290" stroke-width="0.8606" stroke-miterlimit="10"/>
<path d="M375.457 386.346C375.457 386.346 374.913 385.235 373.624 384.39C372.334 383.546 371.196 383.756 371.196 383.756" stroke="#CD8290" stroke-width="0.8606" stroke-miterlimit="10"/>
<path d="M371.929 386.792C372.453 386.796 372.814 387.588 373.032 387.962C373.433 388.654 373.635 389.54 373.382 390.321C373.313 390.534 373.073 390.532 372.958 390.408C372.952 390.406 372.945 390.408 372.939 390.406C372.082 390.154 370.765 386.784 371.929 386.792Z" fill="#955C6F"/>
<path d="M370.142 386.845C370.974 386.363 371.543 389.225 371.042 389.748C371.038 389.752 371.033 389.753 371.029 389.758C371.002 389.89 370.83 389.989 370.684 389.871C370.152 389.437 369.899 388.744 369.877 388.102C369.865 387.755 369.767 387.063 370.142 386.845Z" fill="#955C6F"/>
<path d="M403.497 376.771C405.78 375.599 407 371.513 407.018 367.61C407.036 363.709 404.326 356.736 401.271 355.562C398.218 354.389 397.814 359.788 396.178 362.501C394.662 365.015 391.331 368.337 392.556 370.346" stroke="#CD8290" stroke-width="0.8606" stroke-miterlimit="10"/>
<path d="M617.902 158.657C612.281 168.677 604.94 177.765 595.549 183.393L591.97 185.336C590.768 185.941 589.483 186.487 588.157 187.059C585.506 188.202 582.627 189.374 579.737 191.104C576.793 192.848 574.206 195.107 571.976 197.399C569.73 199.709 567.786 202.068 565.903 204.329C563.117 207.683 560.4 211.101 557.718 214.549L550.45 102.592L544.764 190.18C544.543 189.914 544.332 189.632 544.106 189.375C541.704 186.599 539.144 184.203 536.651 181.949C534.131 179.711 531.794 177.564 529.398 175.36C524.703 170.908 520.123 166.319 515.827 161.475C507.249 151.797 499.6 141.222 493.891 129.549C491.109 123.694 488.745 117.608 487.104 111.281C485.544 104.943 484.656 98.418 484.51 91.8152C484.053 98.397 484.333 105.053 485.331 111.648C486.409 118.23 488.25 124.685 490.565 130.977C492.913 137.263 495.91 143.287 499.18 149.156C502.483 155.013 506.25 160.585 510.198 166.026C514.182 171.442 518.473 176.615 522.907 181.664C527.359 186.749 532.212 191.382 535.599 196.123C539 200.786 540.774 206.023 541.748 211.909C542.294 215.317 542.535 218.871 542.659 222.524L532.351 381.273H568.539L560.837 262.647C559.654 244.438 564.289 226.248 574.429 211.078C574.484 210.996 574.539 210.914 574.592 210.833C577.848 205.966 580.828 201.55 584.727 198.65C586.72 197.14 589.154 195.809 591.748 194.367C593.045 193.641 594.389 192.899 595.724 192.047L599.617 189.381C604.634 185.599 608.89 181.002 612.406 176.037C615.932 171.064 618.76 165.729 621.139 160.275C625.886 149.34 628.923 137.96 631.739 126.594C627.778 137.603 623.571 148.595 617.902 158.657Z" fill="#7C4A01"/>
<path d="M539.241 184.349C538.374 183.528 537.507 182.725 536.647 181.947C534.128 179.709 531.79 177.562 529.394 175.358C524.699 170.906 520.12 166.317 515.824 161.473C507.245 151.796 499.596 141.22 493.887 129.547C491.105 123.692 488.741 117.606 487.1 111.279C485.541 104.941 484.652 98.4161 484.506 91.8134C484.05 98.3952 484.329 105.051 485.328 111.646C486.406 118.228 488.247 124.683 490.561 130.976C492.91 137.261 495.907 143.285 499.176 149.154C502.479 155.011 506.246 160.583 510.194 166.024C514.179 171.44 518.469 176.613 522.904 181.662C527.356 186.747 532.209 191.38 535.596 196.121C538.996 200.784 540.77 206.021 541.744 211.907C542.29 215.315 542.531 218.869 542.655 222.523L532.348 381.271H548.889C547.308 362.322 545.726 343.548 544.146 326.155C539.365 278.306 547.225 231.864 539.241 184.349Z" fill="#A5600F"/>
<path d="M617.902 158.657C612.28 168.677 604.94 177.766 595.549 183.393L591.97 185.336C590.768 185.941 589.483 186.487 588.157 187.059C585.506 188.202 582.627 189.374 579.736 191.104C576.792 192.848 574.206 195.107 571.975 197.399C569.729 199.71 567.786 202.068 565.903 204.329C563.117 207.683 560.4 211.101 557.718 214.549L557.191 206.444C554.535 210.641 552.393 214.881 551.389 219.404C544.151 250.164 558.627 280.923 553.198 317.11C550.178 332.208 556.684 343.946 566.784 354.194L560.841 262.647C559.658 244.438 564.292 226.248 574.432 211.078C574.487 210.996 574.543 210.914 574.596 210.833C577.852 205.966 580.832 201.55 584.73 198.65C586.723 197.14 589.157 195.809 591.751 194.368C593.048 193.641 594.393 192.899 595.728 192.047L599.621 189.381C604.637 185.599 608.893 181.002 612.41 176.037C615.935 171.064 618.763 165.73 621.142 160.275C625.889 149.341 628.926 137.961 631.743 126.594C627.778 137.603 623.571 148.595 617.902 158.657Z" fill="#663D06"/>
<path d="M676.23 52.9992C678.453 45.9572 660.294 54.4807 660.294 54.4807C660.294 54.4807 667.705 51.1451 666.223 42.9924C664.742 34.8397 650.658 45.5863 650.658 45.5863C650.658 45.5863 652.51 42.6215 654.364 34.4689C656.216 26.3162 634.166 34.8397 634.166 34.8397C634.166 34.8397 639.169 31.3196 638.799 23.3514C638.428 15.3832 624.901 27.4287 624.901 27.4287C624.901 27.4287 628.792 25.39 624.901 17.979C621.01 10.568 608.225 24.8347 608.225 24.8347C608.225 24.8347 616.748 18.7207 613.413 12.9756C610.077 7.23048 603.221 15.1987 603.221 15.1987C603.221 15.1987 603.963 5.74904 598.218 3.7104C592.473 1.67175 586.359 18.9052 586.359 18.9052C586.359 18.9052 587.285 11.1233 582.281 5.19374C577.278 -0.735832 568.941 17.0529 568.941 17.0529C568.941 17.0529 568.756 -0.364997 562.64 0.00583853C556.526 0.376674 555.043 18.3499 555.043 18.3499C555.043 18.3499 557.452 14.0881 554.301 9.82634C551.152 5.56458 545.222 17.0529 545.222 17.0529C545.222 17.0529 547.446 13.5328 544.11 6.49071C540.774 -0.551367 536.142 15.5695 535.586 15.3851C535.031 15.2006 536.328 3.89677 528.915 2.22896C521.504 0.561146 524.838 22.4271 524.838 22.4271C524.838 22.4271 524.838 16.4976 522.244 12.6067C519.65 8.71573 515.394 18.348 515.394 18.348C515.394 18.348 515.578 8.8983 511.503 8.34109C507.428 7.78389 508.354 22.7942 508.354 22.7942C508.354 22.7942 507.057 5.56077 500.386 6.48881C493.714 7.41495 501.867 27.2423 501.867 27.2423C501.867 27.2423 502.238 31.6885 493.899 22.0544C485.56 12.4203 477.223 18.7188 480.743 23.1669C484.263 27.6131 485.931 40.214 481.669 34.2844C477.407 28.3548 475.739 42.2526 475.739 42.2526C475.739 42.2526 472.959 38.3617 469.661 31.8768C466.364 25.3919 462.768 46.1454 462.768 46.1454C462.768 46.1454 458.877 39.4742 450.724 39.4742C442.571 39.4742 456.469 52.4458 456.469 52.4458C456.469 52.4458 449.798 50.778 444.425 52.4458C439.051 54.1136 453.504 59.1171 453.504 59.1171C453.504 59.1171 436.086 62.8235 438.867 67.4561C441.645 72.0849 449.613 71.1588 449.613 71.1588C449.613 71.1588 439.238 70.9743 436.828 76.1622C434.419 81.3501 442.573 86.1691 442.573 86.1691C442.573 86.1691 440.35 83.2043 434.234 84.8721C428.12 86.5399 441.09 100.438 441.09 100.438C441.09 100.438 437.754 95.8051 431.825 96.9176C425.895 98.0301 441.923 118.782 441.923 118.782C441.923 118.782 439.142 114.056 431.916 117.392C424.689 120.727 443.033 129.064 443.033 129.064C443.033 129.064 433.306 129.342 433.306 133.79C433.306 138.236 446.369 136.291 446.369 136.291C446.369 136.291 444.701 135.178 439.142 140.182C433.584 145.185 444.701 149.354 444.701 149.354C444.701 149.354 436.085 151.299 434.694 159.638C433.304 167.977 457.764 163.252 457.764 163.252C457.764 163.252 447.757 164.919 449.147 170.478C450.538 176.037 462.026 170.478 462.026 170.478C462.026 170.478 453.873 172.701 452.761 181.225C451.648 189.748 468.697 177.889 468.697 177.889C468.697 177.889 469.81 179.371 466.474 186.783C463.138 194.196 477.221 187.525 477.221 187.525C477.221 187.525 471.662 192.713 470.92 197.532C470.179 202.351 483.521 191.73 483.521 191.73C483.521 191.73 483.15 196.42 488.338 199.571C493.526 202.722 495.749 187.896 495.749 187.896C495.749 187.896 496.491 194.938 501.308 199.013C506.125 203.091 509.09 183.448 509.09 183.448C509.09 183.448 511.684 190.859 516.132 190.119C520.578 189.377 518.355 178.26 518.355 178.26C518.355 178.26 528.731 185.302 531.327 180.854C533.921 176.408 533.179 170.478 533.179 170.478C533.179 170.478 536.885 174.185 542.073 171.96C547.261 169.736 546.15 161.584 546.15 161.584C546.15 161.584 552.822 168.995 558.01 165.29C563.198 161.584 558.751 154.914 558.751 154.914C558.751 154.914 563.198 157.508 565.423 153.062C567.646 148.616 562.087 151.21 568.387 161.586C574.688 171.961 580.988 159.733 580.988 159.733C580.988 159.733 577.653 173.816 584.324 172.705C590.995 171.594 591.366 157.881 592.106 166.405C592.847 174.928 597.294 178.635 601.742 174.557C606.188 170.48 597.664 184.933 603.594 186.046C609.523 187.158 612.117 180.858 612.117 180.858C612.117 180.858 600.258 202.353 613.599 201.611C626.939 200.87 620.641 187.9 620.641 187.9C620.641 187.9 631.017 196.052 631.758 191.977C632.5 187.9 629.906 177.895 629.906 177.895C629.906 177.895 640.282 185.306 641.765 178.266C643.247 171.224 641.024 164.925 641.024 164.925C641.024 164.925 650.66 167.519 651.399 158.996C652.141 150.472 652.141 148.62 652.141 148.62C652.141 148.62 661.035 154.92 664.371 148.249C667.707 141.578 667.707 139.355 667.707 139.355C667.707 139.355 678.453 148.991 679.566 141.207C680.678 133.425 679.566 131.571 679.566 131.571C679.566 131.571 692.167 140.094 692.167 133.423C692.167 126.752 687.35 124.529 687.35 124.529C687.35 124.529 695.502 123.787 695.873 114.522C696.244 105.257 685.866 110.815 685.866 110.815C685.866 110.815 706.249 105.641 704.766 100.816C703.284 95.9915 691.054 93.3975 691.054 93.3975C691.054 93.3975 714.772 90.8036 712.918 83.3907C711.066 75.9797 692.906 81.1675 692.906 81.1675C692.906 81.1675 699.948 69.3084 694.019 67.4561C688.089 65.6038 683.272 70.7918 683.272 70.7918C683.272 70.7918 688.46 59.3035 685.125 59.3035C681.789 59.3035 675.859 63.0099 675.859 63.0099L676.23 52.9992Z" fill="#58A12D"/>
<path d="M543.737 87.6887C542.261 83.0161 554.312 88.6719 554.312 88.6719C554.312 88.6719 549.395 86.4582 550.378 81.0478C551.361 75.6374 560.708 82.7689 560.708 82.7689C560.708 82.7689 559.478 80.8006 558.249 75.3902C557.02 69.9798 571.652 75.6355 571.652 75.6355C571.652 75.6355 568.332 73.2983 568.577 68.0115C568.823 62.7247 577.801 70.7177 577.801 70.7177C577.801 70.7177 575.218 69.3656 577.801 64.4458C580.383 59.5279 588.869 68.9947 588.869 68.9947C588.869 68.9947 583.213 64.9365 585.425 61.1254C587.636 57.3144 592.187 62.6011 592.187 62.6011C592.187 62.6011 591.695 56.3293 595.508 54.9771C599.32 53.625 603.377 65.0601 603.377 65.0601C603.377 65.0601 602.763 59.895 606.083 55.9603C609.403 52.0257 614.937 63.8297 614.937 63.8297C614.937 63.8297 615.061 52.271 619.117 52.5163C623.176 52.7616 624.159 64.6892 624.159 64.6892C624.159 64.6892 622.56 61.8614 624.651 59.0335C626.743 56.2056 630.676 63.8297 630.676 63.8297C630.676 63.8297 629.2 61.4924 631.414 56.8199C633.628 52.1474 636.701 62.8446 637.07 62.7228C637.439 62.6011 636.577 55.0988 641.497 53.992C646.415 52.8852 644.203 67.3954 644.203 67.3954C644.203 67.3954 644.203 63.4607 645.924 60.8782C647.645 58.2956 650.473 64.6911 650.473 64.6911C650.473 64.6911 650.349 58.4192 653.056 58.0503C655.762 57.6814 655.146 67.6426 655.146 67.6426C655.146 67.6426 656.007 56.2056 660.432 56.8218C664.86 57.4361 659.449 70.5941 659.449 70.5941C659.449 70.5941 659.204 73.5456 664.736 67.1501C670.268 60.7546 675.804 64.9365 673.467 67.8879C671.13 70.8394 670.023 79.2013 672.852 75.2666C675.68 71.3319 676.787 80.5534 676.787 80.5534C676.787 80.5534 678.632 77.9709 680.821 73.6673C683.01 69.3637 685.394 83.1359 685.394 83.1359C685.394 83.1359 687.977 78.7087 693.387 78.7087C698.798 78.7087 689.574 87.3159 689.574 87.3159C689.574 87.3159 694.002 86.2091 697.567 87.3159C701.133 88.4227 691.543 91.7431 691.543 91.7431C691.543 91.7431 703.101 94.2021 701.257 97.2771C699.412 100.352 694.125 99.7361 694.125 99.7361C694.125 99.7361 701.011 99.6125 702.611 103.056C704.21 106.5 698.798 109.697 698.798 109.697C698.798 109.697 700.273 107.729 704.332 108.836C708.39 109.943 699.783 119.166 699.783 119.166C699.783 119.166 701.996 116.091 705.931 116.829C709.866 117.567 699.229 131.339 699.229 131.339C699.229 131.339 701.074 128.203 705.87 130.417C710.666 132.63 698.492 138.164 698.492 138.164C698.492 138.164 704.948 138.349 704.948 141.3C704.948 144.252 696.278 142.96 696.278 142.96C696.278 142.96 697.385 142.222 701.074 145.543C704.763 148.863 697.385 151.63 697.385 151.63C697.385 151.63 703.103 152.922 704.026 158.456C704.948 163.99 688.717 160.854 688.717 160.854C688.717 160.854 695.357 161.96 694.435 165.65C693.513 169.339 685.889 165.65 685.889 165.65C685.889 165.65 691.299 167.126 692.037 172.781C692.775 178.437 681.462 170.568 681.462 170.568C681.462 170.568 680.724 171.551 682.937 176.471C685.151 181.388 675.806 176.963 675.806 176.963C675.806 176.963 679.495 180.407 679.988 183.604C680.48 186.801 671.626 179.753 671.626 179.753C671.626 179.753 671.871 182.866 668.429 184.956C664.985 187.048 663.511 177.208 663.511 177.208C663.511 177.208 663.019 181.881 659.822 184.587C656.625 187.293 654.657 174.257 654.657 174.257C654.657 174.257 652.936 179.175 649.984 178.684C647.033 178.192 648.509 170.815 648.509 170.815C648.509 170.815 641.622 175.487 639.901 172.536C638.18 169.584 638.671 165.65 638.671 165.65C638.671 165.65 636.212 168.109 632.768 166.633C629.324 165.157 630.062 159.747 630.062 159.747C630.062 159.747 625.635 164.665 622.192 162.206C618.748 159.747 621.7 155.32 621.7 155.32C621.7 155.32 618.748 157.041 617.273 154.089C615.797 151.138 619.486 152.859 615.304 159.745C611.123 166.631 606.943 158.515 606.943 158.515C606.943 158.515 609.156 167.86 604.729 167.122C600.302 166.384 600.056 157.284 599.564 162.942C599.071 168.599 596.12 171.058 593.17 168.352C590.221 165.646 595.876 175.238 591.94 175.976C588.003 176.714 586.284 172.532 586.284 172.532C586.284 172.532 594.154 186.797 585.301 186.304C576.447 185.812 580.628 177.205 580.628 177.205C580.628 177.205 573.742 182.615 573.25 179.911C572.757 177.205 574.48 170.566 574.48 170.566C574.48 170.566 567.594 175.484 566.611 170.811C565.628 166.139 567.103 161.957 567.103 161.957C567.103 161.957 560.71 163.678 560.217 158.022C559.725 152.366 559.725 151.136 559.725 151.136C559.725 151.136 553.822 155.316 551.608 150.89C549.395 146.463 549.395 144.988 549.395 144.988C549.395 144.988 542.263 151.381 541.525 146.218C540.787 141.053 541.525 139.824 541.525 139.824C541.525 139.824 533.163 145.48 533.163 141.055C533.163 136.629 536.36 135.152 536.36 135.152C536.36 135.152 530.95 134.659 530.704 128.511C530.459 122.363 537.345 126.052 537.345 126.052C537.345 126.052 523.818 122.618 524.803 119.417C525.787 116.216 533.903 114.493 533.903 114.493C533.903 114.493 518.163 112.772 519.393 107.853C520.623 102.933 532.673 106.377 532.673 106.377C532.673 106.377 528 98.5076 531.935 97.2771C535.87 96.0467 539.066 99.4907 539.066 99.4907C539.066 99.4907 535.622 91.8668 537.836 91.8668C540.05 91.8668 543.984 94.3257 543.984 94.3257L543.737 87.6887Z" fill="#66CB3D"/>
<path d="M410.485 93.759C407.237 91.2126 418.301 89.4136 418.301 89.4136C418.301 89.4136 413.83 90.2142 411.942 85.9867C410.054 81.7592 419.939 82.2707 419.939 82.2707C419.939 82.2707 418.149 81.4891 414.722 78.3133C411.295 75.1374 424.153 72.1117 424.153 72.1117C424.153 72.1117 420.736 72.0661 418.391 68.276C416.048 64.4839 426.085 65.7714 426.085 65.7714C426.085 65.7714 423.647 66.0586 423.103 61.4127C422.561 56.7649 432.96 59.3113 432.96 59.3113C432.96 59.3113 427.099 59.18 426.825 55.4793C426.551 51.7785 432.226 53.2885 432.226 53.2885C432.226 53.2885 428.902 49.1637 430.908 46.4119C432.914 43.6601 441.171 49.6771 441.171 49.6771C441.171 49.6771 438.288 46.3795 438.724 42.0664C439.159 37.7533 448.619 43.3254 448.619 43.3254C448.619 43.3254 443.208 35.2335 446.144 33.4764C449.081 31.7192 455.436 39.539 455.436 39.539C455.436 39.539 452.981 38.3333 453.088 35.3743C453.196 32.4152 459.555 35.8421 459.555 35.8421C459.555 35.8421 457.42 34.9198 456.735 30.62C456.05 26.3202 463.275 32.2935 463.473 32.0329C463.671 31.7724 459.506 26.9687 462.398 23.8612C465.291 20.7538 470.652 31.8884 470.652 31.8884C470.652 31.8884 468.781 29.1537 468.75 26.5408C468.718 23.9278 473.725 27.0257 473.725 27.0257C473.725 27.0257 470.658 22.7259 472.362 21.1836C474.066 19.6413 478.375 26.8546 478.375 26.8546C478.375 26.8546 473.535 18.4984 476.905 16.8211C480.273 15.1438 482.77 26.8603 482.77 26.8603C482.77 26.8603 484.002 29.0282 484.806 21.9538C485.611 14.8794 491.445 15.1533 491.225 18.3158C491.004 21.4784 494.21 27.8149 494.306 23.7357C494.401 19.6565 499.554 25.5386 499.554 25.5386C499.554 25.5386 499.608 22.8666 499.083 18.835C498.558 14.8033 506.764 23.2394 506.764 23.2394C506.764 23.2394 506.454 18.9358 510.213 16.3628C513.973 13.7897 511.657 24.1579 511.657 24.1579C511.657 24.1579 514.207 21.2844 517.212 20.3564C520.217 19.4302 515.129 26.2974 515.129 26.2974C515.129 26.2974 524.332 22.511 524.511 25.5234C524.691 28.5376 520.724 30.6238 520.724 30.6238C520.724 30.6238 525.452 27.2634 528.2 28.897C530.948 30.5306 528.708 35.3248 528.708 35.3248C528.708 35.3248 528.797 33.2558 532.144 32.0957C535.491 30.9357 533.894 41.437 533.894 41.437C533.894 41.437 533.97 38.2478 537.056 36.8899C540.141 35.5321 539.298 50.1602 539.298 50.1602C539.298 50.1602 539.089 47.1041 543.475 46.3624C547.86 45.6208 542.031 55.2549 542.031 55.2549C542.031 55.2549 546.605 52.3129 548.008 54.3649C549.412 56.4149 542.773 59.6402 542.773 59.6402C542.773 59.6402 543.191 58.6019 547.333 59.1553C551.475 59.7087 547.664 65.14 547.664 65.14C547.664 65.14 552.251 63.3182 555.524 66.7261C558.797 70.1321 546.025 75.6718 546.025 75.6718C546.025 75.6718 551.165 73.2832 552.28 76.286C553.394 79.2888 546.34 80.35 546.34 80.35C546.34 80.35 550.802 78.802 554.004 82.383C557.207 85.9639 545.603 85.8726 545.603 85.8726C545.603 85.8726 545.557 86.9071 549.435 89.2729C553.312 91.6386 544.713 93.006 544.713 93.006C544.713 93.006 548.913 93.6449 550.775 95.6322C552.637 97.6195 543.134 96.933 543.134 96.933C543.134 96.933 544.785 98.9793 543.387 102.07C541.989 105.16 536.284 99.0249 536.284 99.0249C536.284 99.0249 538.165 102.505 537.229 105.905C536.294 109.306 528.729 101.183 528.729 101.183C528.729 101.183 529.872 105.42 527.586 106.482C525.3 107.543 522.818 101.714 522.818 101.714C522.818 101.714 520.255 108.235 517.655 107.003C515.055 105.77 513.526 102.802 513.526 102.802C513.526 102.802 512.986 105.681 509.892 106.291C506.798 106.904 504.738 102.792 504.738 102.792C504.738 102.792 504.001 108.315 500.439 108.243C496.877 108.17 496.822 103.692 496.822 103.692C496.822 103.692 495.589 106.291 493.161 104.943C490.732 103.595 494.113 103.036 494.482 109.81C494.851 116.584 488.087 112.93 488.087 112.93C488.087 112.93 494.07 118.373 490.641 119.965C487.214 121.557 482.716 115.351 485.063 119.516C487.41 123.681 486.529 126.794 483.192 126.317C479.854 125.839 488.346 129.816 485.963 132.199C483.58 134.581 480.394 132.495 480.394 132.495C480.394 132.495 492.645 138.666 486.259 142.534C479.873 146.403 478.685 138.432 478.685 138.432C478.685 138.432 476.473 145.467 474.843 143.82C473.215 142.173 471.255 136.742 471.255 136.742C471.255 136.742 468.809 143.434 465.903 140.656C462.997 137.875 462.035 134.27 462.035 134.27C462.035 134.27 458.411 138.507 455.379 134.81C452.348 131.113 451.762 130.259 451.762 130.259C451.762 130.259 449.649 135.972 446.006 133.946C442.362 131.923 441.66 130.898 441.66 130.898C441.66 130.898 439.745 138.733 436.777 135.494C433.808 132.256 433.736 131.05 433.736 131.05C433.736 131.05 430.615 138.957 428.51 135.88C426.405 132.803 427.924 130.259 427.924 130.259C427.924 130.259 423.93 132.49 420.836 128.334C417.742 124.179 424.282 123.468 424.282 123.468C424.282 123.468 413.248 127.513 412.41 124.82C411.571 122.127 416.392 117.072 416.392 117.072C416.392 117.072 404.636 123.359 403.15 119.358C401.665 115.355 411.678 112.017 411.678 112.017C411.678 112.017 404.689 108.771 406.838 106.044C408.987 103.317 412.847 104.192 412.847 104.192C412.847 104.192 406.83 100.531 408.367 99.4794C409.905 98.4278 413.809 98.2642 413.809 98.2642L410.485 93.759Z" fill="#66CB3D"/>
<path d="M504.778 114.725C504.778 114.725 504.073 127.596 515.546 132.467C515.546 132.467 521.637 120.577 504.778 114.725Z" fill="#66CB3D"/>
<path d="M442.835 64.6455C442.835 64.6455 442.13 77.5164 453.603 82.3867C453.603 82.3867 459.694 70.4971 442.835 64.6455Z" fill="#71E043"/>
<path d="M565.712 110.547C565.712 110.547 565.006 123.418 576.479 128.289C576.479 128.289 582.571 116.399 565.712 110.547Z" fill="#71E043"/>
<path d="M503.957 63.4227C503.957 63.4227 494.41 72.0832 499.151 83.6114C499.151 83.6114 511.841 79.4333 503.957 63.4227Z" fill="#71E043"/>
<path d="M680.543 98.1178C680.543 98.1178 670.996 106.778 675.737 118.306C675.737 118.306 688.427 114.128 680.543 98.1178Z" fill="#71E043"/>
<path d="M484.464 58.8432C484.464 58.8432 473.841 51.5425 463.711 58.8052C463.711 58.8052 470.696 70.1965 484.464 58.8432Z" fill="#71E043"/>
<path d="M600.52 81.4968C600.52 81.4968 589.897 74.1961 579.767 81.4587C579.767 81.4587 586.752 92.8501 600.52 81.4968Z" fill="#71E043"/>
<path d="M660.997 140.883C660.997 140.883 650.374 133.583 640.243 140.845C640.243 140.845 647.227 152.237 660.997 140.883Z" fill="#71E043"/>
<path d="M478.508 111.468C478.508 111.468 467.885 104.167 457.754 111.43C457.754 111.43 464.739 122.821 478.508 111.468Z" fill="#71E043"/>
<path d="M629.375 95.4476C629.375 95.4476 617.014 99.0989 616.272 111.542C616.272 111.542 629.518 113.291 629.375 95.4476Z" fill="#71E043"/>
<path d="M603.247 137.849C603.247 137.849 590.886 141.5 590.145 153.943C590.145 153.943 603.388 155.694 603.247 137.849Z" fill="#71E043"/>
<path d="M556.068 31.6886C556.068 31.6886 555.362 44.5595 566.835 49.4298C566.835 49.4298 572.927 37.5402 556.068 31.6886Z" fill="#66CB3D"/>
<path d="M479.278 148.709C479.278 148.709 467.432 153.793 468.164 166.235C468.164 166.235 481.522 166.414 479.278 148.709Z" fill="#66CB3D"/>
<path d="M490.736 157.68C490.736 157.68 495.665 169.59 508.116 169.022C508.116 169.022 508.468 155.666 490.736 157.68Z" fill="#66CB3D"/>
<path d="M616.605 31.9813C616.605 31.9813 603.761 33.0577 600.521 45.0956C600.521 45.0956 613.138 49.4867 616.605 31.9813Z" fill="#66CB3D"/>
<path d="M526.335 141.774C526.335 141.774 517.657 151.303 523.473 162.329C523.473 162.329 535.706 156.961 526.335 141.774Z" fill="#66CB3D"/>
<path d="M461.271 102.969C458.219 99.7511 455.708 101.97 453.985 104.899C452.723 107.046 450.532 108.429 448.052 108.644C444.667 108.938 441.584 110.249 443.176 114.389C445.945 121.594 455.417 124.255 459.476 120.168C464.911 118.264 466.586 108.569 461.271 102.969Z" fill="#E53212"/>
<path d="M461.271 102.969C459.824 101.444 458.502 101.149 457.325 101.564C457.654 101.794 457.987 102.077 458.329 102.438C463.643 108.039 461.967 117.734 456.532 119.637C455.134 121.045 453.092 121.634 450.905 121.532C454.107 122.56 457.458 122.199 459.474 120.168C464.911 118.264 466.586 108.569 461.271 102.969Z" fill="#A6240D"/>
<g opacity="0.39">
<path d="M448.239 110.218C447.197 110.507 445.98 111.045 445.66 111.842C445.35 112.538 446.109 113.369 446.866 114.132C447.634 114.881 448.589 115.36 449.397 116.013C450.241 116.646 451.05 117.321 452.09 117.869L452.105 118.065C450.831 118.599 449.494 118.194 448.381 117.688C447.225 117.159 446.413 116.133 445.677 115.155C445.316 114.634 444.991 114.174 444.713 113.518C444.447 112.903 444.355 112.006 444.81 111.354C445.257 110.724 445.884 110.477 446.457 110.296C447.043 110.127 447.625 110.041 448.214 110.022L448.239 110.218Z" fill="white"/>
</g>
<path d="M452.791 109.576C452.791 109.576 451.445 104.346 447.756 103.393" stroke="#7C4A01" stroke-width="0.979387" stroke-miterlimit="10"/>
<path d="M451.329 109.631C451.918 109.345 452.325 109.191 452.65 108.984C452.823 108.897 452.966 108.784 453.149 108.646C453.337 108.509 453.497 108.313 453.759 108.096C454.04 108.684 453.765 109.477 453.143 109.828C452.534 110.165 451.793 110.102 451.329 109.631Z" fill="#A6240D"/>
<path d="M569.013 92.6236C565.96 89.4059 563.45 91.6252 561.727 94.5539C560.464 96.7009 558.274 98.0835 555.794 98.2984C552.409 98.5931 549.326 99.9034 550.918 104.043C553.687 111.249 563.159 113.91 567.217 109.823C572.651 107.919 574.326 98.2242 569.013 92.6236Z" fill="#E53212"/>
<path d="M569.013 92.6236C567.566 91.0984 566.244 90.8036 565.067 91.2182C565.396 91.4483 565.728 91.7316 566.071 92.093C571.384 97.6935 569.709 107.389 564.274 109.292C562.876 110.699 560.833 111.289 558.646 111.186C561.849 112.215 565.2 111.854 567.216 109.823C572.651 107.919 574.326 98.2241 569.013 92.6236Z" fill="#A6240D"/>
<g opacity="0.39">
<path d="M555.98 99.873C554.938 100.162 553.721 100.7 553.402 101.497C553.092 102.193 553.85 103.024 554.607 103.787C555.376 104.536 556.33 105.015 557.138 105.668C557.983 106.301 558.791 106.976 559.831 107.524L559.846 107.72C558.572 108.254 557.235 107.849 556.123 107.343C554.967 106.814 554.155 105.787 553.419 104.81C553.057 104.289 552.732 103.829 552.454 103.172C552.188 102.558 552.097 101.661 552.551 101.008C552.998 100.379 553.626 100.132 554.198 99.951C554.784 99.7817 555.366 99.6961 555.956 99.6771L555.98 99.873Z" fill="white"/>
</g>
<path d="M560.531 99.2322C560.531 99.2322 559.185 94.0024 555.495 93.0497" stroke="#7C4A01" stroke-width="0.979387" stroke-miterlimit="10"/>
<path d="M559.07 99.2854C559.66 99.0002 560.067 98.8461 560.392 98.6388C560.565 98.5514 560.708 98.4392 560.89 98.3003C561.079 98.1634 561.238 97.9675 561.501 97.7507C561.782 98.3384 561.506 99.1314 560.885 99.4832C560.274 99.8198 559.534 99.757 559.07 99.2854Z" fill="#A6240D"/>
<path d="M527.414 141.914C527.011 137.497 523.666 137.685 520.5 138.917C518.18 139.821 515.603 139.549 513.52 138.181C510.681 136.316 507.448 135.435 506.134 139.67C503.844 147.043 509.633 154.998 515.35 154.302C520.796 156.175 528.118 149.603 527.414 141.914Z" fill="#E53212"/>
<path d="M527.415 141.914C527.223 139.82 526.367 138.771 525.188 138.366C525.302 138.75 525.389 139.18 525.435 139.674C526.139 147.363 518.817 153.935 513.371 152.064C511.402 152.303 509.432 151.501 507.78 150.065C509.657 152.857 512.511 154.648 515.35 154.302C520.797 156.175 528.118 149.603 527.415 141.914Z" fill="#A6240D"/>
<g opacity="0.39">
<path d="M512.691 139.534C511.695 139.115 510.405 138.784 509.66 139.212C508.985 139.568 509.067 140.69 509.188 141.757C509.327 142.822 509.782 143.788 510.01 144.801C510.28 145.823 510.497 146.851 510.974 147.926L510.866 148.087C509.535 147.717 508.736 146.57 508.177 145.486C507.597 144.354 507.595 143.046 507.623 141.821C507.663 141.188 507.694 140.625 507.882 139.939C508.053 139.292 508.538 138.531 509.299 138.299C510.038 138.083 510.687 138.277 511.246 138.49C511.811 138.72 512.321 139.014 512.796 139.364L512.691 139.534Z" fill="white"/>
</g>
<path d="M516.664 141.848C516.664 141.848 518.847 136.907 516.541 133.874" stroke="#7C4A01" stroke-width="0.979387" stroke-miterlimit="10"/>
<path d="M515.483 140.986C516.122 141.129 516.536 141.258 516.923 141.298C517.113 141.336 517.295 141.336 517.523 141.342C517.755 141.351 518.003 141.296 518.345 141.289C518.202 141.924 517.493 142.375 516.787 142.268C516.097 142.152 515.555 141.644 515.483 140.986Z" fill="#A6240D"/>
<path d="M597.761 32.6907C597.358 28.273 594.013 28.4612 590.846 29.6935C588.526 30.5969 585.95 30.3249 583.867 28.9576C581.028 27.092 577.795 26.2115 576.481 30.4466C574.191 37.8196 579.98 45.7745 585.697 45.0785C591.145 46.9517 598.465 40.3774 597.761 32.6907Z" fill="#E53212"/>
<path d="M597.761 32.6909C597.569 30.5971 596.713 29.5474 595.534 29.1423C595.648 29.5265 595.736 29.9563 595.782 30.4507C596.485 38.1394 589.164 44.7117 583.717 42.8404C581.749 43.0801 579.779 42.2775 578.126 40.8417C580.003 43.6335 582.857 45.4249 585.697 45.0788C591.145 46.952 598.465 40.3777 597.761 32.6909Z" fill="#A6240D"/>
<g opacity="0.39">
<path d="M583.04 30.3078C582.043 29.8895 580.754 29.5586 580.009 29.9865C579.334 30.3421 579.415 31.4641 579.537 32.531C579.676 33.5959 580.13 34.562 580.359 35.5756C580.629 36.5968 580.845 37.6257 581.323 38.7001L581.214 38.8618C579.883 38.491 579.084 37.3442 578.525 36.2602C577.945 35.1287 577.943 33.8203 577.972 32.5956C578.012 31.9623 578.042 31.3994 578.231 30.7129C578.402 30.0663 578.887 29.3056 579.647 29.0736C580.387 28.8568 581.036 29.0508 581.595 29.2638C582.16 29.4939 582.669 29.7887 583.145 30.1386L583.04 30.3078Z" fill="white"/>
</g>
<path d="M587.011 32.6242C587.011 32.6242 589.194 27.6835 586.887 24.6503" stroke="#7C4A01" stroke-width="0.979387" stroke-miterlimit="10"/>
<path d="M585.83 31.7609C586.469 31.9035 586.884 32.0328 587.27 32.0727C587.46 32.1108 587.642 32.1108 587.871 32.1165C588.103 32.126 588.35 32.0708 588.692 32.0632C588.55 32.6984 587.84 33.1491 587.135 33.0426C586.444 32.9285 585.902 32.4189 585.83 31.7609Z" fill="#A6240D"/>
<path d="M517.041 55.2396C517.436 50.8219 514.112 50.4073 510.777 51.052C508.333 51.5255 505.845 50.7952 504.043 49.078C501.584 46.7332 498.562 45.2879 496.508 49.2187C492.933 56.0611 497.204 64.925 502.953 65.2654C507.974 68.0838 516.354 62.9301 517.041 55.2396Z" fill="#E53212"/>
<path d="M517.041 55.2396C517.227 53.1458 516.575 51.9591 515.485 51.3506C515.529 51.7499 515.538 52.1873 515.495 52.6818C514.808 60.3705 506.427 65.526 501.405 62.7077C499.425 62.5898 497.632 61.4468 496.262 59.7391C497.609 62.8218 500.096 65.0962 502.951 65.2655C507.973 68.0838 516.354 62.9302 517.041 55.2396Z" fill="#A6240D"/>
<g opacity="0.39">
<path d="M502.983 50.2589C502.078 49.6694 500.868 49.1103 500.058 49.3994C499.332 49.6276 499.21 50.7458 499.138 51.8184C499.085 52.8909 499.357 53.9236 499.4 54.9619C499.484 56.0155 499.513 57.0671 499.788 58.21L499.651 58.3508C498.408 57.7479 497.828 56.4776 497.472 55.308C497.105 54.0909 497.337 52.8034 497.584 51.6054C497.736 50.9892 497.868 50.4415 498.176 49.8006C498.459 49.1959 499.073 48.5341 499.862 48.4428C500.629 48.361 501.232 48.6691 501.745 48.9791C502.261 49.3062 502.707 49.6865 503.112 50.1163L502.983 50.2589Z" fill="white"/>
</g>
<path d="M506.475 53.2484C506.475 53.2484 509.508 48.7794 507.781 45.381" stroke="#7C4A01" stroke-width="0.979387" stroke-miterlimit="10"/>
<path d="M505.469 52.1873C506.073 52.4421 506.456 52.6437 506.828 52.7521C507.009 52.8224 507.188 52.8567 507.412 52.9023C507.638 52.9536 507.891 52.9422 508.23 52.9974C507.975 53.5964 507.197 53.914 506.522 53.682C505.864 53.4443 505.421 52.8472 505.469 52.1873Z" fill="#A6240D"/>
<path d="M660.912 83.1379C661.307 78.7202 657.983 78.3056 654.648 78.9503C652.204 79.4238 649.716 78.6936 647.914 76.9763C645.455 74.6315 642.433 73.1862 640.379 77.117C636.804 83.9594 641.075 92.8234 646.824 93.1638C651.844 95.9821 660.223 90.8265 660.912 83.1379Z" fill="#E53212"/>
<path d="M660.912 83.1379C661.098 81.0441 660.446 79.8575 659.356 79.2489C659.4 79.6483 659.41 80.0857 659.366 80.5801C658.679 88.2688 650.298 93.4243 645.276 90.606C643.296 90.4881 641.503 89.3451 640.134 87.6374C641.48 90.7201 643.968 92.9946 646.822 93.1638C651.845 95.9822 660.224 90.8266 660.912 83.1379Z" fill="#A6240D"/>
<g opacity="0.39">
<path d="M646.855 78.1554C645.949 77.5659 644.74 77.0068 643.93 77.2958C643.203 77.524 643.081 78.6423 643.009 79.7148C642.956 80.7874 643.228 81.82 643.272 82.8584C643.355 83.9119 643.384 84.9636 643.66 86.1065L643.523 86.2472C642.279 85.6444 641.699 84.3741 641.343 83.2045C640.976 81.9874 641.208 80.6999 641.456 79.5018C641.608 78.8857 641.739 78.338 642.047 77.6971C642.33 77.0924 642.945 76.4306 643.734 76.3393C644.5 76.2575 645.103 76.5656 645.616 76.8756C646.132 77.2027 646.579 77.583 646.984 78.0128L646.855 78.1554Z" fill="white"/>
</g>
<path d="M650.346 81.1448C650.346 81.1448 653.379 76.6757 651.652 73.2773" stroke="#7C4A01" stroke-width="0.979387" stroke-miterlimit="10"/>
<path d="M649.338 80.0837C649.943 80.3386 650.325 80.5402 650.698 80.6486C650.879 80.7189 651.057 80.7532 651.282 80.7988C651.508 80.8501 651.761 80.8387 652.099 80.8939C651.845 81.4929 651.067 81.8105 650.392 81.5785C649.734 81.3427 649.293 80.7455 649.338 80.0837Z" fill="#A6240D"/>
</svg>
