<svg width="1512" height="805" viewBox="0 0 1512 805" fill="none" xmlns="http://www.w3.org/2000/svg">
<g clip-path="url(#clip0_27_66)">
<mask id="mask0_27_66" style="mask-type:luminance" maskUnits="userSpaceOnUse" x="0" y="0" width="1512" height="805">
<path d="M1512 0H0V804.255H1512V0Z" fill="white"/>
</mask>
<g mask="url(#mask0_27_66)">
<path d="M395.233 595.094C389.132 602.863 377.821 603.547 367.943 603.569C223.317 603.901 71.4258 608.031 -73.2002 608.363C-79.3544 586.23 -83.6025 563.567 -85.8801 540.707C-86.4222 535.272 -84.1268 526.622 -88.2092 522.993C-81.8556 519.551 -71.1011 517.837 -64.1379 519.766C-25.865 510.947 12.6669 502.09 51.9049 500.348C167.75 495.202 278.329 551.999 394.212 556.178C395.566 571.144 395.398 580.068 395.233 595.094Z" fill="#EDDB74"/>
<path d="M1206.22 616.148H1576.52C1582.96 616.148 1595.3 615.27 1601.74 615.27V534.294C1417.27 480.506 1214.28 492.714 1037.58 568.226C1096.42 581.718 1147.38 602.657 1206.22 616.148Z" fill="#EDDB74"/>
<path d="M943.284 584.686C914.932 572.951 886.581 561.219 858.229 549.485C836.765 540.603 815.204 531.687 792.664 526.07C703.498 503.848 610.645 535.052 524.257 566.379C619.54 613.142 727.467 637.123 832.983 625.638C870.309 621.575 912.548 606.249 943.284 584.686Z" fill="#EDDB74"/>
<path d="M1609.15 823.709C1610.67 815.796 1612.2 708.668 1613.73 700.756C1618.26 677.276 1612.63 649.779 1608.85 626.214C1514.41 619.182 1421.36 597.282 1328.14 583.19C1233.58 568.895 1150.39 541 1054.69 536.377C963.195 531.957 865.535 576.337 775.173 583.925C704.343 589.871 637.932 560.387 569.72 546.974C497.647 532.802 453.458 530.611 380.905 540.247C319.241 548.438 230.398 585.257 167.33 583.191C80.5123 580.348 -2.74739 534.294 -87.6011 519.176C-91.386 567.832 -84.0592 804.556 -86.7953 823.712" fill="#D8C850"/>
</g>
<mask id="mask1_27_66" style="mask-type:luminance" maskUnits="userSpaceOnUse" x="0" y="0" width="1512" height="805">
<path d="M1512 0H0V804.255H1512V0Z" fill="white"/>
</mask>
<g mask="url(#mask1_27_66)">
<path d="M452.981 826.863C556.725 718.293 685.631 663.316 790.816 635.59C1047.17 568.017 1312.1 584.829 1574.78 585.567C1623.03 585.702 1643.94 583.188 1643.94 583.188V823.709L452.981 826.863Z" fill="#9B7D00"/>
</g>
<mask id="mask2_27_66" style="mask-type:luminance" maskUnits="userSpaceOnUse" x="0" y="0" width="1512" height="805">
<path d="M1512 0H0V804.255H1512V0Z" fill="white"/>
</mask>
<g mask="url(#mask2_27_66)">
<path d="M658.566 682.443C655.188 674.725 651.582 666.702 645.04 661.394C638.101 655.762 628.656 653.983 619.748 654.712C616.182 655.003 612.025 655.426 607.782 656.025C599.386 657.208 590.983 652.904 587.518 645.165C582.205 633.295 569.34 624.443 556.218 625.994C551.296 626.576 545.998 628.297 541.627 625.96C538.024 624.034 536.276 619.952 534.255 616.402C524.879 599.916 505.077 591.148 486.114 591.493C473.473 591.723 461.226 595.475 449.881 601.198C440.997 605.68 430.434 604.967 422.346 599.17C410.437 590.634 394.226 587.627 379.488 590.048C359.24 593.376 337.885 610.991 322.088 624.089C358.883 627.708 393.969 630.642 430.658 635.683C509.578 646.528 589.135 662.594 658.566 682.443Z" fill="#1C4732"/>
<path d="M234.92 635.429C233.91 624.255 229.872 613.368 223.351 604.237C207.413 581.922 178.249 572.158 150.835 572.834C128.523 573.384 107.833 577.389 89.2884 588.393C83.2935 591.95 75.6659 591.005 70.686 586.128C68.5064 583.994 66.2867 581.909 63.7967 580.162C53.8111 573.161 40.4057 572.461 28.6829 575.821C22.8569 577.491 17.8946 579.749 13.193 582.516C5.1665 587.237 -5.12637 585.347 -11.1502 578.247C-14.6375 574.137 -17.8513 570.566 -18.6202 569.903C-48.1412 544.453 -85.7481 562.512 -107.309 588.918C-117.534 601.44 -124.259 615.193 -127.066 631.046C-127.733 634.815 -129.773 666.843 -133.318 667.624C-14.8981 641.598 113.731 639.298 234.92 635.429Z" fill="#1C4732"/>
</g>
<mask id="mask3_27_66" style="mask-type:luminance" maskUnits="userSpaceOnUse" x="0" y="0" width="1518" height="805">
<path d="M1512 804.255H0V0H1517.47L1512 804.255Z" fill="white"/>
</mask>
<g mask="url(#mask3_27_66)">
<path d="M-80.7457 830.196L425.906 827.225C425.906 827.225 470.505 814.719 481.213 804.255C495.291 790.496 514.725 774.845 539.987 755.439C593.335 714.456 662.01 681.245 662.01 681.245C658.859 680.288 655.669 679.338 652.442 678.401C455.162 621.004 120.231 599.087 -82.277 629.668L-80.7457 830.196Z" fill="#B7A018"/>
<path d="M358.984 731.729C379.938 733.968 404.437 736.323 425.393 738.562C462.813 742.561 500.506 746.614 536.48 757.666C528.849 761.434 481.575 802.132 458.453 826.863C457.739 826.863 282.723 828.471 282.723 828.471L266.236 731.961C266.236 731.961 358.987 732.122 358.984 731.729Z" fill="#B7A018"/>
<path d="M281.007 727.073C290.262 770.681 297.867 827.936 297.867 829.007" stroke="#937E02" stroke-width="1.60851" stroke-miterlimit="10"/>
<path d="M300.309 727.073C300.817 730.352 317.169 827.936 317.169 829.007" stroke="#937E02" stroke-width="1.60851" stroke-miterlimit="10"/>
<path d="M321.219 727.073C321.728 730.352 338.08 827.936 338.08 829.007" stroke="#937E02" stroke-width="1.60851" stroke-miterlimit="10"/>
<path d="M342.934 727.073C343.443 730.352 359.795 827.936 359.795 829.007" stroke="#937E02" stroke-width="1.60851" stroke-miterlimit="10" stroke-linecap="round" stroke-linejoin="round"/>
<path d="M366.23 734.642C366.739 737.922 381.511 827.936 381.511 829.009" stroke="#937E02" stroke-width="1.60851" stroke-miterlimit="10" stroke-linecap="round" stroke-linejoin="round"/>
<path d="M385.799 738.395C386.308 741.675 400.812 827.936 400.812 829.007" stroke="#937E02" stroke-width="1.60851" stroke-miterlimit="10" stroke-linecap="round" stroke-linejoin="round"/>
<path d="M408.319 741.612C408.827 744.892 422.26 825.79 422.26 826.863" stroke="#937E02" stroke-width="1.60851" stroke-miterlimit="10" stroke-linecap="round" stroke-linejoin="round"/>
<path d="M433.519 746.973C434.027 750.253 445.852 825.79 445.852 826.863" stroke="#937E02" stroke-width="1.60851" stroke-miterlimit="10" stroke-linecap="round" stroke-linejoin="round"/>
<path d="M455.636 746.973C456.027 749.5 463.134 794.902 466.378 816.116" stroke="#937E02" stroke-width="1.60851" stroke-miterlimit="10" stroke-linecap="round" stroke-linejoin="round"/>
<path d="M483.785 752.201C484.068 754.028 487.155 776.521 489.833 796.28" stroke="#937E02" stroke-width="1.60851" stroke-miterlimit="10" stroke-linecap="round" stroke-linejoin="round"/>
<path d="M509.923 756.624C509.981 757.001 511.139 764.731 512.651 774.847" stroke="#937E02" stroke-width="1.60851" stroke-miterlimit="10" stroke-linecap="round" stroke-linejoin="round"/>
<path d="M209.936 677.271C209.936 677.271 214.226 633.44 216.37 617.221C271.504 619.318 340.353 622.072 401.751 631.429C389.459 660.323 371.275 702.836 358.982 731.729C358.859 732.611 266.234 731.961 266.234 731.961L209.936 677.271Z" fill="#937E02"/>
<path d="M217.175 624.258C216.772 625.062 338.049 632.47 395.988 638.667" stroke="#776300" stroke-width="1.60851" stroke-miterlimit="10" stroke-linecap="round" stroke-linejoin="round"/>
<path d="M216.639 639.806C216.237 640.61 332.286 649.224 390.225 655.421" stroke="#776300" stroke-width="1.60851" stroke-miterlimit="10" stroke-linecap="round" stroke-linejoin="round"/>
<path d="M212.743 658.5C212.36 659.314 324.919 666.383 382.986 671.238" stroke="#776300" stroke-width="1.60851" stroke-miterlimit="10" stroke-linecap="round" stroke-linejoin="round"/>
<path d="M210.54 677.07C210.916 676.57 313.079 683.17 374.582 687.999" stroke="#776300" stroke-width="1.60851" stroke-miterlimit="10" stroke-linecap="round" stroke-linejoin="round"/>
<path d="M234.059 698.684C263.403 700.238 323.644 703.006 368.817 706.043" stroke="#776300" stroke-width="1.60851" stroke-miterlimit="10" stroke-linecap="round" stroke-linejoin="round"/>
<path d="M254.174 718.67C284.026 718.826 326.364 719.006 361.559 719.69" stroke="#776300" stroke-width="1.60851" stroke-miterlimit="10" stroke-linecap="round" stroke-linejoin="round"/>
<path d="M216.37 617.221L210.472 678.076L-81.0706 707.833C-82.2769 707.029 -82.6791 631.477 -82.2769 629.668C-70.2131 627.322 -54.7585 626.074 -40.187 624.459C34.0843 616.228 119.553 611.842 216.37 617.221Z" fill="#99850B"/>
<path d="M60.9513 617.525C61.1041 621.657 61.8923 626.673 62.288 630.789C64.26 651.333 66.2304 671.878 68.2025 692.422" stroke="#B7A018" stroke-width="1.60851" stroke-miterlimit="10" stroke-linecap="round" stroke-linejoin="round"/>
<path d="M36.748 618.775C36.9009 622.907 41.6331 675.234 43.6051 695.777" stroke="#B7A018" stroke-width="1.60851" stroke-miterlimit="10" stroke-linecap="round" stroke-linejoin="round"/>
<path d="M11.8901 621.501C12.0429 625.633 12.4386 629.751 12.8327 633.867C14.8048 654.411 16.7752 676.298 18.7472 696.842" stroke="#B7A018" stroke-width="1.60851" stroke-miterlimit="10" stroke-linecap="round" stroke-linejoin="round"/>
<path d="M85.0452 616.349L92.0808 689.651" stroke="#B7A018" stroke-width="1.60851" stroke-miterlimit="10" stroke-linecap="round" stroke-linejoin="round"/>
<path d="M113.008 616.349L119.31 686.342" stroke="#B7A018" stroke-width="1.60851" stroke-miterlimit="10" stroke-linecap="round" stroke-linejoin="round"/>
<path d="M133.519 615.813L139.937 684.241" stroke="#B7A018" stroke-width="1.60851" stroke-miterlimit="10" stroke-linecap="round" stroke-linejoin="round"/>
<path d="M154.174 615.813L160.005 681.159" stroke="#B7A018" stroke-width="1.60851" stroke-miterlimit="10" stroke-linecap="round" stroke-linejoin="round"/>
<path d="M176.375 617.002L181.252 679.462" stroke="#B7A018" stroke-width="1.60851" stroke-miterlimit="10" stroke-linecap="round" stroke-linejoin="round"/>
<path d="M197.421 617.002L201.09 677.271" stroke="#B7A018" stroke-width="1.60851" stroke-miterlimit="10" stroke-linecap="round" stroke-linejoin="round"/>
<path d="M80.5187 691.34C90.6153 741.096 91.4437 830.08 91.4437 830.08C91.4437 831.153 282.321 827.399 282.321 827.399C282.321 827.399 270.445 758.628 266.236 731.961C266.236 731.961 229.029 692.8 209.938 677.271C169.135 679.858 80.5187 691.34 80.5187 691.34Z" fill="#AA9011"/>
<path d="M86.0343 709.501L237.683 706.045" stroke="#937E02" stroke-width="1.60851" stroke-miterlimit="10" stroke-linecap="round" stroke-linejoin="round"/>
<path d="M88.5629 691.378L221.342 688.353" stroke="#937E02" stroke-width="1.60851" stroke-miterlimit="10" stroke-linecap="round" stroke-linejoin="round"/>
<path d="M88.5629 730.352L256.181 724.753" stroke="#937E02" stroke-width="1.60851" stroke-miterlimit="10" stroke-linecap="round" stroke-linejoin="round"/>
<path d="M88.5629 752.871L266.234 748.046" stroke="#937E02" stroke-width="1.60851" stroke-miterlimit="10" stroke-linecap="round" stroke-linejoin="round"/>
<path d="M92.4153 775.391L270.087 770.565" stroke="#937E02" stroke-width="1.60851" stroke-miterlimit="10" stroke-linecap="round" stroke-linejoin="round"/>
<path d="M92.4153 798.888L270.087 794.062" stroke="#937E02" stroke-width="1.60851" stroke-miterlimit="10" stroke-linecap="round" stroke-linejoin="round"/>
<path d="M59.119 692.525C61.9902 738.966 65.6303 785.359 70.036 831.679" stroke="#99850B" stroke-width="1.60851" stroke-miterlimit="10"/>
<path d="M32.3036 692.525C35.1748 738.966 38.8148 785.359 43.2189 831.679" stroke="#99850B" stroke-width="1.60851" stroke-miterlimit="10"/>
<path d="M9.86169 692.525C12.7329 738.966 16.3729 785.359 20.7787 831.679" stroke="#99850B" stroke-width="1.60851" stroke-miterlimit="10"/>
<path d="M357.384 732.497L401.701 631.353C401.701 631.353 421.518 633.433 446.388 636.79C473.872 640.499 507.352 645.653 523.194 648.72C524.41 648.955 525.721 649.205 527.117 649.465C542.612 652.365 568.684 656.852 593.031 662.526C630.155 671.179 664.743 682.279 664.743 682.279L536.479 757.667L357.384 732.497Z" fill="#AA9011"/>
<path d="M374.675 735.849C387.587 708.25 403.789 666.141 420.753 634.546" stroke="#B7A018" stroke-width="2.41277" stroke-miterlimit="10" stroke-linecap="round" stroke-linejoin="round"/>
<path d="M394.379 736.251C407.291 708.652 422.287 668.854 439.25 637.26" stroke="#B7A018" stroke-width="2.41277" stroke-miterlimit="10" stroke-linecap="round" stroke-linejoin="round"/>
<path d="M411 744.293C423.912 716.695 441.79 671.267 458.752 639.673" stroke="#B7A018" stroke-width="2.41277" stroke-miterlimit="10" stroke-linecap="round" stroke-linejoin="round"/>
<path d="M435.128 744.293C448.039 716.695 464.007 674.685 480.97 643.091" stroke="#B7A018" stroke-width="2.41277" stroke-miterlimit="10" stroke-linecap="round" stroke-linejoin="round"/>
<path d="M460.06 748.046C472.971 720.447 488.336 678.505 505.299 646.911" stroke="#B7A018" stroke-width="2.41277" stroke-miterlimit="10" stroke-linecap="round" stroke-linejoin="round"/>
<path d="M481.239 751.799C494.035 724.448 510.358 682.155 527.16 650.648" stroke="#B7A018" stroke-width="2.41277" stroke-miterlimit="10" stroke-linecap="round" stroke-linejoin="round"/>
<path d="M508.584 756.624C521.323 729.394 537.559 687.354 554.283 655.89" stroke="#B7A018" stroke-width="2.41277" stroke-miterlimit="10" stroke-linecap="round" stroke-linejoin="round"/>
<path d="M536.464 756.624C548.645 730.587 564.024 691.008 579.969 660.083" stroke="#B7A018" stroke-width="2.41277" stroke-miterlimit="10" stroke-linecap="round" stroke-linejoin="round"/>
<path d="M572.263 734.052C581.541 712.615 591.978 687.587 602.754 665.915" stroke="#B7A018" stroke-width="2.41277" stroke-miterlimit="10" stroke-linecap="round" stroke-linejoin="round"/>
<path d="M611.004 711.324C616.54 698.509 622.35 685.311 628.289 672.921" stroke="#B7A018" stroke-width="2.41277" stroke-miterlimit="10" stroke-linecap="round" stroke-linejoin="round"/>
</g>
<path d="M903.176 471.747C929.629 471.747 951.074 450.303 951.074 423.849C951.074 397.396 929.629 375.951 903.176 375.951C876.722 375.951 855.277 397.396 855.277 423.849C855.277 450.303 876.722 471.747 903.176 471.747Z" fill="#EF920F"/>
<path d="M244.729 545.864L241.56 618.439L253.857 618.981C254.154 616.571 254.029 545.864 254.029 545.864" fill="#CA5B17"/>
<path d="M292.939 558.903C292.939 558.903 313.233 545.493 305.26 528.098C299.72 516.012 287.364 512.375 277.944 513.422C276.238 506.856 268.295 488.353 246.895 486.742C233.739 485.751 219.861 491.398 211.651 501.608C204.043 511.069 206.686 526.285 206.686 526.285C200.15 535.935 198.801 555.308 204.955 564.454C213.832 577.647 231.677 583.799 246.839 579.123C246.839 579.123 258.872 589.104 276.268 582.432C290.714 576.891 292.939 558.903 292.939 558.903Z" fill="#1C4732"/>
<path d="M247.809 504.633C247.809 506.123 246.601 507.331 245.11 507.331C243.619 507.331 242.411 506.123 242.411 504.633C242.411 503.142 243.619 501.934 245.11 501.934C246.601 501.934 247.809 503.144 247.809 504.633Z" fill="#EF920F"/>
<path d="M228.19 523.664C226.863 524.341 225.237 523.815 224.559 522.486C223.882 521.159 224.41 519.533 225.737 518.856C227.064 518.179 228.69 518.706 229.367 520.033C230.044 521.362 229.517 522.986 228.19 523.664Z" fill="#EF920F"/>
<path d="M247.809 532.792C249.299 532.792 250.508 531.583 250.508 530.093C250.508 528.602 249.299 527.394 247.809 527.394C246.318 527.394 245.11 528.602 245.11 530.093C245.11 531.583 246.318 532.792 247.809 532.792Z" fill="#EF920F"/>
<path d="M314.338 547.231L311.052 622.495L323.46 623.118C323.758 620.708 323.639 547.231 323.639 547.231" fill="#CA5B17"/>
<path d="M273.037 558.903C273.037 558.903 252.742 545.493 260.714 528.098C266.254 516.012 278.61 512.375 288.03 513.422C289.736 506.856 297.679 488.353 319.079 486.742C332.235 485.751 346.113 491.398 354.323 501.608C361.931 511.069 359.288 526.285 359.288 526.285C365.824 535.935 370.604 553.353 363.179 565.626C352.323 583.571 334.295 583.799 319.133 579.123C319.133 579.123 307.1 589.104 289.704 582.432C275.261 576.891 273.037 558.903 273.037 558.903Z" fill="#34684E"/>
<path d="M305.77 521.26C305.77 522.751 304.562 523.959 303.071 523.959C301.581 523.959 300.373 522.751 300.373 521.26C300.373 519.771 301.581 518.563 303.071 518.563C304.562 518.563 305.77 519.771 305.77 521.26Z" fill="#EF920F"/>
<path d="M286.5 540.53C286.5 542.02 285.292 543.228 283.801 543.228C282.311 543.228 281.103 542.02 281.103 540.53C281.103 539.039 282.311 537.831 283.801 537.831C285.292 537.831 286.5 539.039 286.5 540.53Z" fill="#EF920F"/>
<path d="M337.464 523.959C338.955 523.959 340.163 522.751 340.163 521.26C340.163 519.77 338.955 518.561 337.464 518.561C335.973 518.561 334.765 519.77 334.765 521.26C334.765 522.751 335.973 523.959 337.464 523.959Z" fill="#EF920F"/>
<path d="M320.837 501.934C320.837 503.425 319.629 504.633 318.138 504.633C316.648 504.633 315.438 503.425 315.438 501.934C315.438 500.445 316.646 499.237 318.138 499.237C319.629 499.237 320.837 500.445 320.837 501.934Z" fill="#EF920F"/>
<path d="M320.837 543.393C320.837 544.883 319.629 546.093 318.138 546.093C316.648 546.093 315.438 544.885 315.438 543.393C315.438 541.904 316.646 540.694 318.138 540.694C319.629 540.696 320.837 541.904 320.837 543.393Z" fill="#EF920F"/>
<path d="M1218.76 415.004C1210.5 408.809 1205.76 402.174 1200.35 391.203C1195.81 382.012 1199.91 370.487 1209.92 365.77C1215.45 379.531 1219.32 391.487 1228.62 400.944C1231.1 403.468 1231.73 403.997 1231.73 403.997" fill="#28523E"/>
<path d="M1204.34 416.39L1229.88 391.282L1254.9 406.416L1299.21 341.648L1308.21 362.772L1316.54 399.171L1277.47 451.998C1269.18 463.203 1253.22 465.225 1242.4 456.439L1204.34 416.39Z" fill="#FFC05C"/>
<path d="M1212.47 423.793C1220.84 415.094 1230.07 406.117 1237.84 396.884" stroke="#E58800" stroke-width="1.30289" stroke-miterlimit="10" stroke-linecap="round" stroke-linejoin="round"/>
<path d="M1210.4 411.531L1217.69 418.428" stroke="#E58800" stroke-width="1.30289" stroke-miterlimit="10" stroke-linecap="round" stroke-linejoin="round"/>
<path d="M1216.36 406.192C1218.89 408.584 1220.77 410.267 1223.43 412.515" stroke="#E58800" stroke-width="1.30289" stroke-miterlimit="10" stroke-linecap="round" stroke-linejoin="round"/>
<path d="M1222.25 399.898C1224.7 401.891 1227.15 403.884 1229.6 405.875" stroke="#E58800" stroke-width="1.30289" stroke-miterlimit="10" stroke-linecap="round" stroke-linejoin="round"/>
<path d="M1227.55 395.46L1233.97 400.336" stroke="#E58800" stroke-width="1.30289" stroke-miterlimit="10" stroke-linecap="round" stroke-linejoin="round"/>
<path d="M1426.32 344.533V450.79C1426.32 458.142 1420.36 464.104 1413.01 464.104H1310.82C1303.46 464.104 1297.49 458.122 1297.51 450.756L1297.79 342.124C1312.46 336.483 1334.33 331.387 1349 325.746C1348.74 325.746 1371.41 326.518 1371.41 326.518C1371.41 326.518 1407.78 334.779 1426.32 344.533Z" fill="#FFC05C"/>
<path d="M1379.19 328.895C1379.19 337.33 1371 344.17 1360.89 344.17C1350.78 344.17 1342.58 337.332 1342.58 328.895" stroke="#E58800" stroke-width="1.30289" stroke-miterlimit="10" stroke-linecap="round" stroke-linejoin="round"/>
<path d="M1361.01 335.789V343.703" stroke="#E58800" stroke-width="1.30289" stroke-miterlimit="10" stroke-linecap="round" stroke-linejoin="round"/>
<path d="M1367 334.43C1369 336.314 1371.08 338.104 1373.24 339.795" stroke="#E58800" stroke-width="1.30289" stroke-miterlimit="10" stroke-linecap="round" stroke-linejoin="round"/>
<path d="M1371.72 330.234C1373.68 331.567 1375.76 332.733 1377.92 333.713" stroke="#E58800" stroke-width="1.30289" stroke-miterlimit="10" stroke-linecap="round" stroke-linejoin="round"/>
<path d="M1352.48 332.408C1350.48 334.292 1348.39 336.082 1346.23 337.773" stroke="#E58800" stroke-width="1.30289" stroke-miterlimit="10" stroke-linecap="round" stroke-linejoin="round"/>
<path d="M1349.78 328.717L1343.1 332.286" stroke="#E58800" stroke-width="1.30289" stroke-miterlimit="10" stroke-linecap="round" stroke-linejoin="round"/>
<path d="M1352.66 341.874L1356.05 335.265" stroke="#E58800" stroke-width="1.30289" stroke-miterlimit="10" stroke-linecap="round" stroke-linejoin="round"/>
<path d="M1224.78 375.237C1214.96 364.308 1204.43 340.676 1200.31 330.893C1199.28 328.453 1200.03 325.659 1202.09 323.988C1202.94 323.296 1203.74 322.595 1204.57 321.9C1206.86 319.979 1210.23 320.113 1212.4 322.167C1225.37 334.432 1238.3 346.069 1252.55 356.974" fill="#EF920F"/>
<path d="M1201.81 332.378C1205.05 329.976 1209.56 326.626 1212.8 324.226" stroke="#D37300" stroke-width="1.42643" stroke-miterlimit="10" stroke-linecap="round"/>
<path d="M1204.34 338.284C1207.58 335.883 1213.66 330.719 1216.89 328.318" stroke="#D37300" stroke-width="1.42643" stroke-miterlimit="10" stroke-linecap="round"/>
<path d="M1207.37 344.477C1210.6 342.075 1219.37 334.778 1222.61 332.378" stroke="#D37300" stroke-width="1.42643" stroke-miterlimit="10" stroke-linecap="round"/>
<path d="M1210.26 350.887C1213.5 348.485 1224.37 339.518 1227.61 337.116" stroke="#D37300" stroke-width="1.42643" stroke-miterlimit="10" stroke-linecap="round"/>
<path d="M1213.67 358.403C1216.91 356.002 1230.03 344.49 1233.26 342.09" stroke="#D37300" stroke-width="1.42643" stroke-miterlimit="10" stroke-linecap="round"/>
<path d="M1205.95 321.945C1206.71 322.738 1239.28 355.164 1239.28 355.164" stroke="#D37300" stroke-width="1.42643" stroke-miterlimit="10" stroke-linecap="round"/>
<path d="M1201.81 325.09L1225.62 360.662" stroke="#D37300" stroke-width="1.42643" stroke-miterlimit="10" stroke-linecap="round"/>
<path d="M1238.06 366.472C1232.22 352.991 1229.73 327.239 1228.93 316.655C1228.73 314.013 1230.33 311.602 1232.81 310.671C1233.83 310.285 1234.82 309.875 1235.82 309.479C1238.6 308.385 1241.76 309.582 1243.17 312.218C1251.57 327.964 1260.14 343.105 1270.18 357.964" fill="#EF920F"/>
<path d="M1229.88 318.538C1233.71 317.288 1239.06 315.545 1242.89 314.293" stroke="#D37300" stroke-width="1.42643" stroke-miterlimit="10" stroke-linecap="round"/>
<path d="M1230.41 324.942C1234.24 323.692 1241.64 320.726 1245.47 319.476" stroke="#D37300" stroke-width="1.42643" stroke-miterlimit="10" stroke-linecap="round"/>
<path d="M1231.31 331.775C1235.14 330.525 1245.77 326.388 1249.6 325.138" stroke="#D37300" stroke-width="1.42643" stroke-miterlimit="10" stroke-linecap="round"/>
<path d="M1232.02 338.773C1235.85 337.523 1249.01 332.469 1252.84 331.22" stroke="#D37300" stroke-width="1.42643" stroke-miterlimit="10" stroke-linecap="round"/>
<path d="M1232.87 346.981C1236.7 345.732 1252.8 338.981 1256.63 337.731" stroke="#D37300" stroke-width="1.42643" stroke-miterlimit="10" stroke-linecap="round"/>
<path d="M1237.12 309.958C1237.59 310.951 1258.19 352.04 1258.19 352.04" stroke="#D37300" stroke-width="1.42643" stroke-miterlimit="10" stroke-linecap="round"/>
<path d="M1232.2 311.628L1243.48 352.915" stroke="#D37300" stroke-width="1.42643" stroke-miterlimit="10" stroke-linecap="round"/>
<path d="M1254.9 351.649C1255.7 336.976 1265.01 312.839 1269.03 303.014C1270.03 300.563 1272.54 299.122 1275.18 299.4C1276.27 299.514 1277.33 299.588 1278.41 299.685C1281.39 299.952 1283.67 302.434 1283.75 305.421C1284.21 323.261 1285.1 340.639 1287.43 358.423" fill="#EF920F"/>
<path d="M1269.04 305.126C1273.03 305.723 1278.59 306.556 1282.57 307.155" stroke="#D37300" stroke-width="1.42643" stroke-miterlimit="10" stroke-linecap="round"/>
<path d="M1266.64 311.086C1270.63 311.683 1278.58 312.347 1282.56 312.944" stroke="#D37300" stroke-width="1.42643" stroke-miterlimit="10" stroke-linecap="round"/>
<path d="M1264.39 317.6C1268.37 318.197 1279.73 319.259 1283.72 319.856" stroke="#D37300" stroke-width="1.42643" stroke-miterlimit="10" stroke-linecap="round"/>
<path d="M1261.89 324.176C1265.88 324.773 1279.9 326.146 1283.89 326.743" stroke="#D37300" stroke-width="1.42643" stroke-miterlimit="10" stroke-linecap="round"/>
<path d="M1258.97 331.895C1262.96 332.492 1280.38 333.665 1284.36 334.261" stroke="#D37300" stroke-width="1.42643" stroke-miterlimit="10" stroke-linecap="round"/>
<path d="M1279.35 300.693C1279.33 301.79 1279.35 347.755 1279.35 347.755" stroke="#D37300" stroke-width="1.42643" stroke-miterlimit="10" stroke-linecap="round"/>
<path d="M1274.2 299.984L1265.81 341.953" stroke="#D37300" stroke-width="1.42643" stroke-miterlimit="10" stroke-linecap="round"/>
<path d="M1287.81 346.703C1282.94 332.839 1282.3 306.976 1282.26 296.36C1282.24 293.712 1284.01 291.42 1286.55 290.668C1287.6 290.355 1288.61 290.018 1289.64 289.694C1292.5 288.802 1295.56 290.22 1296.77 292.95C1304.03 309.254 1311.5 324.969 1320.46 340.507" fill="#EF920F"/>
<path d="M1283.07 298.308C1286.98 297.335 1292.44 295.976 1296.35 295.003" stroke="#D37300" stroke-width="1.42643" stroke-miterlimit="10" stroke-linecap="round"/>
<path d="M1283.14 304.732C1287.05 303.759 1294.64 301.329 1298.55 300.354" stroke="#D37300" stroke-width="1.42643" stroke-miterlimit="10" stroke-linecap="round"/>
<path d="M1283.55 311.613C1287.46 310.64 1298.36 307.272 1302.27 306.297" stroke="#D37300" stroke-width="1.42643" stroke-miterlimit="10" stroke-linecap="round"/>
<path d="M1283.76 318.643C1287.67 317.67 1301.15 313.568 1305.06 312.593" stroke="#D37300" stroke-width="1.42643" stroke-miterlimit="10" stroke-linecap="round"/>
<path d="M1284.02 326.893C1287.93 325.92 1304.47 320.333 1308.38 319.36" stroke="#D37300" stroke-width="1.42643" stroke-miterlimit="10" stroke-linecap="round"/>
<path d="M1290.9 290.265C1291.3 291.288 1308.91 333.742 1308.91 333.742" stroke="#D37300" stroke-width="1.42643" stroke-miterlimit="10" stroke-linecap="round"/>
<path d="M1285.87 291.581L1294.18 333.568" stroke="#D37300" stroke-width="1.42643" stroke-miterlimit="10" stroke-linecap="round"/>
<path d="M1205.95 355.878L1221.26 393.987L1337.65 345.934L1325.37 310.163C1323.77 310.161 1205.95 355.878 1205.95 355.878Z" fill="#CA5B17"/>
<path d="M1211.42 367.763L1328.38 321.347" stroke="#AA3D00" stroke-width="1.42643" stroke-miterlimit="10" stroke-linecap="round" stroke-linejoin="round"/>
<path d="M1217.12 382.028L1333.01 335.075" stroke="#AA3D00" stroke-width="1.42643" stroke-miterlimit="10" stroke-linecap="round" stroke-linejoin="round"/>
<path d="M1247.43 354.511L1252.54 366.813" stroke="#AA3D00" stroke-width="1.42643" stroke-miterlimit="10" stroke-linecap="round" stroke-linejoin="round"/>
<path d="M1277.56 328.479L1282.14 339.356" stroke="#AA3D00" stroke-width="1.42643" stroke-miterlimit="10" stroke-linecap="round" stroke-linejoin="round"/>
<path d="M1282.24 327.388C1285.74 335.173 1288.82 343.145 1291.47 351.258" stroke="#AA3D00" stroke-width="1.42643" stroke-miterlimit="10" stroke-linecap="round" stroke-linejoin="round"/>
<path d="M1243.03 356.641C1245.75 364.624 1248.77 372.504 1252.08 380.26" stroke="#AA3D00" stroke-width="1.42643" stroke-miterlimit="10" stroke-linecap="round" stroke-linejoin="round"/>
<path d="M1343.72 374.296L1331.67 351.162C1330.4 348.77 1328.74 346.579 1326.62 344.886C1316.96 337.142 1308.77 345.77 1308.29 354.001C1307.95 359.772 1310.44 365.299 1313.01 370.48C1314.51 373.509 1316.08 376.584 1317.18 379.771C1319.64 386.89 1325.57 390.043 1333.02 388.92C1333.42 388.859 1332.63 389.017 1333.02 388.92C1336.25 388.117 1343.72 374.296 1343.72 374.296Z" fill="#28523E"/>
<path d="M1372.87 303.339H1349.09V323.783H1372.87V303.339Z" fill="#EA7468"/>
<path d="M1369.37 332.254C1374.01 327.613 1374.01 320.089 1369.37 315.448C1364.72 310.807 1357.2 310.807 1352.56 315.448C1347.92 320.089 1347.92 327.613 1352.56 332.254C1357.2 336.894 1364.72 336.894 1369.37 332.254Z" fill="#EA7468"/>
<path d="M1360.94 318.792C1349.47 318.792 1340.08 309.405 1340.08 297.932V288.303C1340.08 287.513 1340.13 286.735 1340.21 285.967C1341.38 275.583 1350.26 267.442 1360.94 267.442C1371.7 267.442 1380.62 275.692 1381.7 286.178C1381.77 286.878 1381.81 287.586 1381.81 288.303V297.932C1381.81 309.405 1372.42 318.792 1360.94 318.792Z" fill="#EF8B7B"/>
<path d="M1355.44 293.219C1355.44 293.725 1355.03 294.135 1354.53 294.135C1354.02 294.135 1353.61 293.725 1353.61 293.219C1353.61 292.712 1354.02 292.302 1354.53 292.302C1355.03 292.302 1355.44 292.712 1355.44 293.219Z" fill="#5C1A25"/>
<path d="M1368.79 293.219C1368.79 293.725 1368.38 294.135 1367.87 294.135C1367.37 294.135 1366.96 293.725 1366.96 293.219C1366.96 292.712 1367.37 292.302 1367.87 292.302C1368.38 292.302 1368.79 292.712 1368.79 293.219Z" fill="#5C1A25"/>
<path d="M1360.78 292.702C1360.53 293.32 1360.29 293.938 1360.05 294.555C1359.72 295.39 1359.39 296.239 1359.32 297.134C1359.25 298.028 1359.48 298.99 1360.14 299.603C1360.59 300.023 1361.18 300.241 1361.76 300.447" stroke="#D64B3C" stroke-width="1.22263" stroke-miterlimit="10" stroke-linecap="round"/>
<path d="M1348.8 299.537C1350.27 299.537 1351.47 298.339 1351.47 296.862C1351.47 295.385 1350.27 294.187 1348.8 294.187C1347.32 294.187 1346.12 295.385 1346.12 296.862C1346.12 298.339 1347.32 299.537 1348.8 299.537Z" fill="#D64B3C"/>
<path d="M1372.79 299.537C1374.27 299.537 1375.46 298.339 1375.46 296.862C1375.46 295.385 1374.27 294.187 1372.79 294.187C1371.31 294.187 1370.11 295.385 1370.11 296.862C1370.11 298.339 1371.31 299.537 1372.79 299.537Z" fill="#D64B3C"/>
<path d="M1367.31 301.557C1366.8 305.004 1363.75 306.489 1361.59 306.722C1359.43 306.955 1356.92 305.257 1355.27 302.091C1358.93 303.252 1363.45 303.606 1367.31 301.557Z" fill="#FFF6EB"/>
<path d="M1387.23 294.135C1387.23 296.836 1385.04 299.025 1382.34 299.025C1379.64 299.025 1377.45 296.836 1377.45 294.135C1377.45 291.435 1379.64 289.246 1382.34 289.246C1385.04 289.246 1387.23 291.435 1387.23 294.135Z" fill="#EF8B7B"/>
<path d="M1381.4 291.781C1382.46 291.026 1383.89 291.451 1384.63 292.743" stroke="#D64B3C" stroke-width="1.03958" stroke-miterlimit="10" stroke-linecap="round"/>
<path d="M1344.03 294.135C1344.03 296.836 1341.84 299.025 1339.14 299.025C1336.44 299.025 1334.25 296.836 1334.25 294.135C1334.25 291.435 1336.44 289.246 1339.14 289.246C1341.84 289.246 1344.03 291.435 1344.03 294.135Z" fill="#EF8B7B"/>
<path d="M1339.7 291.781C1338.64 291.026 1337.21 291.451 1336.46 292.743" stroke="#D64B3C" stroke-width="1.03958" stroke-miterlimit="10" stroke-linecap="round"/>
<path d="M1381.77 285.023L1381.84 288.184C1377.62 290.576 1370.86 289.809 1365.77 289.611C1358.93 289.344 1352.24 285.554 1351.65 285.199" fill="#5C1A25"/>
<path d="M1381.85 288.133L1381.91 295.707C1381.05 295.34 1380.44 294.586 1379.85 293.859C1378.96 292.746 1377.79 289.947 1378.04 288.541" fill="#5C1A25"/>
<path d="M1339.67 289.321C1339.63 289.321 1340.16 289.313 1340.12 289.313C1345.56 291.214 1351.08 288.757 1355.58 286.019C1356.04 285.737 1356.64 285.684 1356.89 285.207C1356.65 285.207 1339.63 284.938 1339.63 284.938C1339.63 285.017 1339.67 284.875 1339.67 284.954L1339.67 289.321Z" fill="#5C1A25"/>
<path d="M1339.67 288.133L1339.61 295.707C1340.47 295.34 1341.09 294.586 1341.67 293.859C1342.56 292.746 1343.73 289.947 1343.49 288.541" fill="#5C1A25"/>
<path d="M1339.7 285.967C1340.9 275.583 1349.95 267.442 1360.86 267.442C1371.83 267.442 1380.94 275.692 1382.03 286.178" fill="#5C1A25"/>
<path d="M1412.64 283.775C1412.64 286.183 1389.93 288.134 1361.91 288.134C1333.9 288.134 1311.19 286.183 1311.19 283.775C1311.19 283.498 1311.19 281.772 1311.19 281.772C1311.19 281.772 1337.11 279.416 1361.91 279.416C1387.25 279.416 1412.64 281.916 1412.64 281.916C1412.64 281.916 1412.64 283.543 1412.64 283.775Z" fill="#380E12"/>
<path d="M1361.92 286.275C1389.93 286.275 1412.64 284.323 1412.64 281.916C1412.64 279.508 1389.93 277.557 1361.92 277.557C1333.9 277.557 1311.19 279.508 1311.19 281.916C1311.19 284.323 1333.9 286.275 1361.92 286.275Z" fill="#CA5B17"/>
<path d="M1383.88 283.616H1337.28V268.563C1337.28 262.829 1341.95 257.672 1347.66 258.179C1351.34 258.504 1358.61 260.138 1362.29 260.062C1367.22 259.961 1368.73 258.353 1373.5 258.179C1379.23 257.968 1383.88 262.827 1383.88 268.563L1383.88 283.616Z" fill="#CA5B17"/>
<path d="M1383.94 276.128H1337.22V283.616H1383.94V276.128Z" fill="#5C1A25"/>
<path d="M1337.82 270.304H1381.15" stroke="#AA3D00" stroke-width="1.42643" stroke-miterlimit="10" stroke-linecap="round" stroke-linejoin="round"/>
<path d="M1344 262.697H1371.12" stroke="#AA3D00" stroke-width="1.42643" stroke-miterlimit="10" stroke-linecap="round" stroke-linejoin="round"/>
<path d="M1328.14 398.668C1346.23 413.168 1413.44 454.377 1424.95 452.847C1445.21 450.155 1456.12 456.544 1465.54 438.406C1471.27 427.355 1473.83 401.647 1447.04 364.414C1435.95 349.007 1421.16 339.257 1402.46 336.024C1400.01 335.6 1396.21 336.951 1397.41 339.132C1392.21 355.86 1390.42 368.928 1396.02 385.526C1402.27 389.194 1409.09 391.766 1414.42 396.673C1414.42 396.673 1351.97 370.335 1346.68 369.666L1328.14 398.668Z" fill="#FFC05C"/>
<path d="M1346.44 370.847C1368.8 378.425 1395.11 387.345 1417.47 394.925" stroke="#E58800" stroke-width="1.30289" stroke-miterlimit="10" stroke-linecap="round" stroke-linejoin="round"/>
<path d="M1423.07 452.849C1392.37 441.66 1353.39 419.408 1328.14 398.669C1330.51 395.768 1344.63 372.919 1346.44 370.848" stroke="#E58800" stroke-width="1.30289" stroke-miterlimit="10" stroke-linecap="round" stroke-linejoin="round"/>
<path d="M1337.51 405.565C1337.51 405.565 1351.07 385.528 1355.98 374.39" stroke="#E58800" stroke-width="1.30289" stroke-miterlimit="10" stroke-linecap="round" stroke-linejoin="round"/>
<path d="M1332.51 392.969C1335.54 394.907 1338.56 396.847 1341.58 398.785" stroke="#E58800" stroke-width="1.30289" stroke-miterlimit="10" stroke-linecap="round" stroke-linejoin="round"/>
<path d="M1337.05 385.151L1347.03 390.699" stroke="#E58800" stroke-width="1.30289" stroke-miterlimit="10" stroke-linecap="round" stroke-linejoin="round"/>
<path d="M1340.32 380.128L1349.94 385.832" stroke="#E58800" stroke-width="1.30289" stroke-miterlimit="10" stroke-linecap="round" stroke-linejoin="round"/>
<path d="M1343.72 374.981L1353.46 379.526" stroke="#E58800" stroke-width="1.30289" stroke-miterlimit="10" stroke-linecap="round" stroke-linejoin="round"/>
<path d="M1413.18 341.136C1412.45 351.902 1413.35 362.777 1415.83 373.277" stroke="#E58800" stroke-width="1.30289" stroke-miterlimit="10" stroke-linecap="round" stroke-linejoin="round"/>
<path d="M1418.32 392.058C1420.27 394.223 1422.21 396.387 1424.15 398.552" stroke="#E58800" stroke-width="1.30289" stroke-miterlimit="10" stroke-linecap="round" stroke-linejoin="round"/>
<path d="M1420.14 392.126C1424.6 393.955 1428.84 396.305 1432.75 399.115" stroke="#E58800" stroke-width="1.30289" stroke-miterlimit="10" stroke-linecap="round" stroke-linejoin="round"/>
<path d="M1416.1 504.339H1309.48L1307.46 462.974H1418.72L1416.1 504.339Z" fill="#28523E"/>
<path d="M1361.9 485.022L1355.01 596.304L1344.78 761.44H1312.45C1312.45 761.44 1309.79 666.963 1307.64 595.781C1306.92 571.79 1304.1 552.591 1303.61 538.402C1302.54 507.305 1305.2 462.95 1305.2 462.95H1311.26" fill="#28523E"/>
<path d="M1418.72 462.974L1418.89 491.757C1418.89 491.757 1419.72 519.66 1419.43 534.651C1418.82 565.776 1415.27 597.25 1415.27 597.25L1414.52 617.742L1410.63 761.443H1378.3C1378.3 761.443 1370.11 660.413 1371.44 621.781C1371.63 616.381 1371.67 601.845 1371.44 596.447C1371.13 589.119 1361.19 485.025 1361.19 485.025" fill="#28523E"/>
<path d="M1308.65 470.462H1417.47" stroke="#193326" stroke-width="1.42643" stroke-miterlimit="10" stroke-linecap="round" stroke-linejoin="round"/>
<path d="M1361.19 470.462V503.39" stroke="#193326" stroke-width="1.42643" stroke-miterlimit="10" stroke-linecap="round" stroke-linejoin="round"/>
<path d="M1361.9 496.256C1365.32 496.256 1368.07 493.449 1368 490.031C1367.85 482.433 1367.6 470.581 1367.6 470.581" stroke="#193326" stroke-width="1.42643" stroke-miterlimit="10" stroke-linecap="round" stroke-linejoin="round"/>
<path d="M1395.15 470.475C1399.1 479.108 1408.04 485.231 1417.52 485.788" stroke="#193326" stroke-width="1.42643" stroke-miterlimit="10" stroke-linecap="round" stroke-linejoin="round"/>
<path d="M1330.99 470.475C1327.04 479.108 1318.1 485.231 1308.62 485.788" stroke="#193326" stroke-width="1.42643" stroke-miterlimit="10" stroke-linecap="round" stroke-linejoin="round"/>
<path d="M1398.03 656.84C1403.81 656.84 1408.49 647.474 1408.49 635.92C1408.49 624.366 1403.81 615 1398.03 615C1392.26 615 1387.57 624.366 1387.57 635.92C1387.57 647.474 1392.26 656.84 1398.03 656.84Z" fill="#183A29"/>
<path d="M1326.24 656.84C1332.02 656.84 1336.7 647.474 1336.7 635.92C1336.7 624.366 1332.02 615 1326.24 615C1320.46 615 1315.78 624.366 1315.78 635.92C1315.78 647.474 1320.46 656.84 1326.24 656.84Z" fill="#183A29"/>
<path d="M1314.12 463.568C1314.12 463.806 1314.12 464.044 1314.12 464.281V470.065" stroke="#193326" stroke-width="1.42643" stroke-miterlimit="10" stroke-linecap="round" stroke-linejoin="round"/>
<path d="M1318.04 463.568C1318.04 463.806 1318.04 464.044 1318.04 464.281V470.065" stroke="#193326" stroke-width="1.42643" stroke-miterlimit="10" stroke-linecap="round" stroke-linejoin="round"/>
<path d="M1330.52 463.568C1330.52 463.806 1330.52 464.044 1330.52 464.281V470.065" stroke="#193326" stroke-width="1.42643" stroke-miterlimit="10" stroke-linecap="round" stroke-linejoin="round"/>
<path d="M1334.44 463.568C1334.44 463.806 1334.44 464.044 1334.44 464.281V470.065" stroke="#193326" stroke-width="1.42643" stroke-miterlimit="10" stroke-linecap="round" stroke-linejoin="round"/>
<path d="M1349.77 463.568C1349.77 463.806 1349.77 464.044 1349.77 464.281V470.065" stroke="#193326" stroke-width="1.42643" stroke-miterlimit="10" stroke-linecap="round" stroke-linejoin="round"/>
<path d="M1353.7 463.568C1353.7 463.806 1353.7 464.044 1353.7 464.281V470.065" stroke="#193326" stroke-width="1.42643" stroke-miterlimit="10" stroke-linecap="round" stroke-linejoin="round"/>
<path d="M1375.45 463.568C1375.45 463.806 1375.45 464.044 1375.45 464.281V470.065" stroke="#193326" stroke-width="1.42643" stroke-miterlimit="10" stroke-linecap="round" stroke-linejoin="round"/>
<path d="M1379.37 463.568C1379.37 463.806 1379.37 464.044 1379.37 464.281V470.065" stroke="#193326" stroke-width="1.42643" stroke-miterlimit="10" stroke-linecap="round" stroke-linejoin="round"/>
<path d="M1391.85 463.568C1391.85 463.806 1391.85 464.044 1391.85 464.281V470.065" stroke="#193326" stroke-width="1.42643" stroke-miterlimit="10" stroke-linecap="round" stroke-linejoin="round"/>
<path d="M1395.78 463.568C1395.78 463.806 1395.78 464.044 1395.78 464.281V470.065" stroke="#193326" stroke-width="1.42643" stroke-miterlimit="10" stroke-linecap="round" stroke-linejoin="round"/>
<path d="M1411.11 463.568C1411.11 463.806 1411.11 464.044 1411.11 464.281V470.065" stroke="#193326" stroke-width="1.42643" stroke-miterlimit="10" stroke-linecap="round" stroke-linejoin="round"/>
<path d="M1415.03 463.568C1415.03 463.806 1415.03 464.044 1415.03 464.281V470.065" stroke="#193326" stroke-width="1.42643" stroke-miterlimit="10" stroke-linecap="round" stroke-linejoin="round"/>
<path d="M1363.98 468.202C1364.93 468.202 1365.7 467.431 1365.7 466.479C1365.7 465.528 1364.93 464.757 1363.98 464.757C1363.03 464.757 1362.26 465.528 1362.26 466.479C1362.26 467.431 1363.03 468.202 1363.98 468.202Z" stroke="#193326" stroke-width="1.42643" stroke-miterlimit="10" stroke-linecap="round" stroke-linejoin="round"/>
<path d="M1357.23 504.625H1366.62" stroke="#193326" stroke-width="1.42643" stroke-miterlimit="10" stroke-linecap="round" stroke-linejoin="round"/>
<path d="M1376.04 771.902C1374.71 726.568 1370.77 681.32 1369.44 635.986C1387.11 638.08 1401.2 638.991 1418.95 637.821C1417.56 659.192 1412.72 722.173 1411.83 751.242C1411.59 759.127 1415.49 766.562 1422.13 770.811C1427.64 774.331 1433.46 777.881 1435.53 780.934C1439.82 787.247 1438.92 797.575 1438.92 797.575C1429.23 801.613 1400.33 791.535 1376.04 771.902Z" fill="#271B13"/>
<path d="M1345.87 771.902C1347.2 726.567 1351.14 681.32 1352.47 635.986C1334.8 638.08 1320.71 638.991 1302.95 637.821C1304.34 659.192 1309.19 722.173 1310.08 751.242C1310.32 759.127 1306.42 766.562 1299.77 770.811C1294.27 774.331 1288.44 777.881 1286.37 780.934C1282.09 787.247 1282.98 797.575 1282.98 797.575C1292.67 801.613 1321.57 791.535 1345.87 771.902Z" fill="#271B13"/>
<path d="M1346.93 342.275C1351.12 346.274 1357.29 348.086 1362.97 346.988" stroke="#E58800" stroke-width="1.30289" stroke-miterlimit="10" stroke-linecap="round" stroke-linejoin="round"/>
<mask id="mask4_27_66" style="mask-type:luminance" maskUnits="userSpaceOnUse" x="0" y="0" width="1512" height="805">
<path d="M1512 0H0V804.255H1512V0Z" fill="white"/>
</mask>
<g mask="url(#mask4_27_66)">
<path d="M919.458 795.764C918.374 779.866 926.849 750.153 934.869 735.677C936.565 732.617 938.265 729.55 940.367 726.669C946.685 718.015 956.325 711.431 965.779 705.025C968.632 723.983 962.888 744.887 950.205 760.855C940.629 772.909 927.197 782.84 919.458 795.764Z" fill="#D8C850"/>
<path d="M922.465 791.074C929.73 775.968 935.817 759.576 943.576 744.718C950.446 731.56 957.701 718.604 965.323 705.869" stroke="#937E02" stroke-width="1.60851" stroke-miterlimit="10" stroke-linecap="round" stroke-linejoin="round"/>
<path d="M916.769 760.911C910.869 744.076 904.967 727.243 899.067 710.408C897.235 705.181 895.397 699.932 894.329 694.495C891.842 681.835 893.621 668.624 891.105 655.968C888.265 641.669 880.169 629.053 872.233 616.822C875.623 627.588 877.182 640.409 879.474 651.46C880.43 656.065 881.292 660.789 880.64 665.447C879.328 674.843 872.036 682.864 871.93 692.35C871.853 699.139 875.491 705.346 879.012 711.152C891.678 732.03 904.345 752.91 917.01 773.789" fill="#D8C850"/>
<path d="M872.384 617.47C879.178 632.539 886.096 648.151 886.304 664.678C886.418 673.812 884.461 682.908 884.972 692.026C885.5 701.449 888.641 710.518 892.115 719.292C899.001 736.68 907.321 753.499 916.96 769.523" stroke="#937E02" stroke-width="1.60851" stroke-miterlimit="10" stroke-linecap="round" stroke-linejoin="round"/>
<path d="M921.548 790.747C928.149 783.382 934.921 775.878 943.567 771.072C945.193 770.168 947.115 769.347 948.86 769.991C957.855 773.303 968.027 773.697 975.787 779.327C978.655 781.408 981.447 784.006 982.303 787.445C982.721 789.127 982.049 789.813 981.491 791.453C980.932 793.094 979.922 794.538 978.878 795.922C977.476 797.783 975.991 799.581 974.508 801.379C971.071 805.544 970.882 805.772 967.445 809.937C967.445 809.937 965.761 800.549 965.303 793.774C965.055 790.129 964.479 786.338 962.348 783.37C954.344 782.315 945.73 783.356 938.048 785.838C936.084 786.472 934.131 787.231 932.46 788.444C930.924 789.558 929.191 790.905 927.959 792.349C925.466 795.275 922.669 798.114 921.196 801.666" fill="#D8C850"/>
<path d="M942.15 771.894C935.87 775.696 927.086 783.168 921.282 790.766C921.282 790.766 920.969 800.469 921.282 802.735C921.662 802.013 924.889 796.901 925.355 796.232C929.364 790.475 934.992 786.404 941.812 784.759C949.542 782.893 956.382 782.965 962.349 783.37C957.868 779.722 950.479 775.045 945.187 772.727C944.213 772.301 942.269 771.821 942.15 771.894Z" fill="#364715"/>
<path d="M967.379 809.094C969.461 804.995 971.563 800.844 972.576 796.359C973.59 791.875 973.416 786.949 971.127 782.964C968.24 777.934 962.597 775.235 957.181 773.161C953.659 771.812 950.084 770.599 946.469 769.523" stroke="#937E02" stroke-width="1.60851" stroke-miterlimit="10" stroke-linecap="round" stroke-linejoin="round"/>
<path d="M918.841 809.847C914.253 804.439 909.664 799.029 905.077 793.621C901.593 789.515 897.99 785.31 893.228 782.793C888.712 780.404 883.503 779.727 878.407 779.356C875.789 779.164 873.016 779.076 870.698 780.309C868.036 781.728 866.503 784.628 865.607 787.509C864.254 791.859 864.002 796.546 864.881 801.014C860.133 795.503 856.829 787.149 858.613 780.097C860.397 773.045 865.776 767.004 872.573 764.414C878.739 762.066 894.44 762.145 894.456 762.735C898.443 765.794 903.666 768.302 905.849 772.83C907.076 775.373 915.189 792.542 917.705 797.107C917.705 797.107 918.245 804.614 918.841 809.847Z" fill="#D8C850"/>
<path d="M918.08 800.943C914.255 795.117 910.073 789.526 905.564 784.212C901.57 779.504 897.203 774.923 891.7 772.124C886.198 769.325 879.326 768.567 873.916 771.54C869.857 773.771 866.035 776.282 863.821 780.351C861.048 785.452 861.767 796.116 864.883 801.014" stroke="#937E02" stroke-width="1.60851" stroke-miterlimit="10" stroke-linecap="round" stroke-linejoin="round"/>
<path d="M918.318 700.263C919.484 765.978 919.7 833.858 918.845 890.471" stroke="#364715" stroke-width="4.82553" stroke-miterlimit="10"/>
<path d="M919.223 715.271C918.995 711.583 916.915 708.314 915.138 705.075C906.265 688.904 903.902 669.803 905.253 651.407C906.605 633.012 911.459 615.077 916.29 597.275C919.645 606.17 923.829 618.527 927.184 627.424C931.152 637.94 927.765 650.043 927.942 661.119C928.249 680.193 928.583 698.327 919.223 715.271Z" fill="#364715"/>
<path d="M717.206 632.153C718.372 697.867 718.588 833.858 717.733 890.473" stroke="#364715" stroke-width="4.82553" stroke-miterlimit="10"/>
<path d="M716.223 635.841C703.664 628.004 691.989 608.445 687.252 594.42C683.989 584.758 680.279 575.247 676.137 565.927C674.685 562.66 673.109 559.318 670.434 556.945C667.525 554.367 663.662 553.23 660.055 551.784C653.116 548.999 646.739 544.824 641.413 539.575C646.75 562.033 672.419 577.145 677.685 599.621C678.706 603.981 678.809 608.508 679.67 612.902C680.826 618.802 683.332 624.366 686.339 629.574C693.307 641.64 704.619 652.367 716.221 660.085" fill="#364715"/>
<path d="M718.253 806.355C725.435 799.436 735.165 790.117 743.585 784.773C748.66 781.553 756.194 777.29 761.737 779.613C763.362 784.191 766.201 791.97 767.824 796.547C765.184 796.448 762.522 796.385 759.855 796.33C752.871 796.184 746.14 798.914 741.248 803.902C734.01 811.285 724.96 819.646 720.394 826.155L718.253 806.355Z" fill="#364715"/>
<path d="M761.737 779.613C767.298 781.572 773.206 785.209 777.867 788.819C779.786 790.303 781.636 791.95 782.892 794.025C784.982 797.479 785.204 801.706 785.37 805.738C785.469 808.159 785.556 810.659 784.681 812.919C783.951 814.802 782.608 816.371 781.403 817.992C777.626 823.069 775.024 829.012 773.854 835.231C769.017 826.985 768.109 816.673 769.375 807.199C769.605 805.479 769.902 803.742 769.693 802.02C769.477 800.241 768.731 798.574 767.994 796.942C765.525 791.463 763.021 784.908 761.737 779.613Z" fill="#D8C850"/>
<path d="M719.784 658.672C713.3 637.456 705.115 618.59 698.632 597.374C693.923 581.961 689.176 566.344 688.492 550.241C687.86 535.33 690.733 520.527 692.465 505.703C694.983 484.171 695.097 462.44 695.208 440.763C722.787 510.638 730.108 584.266 719.784 658.672Z" fill="#937E02"/>
<path d="M743.396 684.775C748.427 679.195 749.746 678.941 756.563 675.782C763.38 672.623 771.567 671.77 778.379 674.941C783.584 677.365 787.511 681.837 791.109 686.311C802.293 700.22 811.901 715.397 819.691 731.456C789.356 727.174 760.637 710.095 743.396 684.775Z" fill="#D8C850"/>
<path d="M743.84 685.422C756.444 678.923 768.061 683.797 776.864 690.579C785.667 697.362 792.497 706.312 800.018 714.494C805.658 720.631 811.954 726.505 819.25 730.373" stroke="#937E02" stroke-width="1.60851" stroke-miterlimit="10" stroke-linecap="round" stroke-linejoin="round"/>
<path d="M695.206 681.175C701.894 694.561 705.052 709.691 704.28 724.634C703.995 730.156 703.184 735.649 703.13 741.178C702.969 757.868 712.641 775.93 719.21 791.275V793.734C698.46 776.221 690.945 747.396 689.97 720.261C689.806 715.696 688.619 709.472 685.51 706.125C686.604 698.608 688.473 691.121 692.649 684.775C693.471 683.524 693.955 682.443 695.206 681.175Z" fill="#364715"/>
<path d="M689.473 761.261C683.94 734.988 682.616 705.662 695.206 681.175C686.617 678.981 676.363 678.076 665.856 679.62C668.942 699.545 669.108 719.27 677.566 737.573C681.606 746.314 685.755 755.487 689.473 761.261Z" fill="#D8C850"/>
<path d="M680.53 678.848C676.083 706.297 678.651 737.633 689.128 763.391" stroke="#937E02" stroke-width="1.60851" stroke-miterlimit="10" stroke-linecap="round" stroke-linejoin="round"/>
<path d="M754.844 666.816C759.185 655.758 760.124 653.58 760.343 642.909C760.399 640.144 760.385 637.298 759.363 634.728C758.342 632.158 754.906 628.719 752.148 628.501C749.579 628.299 747.144 629.902 745.607 631.973C744.071 634.043 733.767 652.761 731.995 660.162C732.456 662.106 732.448 663.799 732.91 665.743C733.309 667.424 733.709 669.11 734.295 670.736C734.843 672.258 735.553 673.717 736.294 675.155C738.236 678.917 739.896 682.391 743.393 684.777C745.587 683.794 754.205 668.444 754.844 666.816Z" fill="#EF920F"/>
<path d="M736.804 662.124L752.968 629.664" stroke="#D37300" stroke-width="1.60851" stroke-miterlimit="10" stroke-linecap="round"/>
<path d="M739.08 674.054L758.157 634.853" stroke="#D37300" stroke-width="1.60851" stroke-miterlimit="10" stroke-linecap="round"/>
<path d="M744.758 635.037C749.724 638.514 754.502 642.259 759.069 646.248" stroke="#D37300" stroke-width="1.60851" stroke-miterlimit="10" stroke-linecap="round"/>
<path d="M740.085 643.235C744.248 645.812 748.242 648.661 752.037 651.754C754.129 653.461 756.161 655.24 758.191 657.019" stroke="#D37300" stroke-width="1.60851" stroke-miterlimit="10" stroke-linecap="round"/>
<path d="M737.047 651.318C738.298 652.356 739.551 653.391 740.803 654.429C745.467 658.293 750.137 662.159 754.512 666.346" stroke="#D37300" stroke-width="1.60851" stroke-miterlimit="10" stroke-linecap="round"/>
<path d="M736.262 661.822C741.303 666.158 745.11 669.435 750.151 673.771" stroke="#D37300" stroke-width="1.60851" stroke-miterlimit="10" stroke-linecap="round"/>
<path d="M743.396 684.775C736.399 673.689 733.796 659.913 736.267 647.038C737.356 641.358 739.379 635.906 740.859 630.314C742.799 622.984 743.804 615.407 743.841 607.823C740.298 621.635 735.282 634.91 730.518 648.351C728.147 655.039 725.475 661.632 723.585 668.473C718.636 686.395 716.223 711.322 719.21 727.135" fill="#364715"/>
<path d="M1073.04 582.886C1065.62 571.914 1066.97 556.349 1066.98 542.774C1066.99 532.972 1068.07 523.208 1069.15 513.466C1073.17 477.229 1077.18 440.993 1081.2 404.756C1091.49 421.756 1103.17 439.675 1104.03 459.531C1104.82 477.813 1097.24 495.283 1093.57 513.211C1088.5 537.971 1089.39 563.613 1073.04 582.886Z" fill="#364715"/>
<path d="M1069.27 574.908C1056.12 564.671 1049.95 550.051 1045.91 533.879C1043.35 523.675 1041.12 513.393 1039.19 503.052C1036.13 486.57 1033.88 469.949 1031.62 453.336C1029.95 440.973 1028.27 428.612 1026.59 416.249C1041.61 438.197 1057.01 459.059 1060.86 485.371C1062.17 494.312 1062.09 503.39 1062.69 512.406C1064.16 534.7 1063.73 553.267 1069.27 574.908Z" fill="#937E02"/>
<path d="M1071.26 643.736C1071.12 631.899 1070.45 617.763 1071.71 604.987C1071.76 604.47 1071.47 604.063 1071.16 604.483C1066.33 590.891 1058.71 578.297 1048.92 567.698C1048.15 566.867 1047.35 566.03 1046.34 565.515C1045.64 565.155 1044.58 565.139 1043.46 565.298C1040.7 565.689 1038.49 567.75 1037.63 570.405C1035.78 576.17 1035.54 582.451 1036.35 588.487C1037.33 595.913 1039.81 603.055 1042.44 610.066C1045.25 617.515 1052.72 621.535 1058.25 627.255C1062.96 632.127 1068.13 638.231 1071.26 643.736Z" fill="#EF920F"/>
<path d="M1036.66 580.733C1042.43 579.559 1053.34 574.492 1053.34 574.492" stroke="#D37300" stroke-width="1.60851" stroke-miterlimit="10" stroke-linecap="round"/>
<path d="M1037.38 591.528C1037.38 591.528 1040.39 590.449 1042.19 589.672C1047.85 587.232 1053.51 584.792 1059.17 582.352" stroke="#D37300" stroke-width="1.60851" stroke-miterlimit="10" stroke-linecap="round"/>
<path d="M1040.11 602.143L1064.63 590.832" stroke="#D37300" stroke-width="1.60851" stroke-miterlimit="10" stroke-linecap="round"/>
<path d="M1043.32 611.39C1051.57 608.712 1061.42 604.749 1069.22 600.967" stroke="#D37300" stroke-width="1.60851" stroke-miterlimit="10" stroke-linecap="round"/>
<path d="M1050.43 619.018C1056.02 616.539 1068.67 611.853 1068.67 611.853" stroke="#D37300" stroke-width="1.60851" stroke-miterlimit="10" stroke-linecap="round"/>
<path d="M1058.89 625.625L1069.84 621.107" stroke="#D37300" stroke-width="1.60851" stroke-miterlimit="10" stroke-linecap="round"/>
<path d="M1045 568.295L1069.22 628.212" stroke="#D37300" stroke-width="1.60851" stroke-miterlimit="10" stroke-linecap="round"/>
<path d="M1037.93 573.523L1060.04 628.212" stroke="#D37300" stroke-width="1.60851" stroke-miterlimit="10" stroke-linecap="round"/>
<path d="M1074 656.966C1075.62 634.496 1093.58 610.629 1099.94 602.83C1101.22 601.25 1103.38 600.685 1105.27 601.435L1109 602.91C1111.18 603.771 1112.38 606.101 1111.82 608.371C1109.83 616.336 1105.27 634.072 1102.49 640.528C1096.99 640.879 1091.88 642.296 1086.81 644.448C1084.56 645.402 1082.29 646.607 1080.94 648.635C1080.22 649.71 1079.8 650.951 1079.39 652.179C1078.79 653.996 1078.18 655.814 1077.58 657.633C1077.46 657.981 1077.32 658.359 1077 658.542C1076.79 658.667 1076.52 658.679 1076.27 658.661C1075.17 658.582 1074.63 657.878 1074 656.966Z" fill="#EF920F"/>
<path d="M1103.64 602.744L1082.32 640.544" stroke="#D37300" stroke-width="1.60851" stroke-miterlimit="10" stroke-linecap="round"/>
<path d="M1109.31 604.622L1093.84 637.461" stroke="#D37300" stroke-width="1.65194" stroke-miterlimit="10" stroke-linecap="round"/>
<path d="M1098.41 606.473C1103.1 608.334 1105.64 609.338 1110.34 611.199" stroke="#D37300" stroke-width="1.65194" stroke-miterlimit="10" stroke-linecap="round"/>
<path d="M1093.84 612.391C1098.53 614.252 1103.15 616.082 1107.85 617.943" stroke="#D37300" stroke-width="1.65194" stroke-miterlimit="10" stroke-linecap="round"/>
<path d="M1089.32 618.757C1094.84 621.041 1106.44 625.598 1106.44 625.598" stroke="#D37300" stroke-width="1.65194" stroke-miterlimit="10" stroke-linecap="round"/>
<path d="M1085.87 624.527C1091.39 626.811 1104.37 632.151 1104.37 632.151" stroke="#D37300" stroke-width="1.65194" stroke-miterlimit="10" stroke-linecap="round"/>
<path d="M1083.07 631.215C1088.59 633.499 1102.32 638.366 1102.32 638.366" stroke="#D37300" stroke-width="1.65194" stroke-miterlimit="10" stroke-linecap="round"/>
<path d="M1077.28 719.435C1081.47 702.282 1087.89 684.259 1095.5 668.327L1080.48 643.226C1077.87 650.503 1076.49 657.575 1075.47 665.24" fill="#364715"/>
<path d="M1082.66 643.218C1088.26 642.027 1094.58 638.855 1100.29 639.291C1106 639.727 1111.78 641.809 1115.65 646.037C1123.69 654.841 1120.8 668.692 1123.55 680.292C1124.88 685.887 1127.63 691.22 1127.73 696.969C1127.86 704.354 1123.64 711.026 1119.58 717.193C1120.37 706.437 1112.71 695.216 1106.64 686.3C1099.04 675.134 1092 663.589 1085.54 651.724C1084.22 649.29 1082.11 645.632 1080.48 643.393" fill="#D8C850"/>
<path d="M1095.15 641.072C1099.96 646.472 1103.93 652.61 1106.9 659.202C1109.25 664.42 1110.96 669.898 1112.67 675.362C1114.68 681.827 1116.7 688.291 1118.72 694.758C1120.81 701.447 1121.1 710.352 1119.57 717.193" stroke="#937E02" stroke-width="1.60851" stroke-miterlimit="10" stroke-linecap="round" stroke-linejoin="round"/>
<path d="M1019.57 614.44C1023.58 615.732 1027.32 617.845 1030.5 620.61C1034.57 624.163 1037.66 628.706 1041.44 632.574C1046.43 637.688 1052.66 641.59 1059.44 643.853C1063.01 645.043 1069.12 643.554 1072.26 645.614C1063.85 629.061 1046.32 614.001 1030.43 604.406L1019.57 614.44Z" fill="#364715"/>
<path d="M1030.43 604.408C1027.03 607.95 1023.45 611.319 1019.71 614.499C1017.54 616.343 1015.31 618.127 1013.32 620.15C1009.36 624.159 1006.39 629.011 1003.45 633.818C998.306 642.23 993.103 650.783 990.473 660.286C989.122 651.421 986.881 642.04 987.24 633.081C987.801 619.019 1001.17 610.652 1011.38 600.969C1017.85 600.967 1024.06 603.224 1030.43 604.408Z" fill="#D8C850"/>
<path d="M990.524 661.455C990.159 665.409 991.502 650.619 992.462 643.025C993.064 638.264 993.735 633.481 995.165 628.9C996.871 623.435 999.704 618.324 1003.43 613.98C1007.7 609.006 1013.05 605.104 1018.35 601.25" stroke="#937E02" stroke-width="1.60851" stroke-miterlimit="10" stroke-linecap="round" stroke-linejoin="round"/>
<path d="M1051.99 675.06C1047.01 676.195 1043.47 685.544 1039.38 689.178C1036.94 691.344 1034.25 693.218 1031.77 695.351C1025.44 700.815 1020.6 707.991 1017.9 715.91C1016.21 714.367 1012.71 708.779 1011.84 704.747C1011.11 701.34 1010.83 697.79 1011.51 694.373C1012.04 691.716 1013.15 689.204 1014.46 686.833C1017.32 681.666 1021.21 677.074 1025.83 673.401C1034.41 673.68 1043.42 674.782 1051.99 675.06Z" fill="#D8C850"/>
<path d="M1051.99 675.06C1054.77 677.339 1056.8 681.288 1058.52 684.444C1059.98 687.122 1060.99 690.019 1061.9 692.93C1065.47 704.314 1067.87 716.704 1075.97 725.467C1069.16 721.052 1063.79 717.346 1058.52 711.182C1055.2 707.312 1052.41 702.803 1048.17 699.969C1040.24 694.655 1035.21 694.655 1031.56 695.44C1036.6 692.166 1041.94 686.017 1046.07 679.633C1048.02 676.601 1049.74 675.663 1051.99 675.06Z" fill="#364715"/>
<path d="M1017.91 715.77C1015.91 706.85 1018.11 697.08 1023.74 689.884C1025.53 687.595 1027.64 685.573 1029.6 683.432C1032.34 680.45 1034.82 677.23 1037.01 673.82" stroke="#937E02" stroke-width="1.60851" stroke-miterlimit="10" stroke-linecap="round" stroke-linejoin="round"/>
<path d="M1098.68 737.962C1091.46 742.998 1087.09 750.293 1083.27 758.229C1079.45 766.167 1077.06 774.704 1074.81 783.222C1073.61 787.797 1076.77 793.49 1076.71 798.219C1080.46 790.586 1084.77 782.413 1088.93 774.996C1094.27 765.466 1112.2 746.318 1120.31 738.998L1108.42 739.904L1098.68 737.962Z" fill="#364715"/>
<path d="M1098.68 737.962C1104.93 744.787 1109.32 753.076 1114.83 760.504C1120.35 767.932 1133.41 780.041 1140.08 783.166C1140.52 769.216 1130.85 746.1 1120.51 736.724C1112.84 737.69 1106.33 739.091 1098.68 737.962Z" fill="#D8C850"/>
<path d="M1110.81 737.999C1122.34 752.955 1135.05 764.967 1140.08 783.165" stroke="#937E02" stroke-width="1.60851" stroke-miterlimit="10" stroke-linecap="round" stroke-linejoin="round"/>
<path d="M1071.26 573.523C1075.3 668.531 1076.88 795.389 1075.45 890.473" stroke="#364715" stroke-width="4.82553" stroke-miterlimit="10"/>
</g>
<mask id="mask5_27_66" style="mask-type:luminance" maskUnits="userSpaceOnUse" x="0" y="0" width="1512" height="805">
<path d="M1512 0H0V804.255H1512V0Z" fill="white"/>
</mask>
<g mask="url(#mask5_27_66)">
<path d="M1273.85 826.454C1335.63 697.704 1463.94 631.49 1578.56 682.11C1628.97 704.37 1684.71 758.934 1694.75 828.6L1273.85 826.454Z" fill="#183A29"/>
<path d="M1140.84 823.882C1183.48 735.017 1272.05 689.314 1351.16 724.253C1385.95 739.617 1424.42 777.279 1431.36 825.364L1140.84 823.882Z" fill="#183A29"/>
<path d="M1217.91 738.3L1258.94 824.484" stroke="#28523E" stroke-width="1.60851" stroke-miterlimit="10" stroke-linecap="round" stroke-linejoin="round"/>
<path d="M1242.57 724.586L1265.14 824.584" stroke="#28523E" stroke-width="1.60851" stroke-miterlimit="10" stroke-linecap="round" stroke-linejoin="round"/>
<path d="M1297.34 715.404C1297.34 721.385 1304.37 826.832 1304.37 826.832" stroke="#28523E" stroke-width="1.60851" stroke-miterlimit="10" stroke-linecap="round" stroke-linejoin="round"/>
<path d="M1167 784.863C1166.35 784.955 1167.34 784.083 1167.88 784.471C1184.22 796.195 1208.63 812.586 1224.97 824.312" stroke="#28523E" stroke-width="1.60851" stroke-miterlimit="10" stroke-linecap="round" stroke-linejoin="round"/>
<path d="M1351.05 724.018C1374.76 759.325 1398.47 794.633 1422.18 829.94" stroke="#28523E" stroke-width="1.60851" stroke-miterlimit="10" stroke-linecap="round" stroke-linejoin="round"/>
<path d="M1410.16 688.457C1414.05 732.738 1421.51 786.283 1429.88 829.94" stroke="#28523E" stroke-width="1.60851" stroke-miterlimit="10" stroke-linecap="round" stroke-linejoin="round"/>
<path d="M1341.4 722.255C1336.4 765.13 1331.41 808.003 1326.41 850.876" stroke="#28523E" stroke-width="1.60851" stroke-miterlimit="10" stroke-linecap="round" stroke-linejoin="round"/>
<path d="M1462.4 667.77C1478.18 722.903 1493.96 778.036 1509.74 833.171" stroke="#28523E" stroke-width="1.60851" stroke-miterlimit="10" stroke-linecap="round" stroke-linejoin="round"/>
<path d="M1447.42 671.76L1494.4 828.6" stroke="#28523E" stroke-width="1.60851" stroke-miterlimit="10" stroke-linecap="round" stroke-linejoin="round"/>
<path d="M1379.67 703.768C1380.18 709.774 1380.69 715.782 1381.2 721.79C1382.06 731.948 1382.93 742.106 1383.79 752.263C1384.39 759.215 1384.98 766.166 1385.65 773.11" stroke="#28523E" stroke-width="1.60851" stroke-miterlimit="10" stroke-linecap="round" stroke-linejoin="round"/>
<path d="M1493.92 666.071C1499.32 694.976 1516 761.696 1516.7 760.915" stroke="#28523E" stroke-width="1.60851" stroke-miterlimit="10" stroke-linecap="round" stroke-linejoin="round"/>
<path d="M1273.76 716.773C1281.85 734.703 1290.37 752.439 1299.32 769.957" stroke="#28523E" stroke-width="1.60851" stroke-miterlimit="10" stroke-linecap="round" stroke-linejoin="round"/>
<path d="M-131.668 867.447C-56.6887 717.031 99.0392 639.674 238.153 698.813C299.331 724.819 366.975 788.564 379.165 869.953L-131.668 867.447Z" fill="#183A29"/>
<path d="M-46.1721 762.252L15.0446 872.528" stroke="#28523E" stroke-width="1.60851" stroke-miterlimit="10" stroke-linecap="round" stroke-linejoin="round"/>
<path d="M27.0101 706.839C28.9822 714.488 69.7273 872.529 69.7273 872.529" stroke="#28523E" stroke-width="1.60851" stroke-miterlimit="10" stroke-linecap="round" stroke-linejoin="round"/>
<path d="M85.3412 686.712C88.1191 750.307 88.452 811.463 86.3658 875.086" stroke="#28523E" stroke-width="1.60851" stroke-miterlimit="10" stroke-linecap="round" stroke-linejoin="round"/>
<path d="M56.3895 695.277C65.2122 719.746 75.5662 743.663 87.3711 766.841" stroke="#28523E" stroke-width="1.60851" stroke-miterlimit="10" stroke-linecap="round" stroke-linejoin="round"/>
<path d="M125.517 680.754L114.032 868.652" stroke="#28523E" stroke-width="1.60851" stroke-miterlimit="10" stroke-linecap="round" stroke-linejoin="round"/>
<path d="M171.525 684.291C159.024 745.072 148.45 806.25 139.825 867.701" stroke="#28523E" stroke-width="1.60851" stroke-miterlimit="10" stroke-linecap="round" stroke-linejoin="round"/>
<path d="M156.582 762.252L225.886 695.002" stroke="#28523E" stroke-width="1.60851" stroke-miterlimit="10" stroke-linecap="round" stroke-linejoin="round"/>
<path d="M254.217 709.418C241.122 744.636 228.026 779.853 214.931 815.071C207.025 836.332 201.986 847.074 196.385 869.056" stroke="#28523E" stroke-width="1.60851" stroke-miterlimit="10" stroke-linecap="round" stroke-linejoin="round"/>
<path d="M235.954 872.529C232.967 878.367 283.667 779.243 302.789 741.856" stroke="#28523E" stroke-width="1.60851" stroke-miterlimit="10" stroke-linecap="round" stroke-linejoin="round"/>
<path d="M238.956 875.084L325.479 762.252" stroke="#28523E" stroke-width="1.60851" stroke-miterlimit="10" stroke-linecap="round" stroke-linejoin="round"/>
<path d="M303.758 869.849L352.946 800.968" stroke="#28523E" stroke-width="1.60851" stroke-miterlimit="10" stroke-linecap="round" stroke-linejoin="round"/>
<path d="M348.817 843.167C391.459 754.301 480.023 708.597 559.138 743.537C593.93 758.902 632.401 796.563 639.333 844.648L348.817 843.167Z" fill="#183A29"/>
<path d="M487.191 733.521L494.075 842.432" stroke="#28523E" stroke-width="1.60851" stroke-miterlimit="10" stroke-linecap="round" stroke-linejoin="round"/>
<path d="M465.357 738.218C477.248 771.316 488.881 812.714 495.968 847.162" stroke="#28523E" stroke-width="1.60851" stroke-miterlimit="10" stroke-linecap="round" stroke-linejoin="round"/>
<path d="M411.195 768.839C430.957 798.112 450.718 827.386 470.48 856.657" stroke="#28523E" stroke-width="1.60851" stroke-miterlimit="10" stroke-linecap="round" stroke-linejoin="round"/>
<path d="M431.102 752.542C444.15 792.653 457.34 833.091 478.304 869.693" stroke="#28523E" stroke-width="1.60851" stroke-miterlimit="10" stroke-linecap="round" stroke-linejoin="round"/>
<path d="M391.005 783.966L449.851 849.947" stroke="#28523E" stroke-width="1.60851" stroke-miterlimit="10" stroke-linecap="round" stroke-linejoin="round"/>
<path d="M524.397 733.6C521.008 773.372 516.359 813.038 510.461 852.517" stroke="#28523E" stroke-width="1.60851" stroke-miterlimit="10" stroke-linecap="round" stroke-linejoin="round"/>
<path d="M553.527 741.205L516.398 887.066" stroke="#28523E" stroke-width="1.60851" stroke-miterlimit="10" stroke-linecap="round" stroke-linejoin="round"/>
<path d="M534.22 846.255C566.736 819.396 575.644 811.494 606.191 782.415" stroke="#28523E" stroke-width="1.60851" stroke-miterlimit="10" stroke-linecap="round" stroke-linejoin="round"/>
<path d="M552.84 847.264C582.525 826.927 590.349 821.788 620.798 802.615" stroke="#28523E" stroke-width="1.60851" stroke-miterlimit="10" stroke-linecap="round" stroke-linejoin="round"/>
</g>
<path d="M1220.78 601.94L1221.17 608.871" stroke="#364715" stroke-width="1.60851" stroke-miterlimit="10" stroke-linecap="round" stroke-linejoin="round"/>
<path d="M1225.08 608.506L1225.87 604.285" stroke="#364715" stroke-width="1.60851" stroke-miterlimit="10" stroke-linecap="round" stroke-linejoin="round"/>
<path d="M1215.04 604.477C1215.67 606.232 1216.31 607.988 1216.94 609.743" stroke="#364715" stroke-width="1.60851" stroke-miterlimit="10" stroke-linecap="round" stroke-linejoin="round"/>
<path d="M1274.5 661.186C1274.51 662.668 1274.68 664.148 1275.01 665.592" stroke="#364715" stroke-width="1.60851" stroke-miterlimit="10" stroke-linecap="round" stroke-linejoin="round"/>
<path d="M1278.95 660.382C1278.95 662.393 1278.95 664.403 1278.95 666.414" stroke="#364715" stroke-width="1.60851" stroke-miterlimit="10" stroke-linecap="round" stroke-linejoin="round"/>
<path d="M1161.13 647.514C1161.13 649.658 1161.13 651.804 1161.13 653.948" stroke="#364715" stroke-width="1.60851" stroke-miterlimit="10" stroke-linecap="round" stroke-linejoin="round"/>
<path d="M1167.52 649.113C1167.14 650.725 1166.75 652.338 1166.36 653.95" stroke="#364715" stroke-width="1.60851" stroke-miterlimit="10" stroke-linecap="round" stroke-linejoin="round"/>
<path d="M1155.45 650.745C1155.84 652.09 1156.22 653.433 1156.61 654.778" stroke="#364715" stroke-width="1.60851" stroke-miterlimit="10" stroke-linecap="round" stroke-linejoin="round"/>
<path d="M1171.18 713.061C1171.18 715.34 1171.18 717.618 1171.18 719.897" stroke="#364715" stroke-width="1.60851" stroke-miterlimit="10" stroke-linecap="round" stroke-linejoin="round"/>
<path d="M1175.53 720.281C1175.94 718.541 1176.35 716.801 1176.76 715.06" stroke="#364715" stroke-width="1.60851" stroke-miterlimit="10" stroke-linecap="round" stroke-linejoin="round"/>
<path d="M1165.06 714.687C1165.44 716.434 1165.82 718.182 1166.2 719.929" stroke="#364715" stroke-width="1.60851" stroke-miterlimit="10" stroke-linecap="round" stroke-linejoin="round"/>
<path d="M1461.29 600.575C1462.35 602.196 1463.08 604.046 1463.39 605.961" stroke="#364715" stroke-width="1.60851" stroke-miterlimit="10" stroke-linecap="round" stroke-linejoin="round"/>
<path d="M1467 596.32C1467.22 599.712 1467.44 603.106 1467.66 606.499" stroke="#364715" stroke-width="1.60851" stroke-miterlimit="10" stroke-linecap="round" stroke-linejoin="round"/>
<path d="M1471.44 601.672C1471.44 603.102 1471.44 604.532 1471.44 605.962" stroke="#364715" stroke-width="1.60851" stroke-miterlimit="10" stroke-linecap="round" stroke-linejoin="round"/>
<path d="M1486.36 625.275C1486.58 627.055 1486.81 628.836 1487.04 630.618" stroke="#364715" stroke-width="1.60851" stroke-miterlimit="10" stroke-linecap="round" stroke-linejoin="round"/>
<path d="M1490.64 620.444C1490.87 623.48 1491.1 626.513 1491.33 629.549" stroke="#364715" stroke-width="1.60851" stroke-miterlimit="10" stroke-linecap="round" stroke-linejoin="round"/>
<path d="M1441.98 651.529C1442.33 653.319 1442.67 655.108 1443.01 656.898" stroke="#364715" stroke-width="1.60851" stroke-miterlimit="10" stroke-linecap="round" stroke-linejoin="round"/>
<path d="M1447.17 646.181C1447.37 649.933 1447.56 653.686 1447.75 657.439" stroke="#364715" stroke-width="1.60851" stroke-miterlimit="10" stroke-linecap="round" stroke-linejoin="round"/>
<path d="M1452.67 651.535C1452.67 653.322 1452.67 655.109 1452.67 656.896" stroke="#364715" stroke-width="1.60851" stroke-miterlimit="10" stroke-linecap="round" stroke-linejoin="round"/>
<path d="M1217.83 678.88C1217.83 677.272 1217.83 675.663 1217.83 674.055" stroke="#364715" stroke-width="1.60851" stroke-miterlimit="10" stroke-linecap="round" stroke-linejoin="round"/>
<path d="M1222.64 670.838C1222.54 672.991 1222.75 675.16 1223.27 677.251" stroke="#364715" stroke-width="1.60851" stroke-miterlimit="10" stroke-linecap="round" stroke-linejoin="round"/>
<path d="M1011.4 762.523C1011.4 764.667 1011.4 766.812 1011.4 768.957" stroke="#364715" stroke-width="1.60851" stroke-miterlimit="10" stroke-linecap="round" stroke-linejoin="round"/>
<path d="M1016.23 759.841C1016.23 762.88 1016.23 765.918 1016.23 768.957" stroke="#364715" stroke-width="1.60851" stroke-miterlimit="10" stroke-linecap="round" stroke-linejoin="round"/>
<path d="M1044.14 791.998C1044.71 793.414 1045.28 794.829 1045.85 796.246" stroke="#364715" stroke-width="1.60851" stroke-miterlimit="10" stroke-linecap="round" stroke-linejoin="round"/>
<path d="M1050.01 795.766C1050.01 792.727 1050.01 789.689 1050.01 786.65" stroke="#364715" stroke-width="1.60851" stroke-miterlimit="10" stroke-linecap="round" stroke-linejoin="round"/>
<path d="M1054.21 796.827C1054.44 794.868 1054.67 792.909 1054.91 790.948" stroke="#364715" stroke-width="1.60851" stroke-miterlimit="10" stroke-linecap="round" stroke-linejoin="round"/>
<path d="M953.496 678.88C953.372 680.725 953.714 682.599 954.478 684.283" stroke="#364715" stroke-width="1.60851" stroke-miterlimit="10" stroke-linecap="round" stroke-linejoin="round"/>
<path d="M960.32 675.137C960.537 678.172 960.754 681.208 960.971 684.243" stroke="#364715" stroke-width="1.60851" stroke-miterlimit="10" stroke-linecap="round" stroke-linejoin="round"/>
<path d="M965.843 683.704C965.631 681.729 965.801 679.713 966.345 677.802" stroke="#364715" stroke-width="1.60851" stroke-miterlimit="10" stroke-linecap="round" stroke-linejoin="round"/>
<path d="M1024.28 645.098C1024.84 647.006 1025.01 649.023 1024.79 650.998" stroke="#364715" stroke-width="1.60851" stroke-miterlimit="10" stroke-linecap="round" stroke-linejoin="round"/>
<path d="M1028.69 642.939C1029.05 645.621 1029.4 648.302 1029.75 650.984" stroke="#364715" stroke-width="1.60851" stroke-miterlimit="10" stroke-linecap="round" stroke-linejoin="round"/>
<path d="M1151.96 598.974C1152.43 601.133 1152.9 603.293 1153.37 605.451" stroke="#364715" stroke-width="1.60851" stroke-miterlimit="10" stroke-linecap="round" stroke-linejoin="round"/>
<path d="M1157.83 594.705C1157.58 597.929 1157.66 601.176 1158.05 604.385" stroke="#364715" stroke-width="1.60851" stroke-miterlimit="10" stroke-linecap="round" stroke-linejoin="round"/>
<path d="M827.495 666.012V659.555" stroke="#364715" stroke-width="1.60851" stroke-miterlimit="10" stroke-linecap="round" stroke-linejoin="round"/>
<path d="M833.929 666.548V659.042" stroke="#364715" stroke-width="1.60851" stroke-miterlimit="10" stroke-linecap="round" stroke-linejoin="round"/>
<path d="M848.941 741.612V735.713" stroke="#364715" stroke-width="1.60851" stroke-miterlimit="10" stroke-linecap="round" stroke-linejoin="round"/>
<path d="M854.304 741.076V730.352" stroke="#364715" stroke-width="1.60851" stroke-miterlimit="10" stroke-linecap="round" stroke-linejoin="round"/>
<path d="M860.738 742.147V737.322" stroke="#364715" stroke-width="1.60851" stroke-miterlimit="10" stroke-linecap="round" stroke-linejoin="round"/>
<path d="M753.504 744.829V750.727" stroke="#364715" stroke-width="1.60851" stroke-miterlimit="10" stroke-linecap="round" stroke-linejoin="round"/>
<path d="M759.402 742.685V750.745" stroke="#364715" stroke-width="1.60851" stroke-miterlimit="10" stroke-linecap="round" stroke-linejoin="round"/>
<path d="M802.832 786.115V792.037" stroke="#364715" stroke-width="1.60851" stroke-miterlimit="10" stroke-linecap="round" stroke-linejoin="round"/>
<path d="M808.729 780.752V792.063" stroke="#364715" stroke-width="1.60851" stroke-miterlimit="10" stroke-linecap="round" stroke-linejoin="round"/>
<path d="M815.7 786.115V791.058" stroke="#364715" stroke-width="1.60851" stroke-miterlimit="10" stroke-linecap="round" stroke-linejoin="round"/>
<path d="M622.679 730.888V736.251" stroke="#364715" stroke-width="1.60851" stroke-miterlimit="10" stroke-linecap="round" stroke-linejoin="round"/>
<path d="M629.113 726.6V737.377" stroke="#364715" stroke-width="1.60851" stroke-miterlimit="10" stroke-linecap="round" stroke-linejoin="round"/>
<path d="M645.733 777.535V771.101" stroke="#364715" stroke-width="1.60851" stroke-miterlimit="10" stroke-linecap="round" stroke-linejoin="round"/>
<path d="M652.167 776.999V768.403" stroke="#364715" stroke-width="1.60851" stroke-miterlimit="10" stroke-linecap="round" stroke-linejoin="round"/>
<path d="M661.819 778.608V772.685" stroke="#364715" stroke-width="1.60851" stroke-miterlimit="10" stroke-linecap="round" stroke-linejoin="round"/>
</g>
<defs>
<clipPath id="clip0_27_66">
<rect width="1512" height="804.255" fill="white"/>
</clipPath>
</defs>
</svg>
