<svg width="500" height="500" viewBox="0 0 500 500" fill="none" xmlns="http://www.w3.org/2000/svg">
<path d="M432.646 39.666C431.949 37.807 431.239 35.921 430.068 34.318C428.896 32.715 427.185 31.402 425.214 31.16C423.243 30.919 421.06 31.983 420.417 33.861C420.134 29.627 419.534 25.283 417.415 21.607C415.296 17.931 411.341 15.043 407.106 15.302C403.112 15.546 399.693 18.513 397.793 22.034C395.893 25.555 395.241 29.594 394.617 33.546C393.103 31.689 389.907 32.272 388.327 34.074C386.747 35.876 386.347 38.394 386.011 40.767L433.195 41.259L432.646 39.666Z" fill="#F5F5F5"/>
<path d="M445.876 443.909H288.32C282.351 445.122 273.031 449.578 268.629 452.473C267.773 453.036 267.096 453.866 266.838 454.858C266.145 457.529 268.828 459.109 271.142 459.88C275.97 461.49 281.089 462.221 286.175 462.022C287.21 461.981 288.263 462.185 289.123 462.763C291.958 464.667 289.944 468.168 287.386 469.027C285.234 469.749 282.891 469.297 280.622 469.319C277.998 469.345 274.944 470.371 274.612 473.288C274.458 474.644 275.045 475.977 276.013 476.939C278.019 478.934 280.831 479.249 283.509 479.467C309.789 481.605 336.203 478.773 362.387 475.746C363.576 475.609 364.682 474.927 365.182 473.84C366.364 471.271 363.061 469.31 360.419 468.938C360.249 468.914 360.075 468.889 359.9 468.864C357.61 468.526 357.684 465.2 359.987 464.974C384.969 462.527 409.952 460.079 434.934 457.632C438.72 457.261 442.769 456.782 445.648 454.296C448.527 451.81 449.046 446.011 445.876 443.909Z" fill="#E0E0E0"/>
<path d="M192.304 454.276C187.919 458.362 183.535 462.447 179.15 466.533C178.742 466.913 178.299 467.377 178.339 467.941C178.412 468.983 179.845 469.119 180.847 468.938C184.033 468.362 187.219 467.786 190.405 467.209C188.864 469.303 187.324 471.397 185.783 473.491C190.339 472.134 194.618 469.803 198.267 466.691C199.292 468.282 200.145 469.989 200.808 471.77C204.313 466.458 207.146 460.679 209.215 454.625L192.304 454.276Z" fill="#E0E0E0"/>
<path d="M47.7111 453.55C43.3261 457.636 38.9421 461.721 34.5571 465.807C34.1491 466.187 33.7061 466.651 33.7461 467.215C33.8191 468.257 35.2521 468.393 36.2541 468.212C39.4401 467.636 42.6261 467.06 45.8121 466.483C44.2711 468.577 42.7311 470.671 41.1901 472.765C45.7461 471.408 50.0251 469.077 53.6751 465.965C54.7001 467.556 55.5531 469.262 56.2161 471.044C59.7211 465.732 62.5541 459.953 64.6231 453.898L47.7111 453.55Z" fill="#E0E0E0"/>
<path d="M112.345 417.65C107.96 421.736 103.576 425.821 99.191 429.907C98.783 430.287 98.34 430.751 98.38 431.315C98.453 432.357 99.886 432.493 100.888 432.312C104.074 431.736 107.26 431.16 110.446 430.583C108.905 432.677 107.365 434.771 105.824 436.865C110.38 435.508 114.659 433.177 118.309 430.065C119.334 431.656 120.187 433.362 120.85 435.144C124.355 429.832 127.188 424.053 129.257 417.998L112.345 417.65Z" fill="#E0E0E0"/>
<path d="M85.151 284.913C80.766 288.999 76.382 293.084 71.997 297.17C71.589 297.55 71.146 298.014 71.186 298.578C71.259 299.62 72.692 299.756 73.694 299.575C76.88 298.999 80.066 298.422 83.252 297.846C81.711 299.94 80.17 302.034 78.63 304.128C83.186 302.771 87.465 300.44 91.114 297.328C92.139 298.919 92.992 300.625 93.655 302.407C97.16 297.095 99.993 291.316 102.062 285.261L85.151 284.913Z" fill="#E0E0E0"/>
<path d="M165.431 360.414C161.046 364.5 156.662 368.585 152.277 372.671C151.869 373.051 151.426 373.515 151.466 374.079C151.539 375.121 152.972 375.257 153.974 375.076C157.16 374.5 160.346 373.924 163.532 373.347C161.991 375.441 160.451 377.535 158.91 379.629C163.466 378.272 167.745 375.941 171.395 372.829C172.42 374.42 173.273 376.126 173.936 377.908C177.441 372.596 180.274 366.817 182.343 360.762L165.431 360.414Z" fill="#F5F5F5"/>
<path d="M47.493 354.912C43.108 358.998 38.724 363.083 34.339 367.169C33.931 367.549 33.488 368.013 33.528 368.577C33.601 369.619 35.034 369.755 36.036 369.574C39.222 368.998 42.408 368.421 45.594 367.845C44.053 369.939 42.512 372.033 40.972 374.127C45.528 372.77 49.807 370.439 53.456 367.327C54.481 368.918 55.334 370.624 55.997 372.406C59.502 367.094 62.335 361.315 64.404 355.26L47.493 354.912Z" fill="#F5F5F5"/>
<path d="M59.442 91.582C59.442 91.582 128.715 41.154 136.525 40.595C144.336 40.036 161.891 37.241 161.891 37.241C161.891 37.241 218.545 69.224 224.398 64.411C230.251 59.598 273.822 25.504 282.677 23.827C291.532 22.15 321.966 19.356 325.073 19.915C328.181 20.474 377.044 57.921 377.044 57.921L396.596 55.712L415.699 66.864L463.813 92.278L59.442 91.582Z" fill="#EDDB74"/>
<path d="M492.99 101.961H8.55103V118.771H492.99V101.961Z" fill="#1C4732"/>
<path d="M491.168 92.246C490.254 90.68 489.34 89.113 488.426 87.546C487.672 89.234 486.534 90.773 485.109 92.031C483.545 91.054 482.371 89.549 481.86 87.862C480.498 89.013 479.485 90.517 478.967 92.16C476.893 89.104 475.676 85.549 475.47 81.94C473.929 85.008 472.389 88.075 470.848 91.143C470.503 89.84 469.71 88.643 468.615 87.769C468.488 89.115 468.36 90.46 468.233 91.806C466.946 90.639 465.66 89.473 464.373 88.306C464.187 89.63 464 90.954 463.814 92.278C463.348 91.009 462.881 89.741 462.415 88.472C461.321 89.922 460.226 91.371 459.132 92.821C458.898 91.302 458.664 89.784 458.43 88.265C456.805 89.626 455.18 90.988 453.555 92.349C453.121 90.757 452.686 89.165 452.252 87.573C451.328 88.904 450.404 90.236 449.48 91.567C447.187 89.456 444.893 87.344 442.6 85.233C442.72 87.29 442.84 89.347 442.96 91.404C440.944 89.371 438.927 87.338 436.911 85.306C437.631 87.633 438.35 89.96 439.07 92.286C437.728 91.482 436.387 90.679 435.045 89.876C434.707 91.005 434.369 92.133 434.031 93.261C432.807 92.342 431.968 90.991 431.722 89.546C430.63 90.661 429.538 91.777 428.446 92.892C427.944 91.743 427.898 90.427 428.317 89.249C427.089 90.57 425.86 91.891 424.632 93.212C424.687 90.506 424.741 87.8 424.796 85.093C423.188 87.236 421.926 89.602 421.063 92.089C419.527 90.16 418.276 88.034 417.358 85.791C417.726 87.908 418.094 90.024 418.461 92.141C417.015 90.944 415.569 89.747 414.123 88.55C414.372 89.78 414.621 91.01 414.869 92.24L411.723 90.443L410.412 92.767L409.832 87.267L406.164 92.211C404.394 88.987 403.552 85.328 403.748 81.712C402.09 82.925 401.126 84.812 400.705 86.735C400.284 88.658 400.352 90.641 400.423 92.602C398.204 90.59 396.645 87.956 396.003 85.136C394.943 86.893 395.334 89.066 395.756 91.042C394.276 89.389 392.503 87.964 390.529 86.842C391.1 88.757 391.671 90.673 392.242 92.588H391.819C391.067 91.299 390.314 90.01 389.562 88.72C388.928 90.141 388.018 91.454 386.897 92.585L385.398 92.584C384.262 91.641 383.41 90.4 382.996 89.036C381.846 90.008 380.948 91.234 380.384 92.581H379.628C377.849 89.7 376.796 86.432 376.606 83.114C375.065 86.182 373.525 89.249 371.984 92.317C371.639 91.014 370.846 89.817 369.751 88.943C369.636 90.154 369.522 91.365 369.407 92.575H368.922C367.784 91.543 366.646 90.511 365.509 89.48C365.364 90.511 365.219 91.542 365.073 92.573H364.626C364.267 91.597 363.909 90.622 363.55 89.646C362.814 90.621 362.078 91.596 361.342 92.571L360.048 92.57C359.887 91.526 359.726 90.482 359.565 89.439C358.32 90.482 357.075 91.525 355.83 92.568L354.429 92.567C354.082 91.294 353.734 90.02 353.387 88.747C352.504 90.02 351.621 91.292 350.737 92.565H350.423C348.194 90.512 345.964 88.46 343.735 86.407C343.855 88.458 343.975 90.51 344.094 92.561H344.079C342.068 90.534 340.057 88.506 338.046 86.479C338.673 88.505 339.3 90.532 339.926 92.559L338.7 92.558C337.86 92.055 337.02 91.552 336.18 91.049C336.03 91.551 335.879 92.054 335.728 92.556L333.522 92.555C333.197 91.98 332.965 91.36 332.856 90.719C332.257 91.331 331.658 91.942 331.06 92.554L329.195 92.553C329.127 91.836 329.208 91.106 329.452 90.423C328.792 91.133 328.132 91.843 327.472 92.552L325.804 92.551C325.846 90.456 325.889 88.362 325.931 86.267C324.478 88.203 323.311 90.323 322.462 92.549L321.669 92.548C320.379 90.811 319.301 88.937 318.493 86.964C318.816 88.825 319.14 90.686 319.463 92.547H318.669C317.532 91.606 316.395 90.665 315.258 89.724C315.448 90.664 315.639 91.605 315.829 92.545L314.483 92.544L312.858 91.616L312.335 92.543L311.4 92.542L310.968 88.439L307.926 92.54L306.874 92.539C305.403 89.527 304.705 86.189 304.884 82.884C303.226 84.097 302.262 85.984 301.841 87.907C301.508 89.426 301.482 90.983 301.52 92.536L300.357 92.535C298.78 90.731 297.656 88.583 297.138 86.308C296.078 88.065 296.469 90.238 296.891 92.214C295.411 90.561 293.637 89.136 291.664 88.014C291.742 88.274 291.819 88.535 291.897 88.795C291.246 90.169 290.344 91.438 289.235 92.529L288.003 92.528C286.791 91.571 285.884 90.281 285.452 88.857C284.266 89.859 283.346 91.129 282.785 92.524H282.161C280.335 89.613 279.254 86.3 279.062 82.934C277.521 86.002 275.981 89.069 274.44 92.137C274.095 90.834 273.302 89.637 272.207 88.763C272.089 90.015 271.97 91.266 271.852 92.518H271.514C270.331 91.445 269.148 90.373 267.965 89.3C267.814 90.372 267.663 91.444 267.512 92.516H267.127C266.753 91.499 266.38 90.483 266.006 89.466C265.239 90.482 264.472 91.498 263.705 92.514L262.522 92.513C262.355 91.428 262.188 90.344 262.021 89.259C260.727 90.343 259.434 91.427 258.14 92.511L256.919 92.51C256.56 91.196 256.202 89.881 255.843 88.567C254.932 89.881 254.02 91.194 253.108 92.508H253.012C250.738 90.414 248.464 88.321 246.191 86.227C246.311 88.284 246.431 90.341 246.551 92.398C244.535 90.365 242.518 88.332 240.502 86.3C241.141 88.367 241.781 90.435 242.42 92.502L241.361 92.501C240.453 91.957 239.544 91.413 238.636 90.869C238.473 91.412 238.31 91.956 238.148 92.499L236.047 92.498C235.684 91.89 235.43 91.226 235.313 90.539C234.674 91.191 234.036 91.844 233.397 92.496L231.662 92.495C231.571 91.739 231.651 90.964 231.909 90.242C231.211 90.993 230.513 91.743 229.815 92.494L228.258 92.493C228.301 90.358 228.344 88.222 228.387 86.087C226.908 88.059 225.725 90.221 224.873 92.491H224.216C222.885 90.72 221.776 88.804 220.949 86.784C221.279 88.686 221.61 90.588 221.94 92.489H221.273C220.087 91.507 218.9 90.525 217.714 89.543C217.913 90.524 218.111 91.506 218.31 92.487L217.154 92.486L215.314 91.435L214.722 92.484L213.869 92.483L213.424 88.258L210.291 92.481L209.392 92.48C207.879 89.436 207.159 86.053 207.34 82.703C205.682 83.916 204.718 85.803 204.297 87.726C204.2 88.169 204.131 88.615 204.08 89.063C203.978 88.888 203.876 88.714 203.774 88.539C203.323 89.549 202.732 90.503 202.027 91.378C200.863 89.794 200.021 88.005 199.593 86.127C198.532 87.884 198.924 90.057 199.346 92.033C198.97 91.613 198.575 91.209 198.163 90.82C197.746 90.211 197.418 89.55 197.207 88.855C196.979 89.048 196.764 89.254 196.556 89.466C195.783 88.872 194.974 88.319 194.119 87.833C194.463 88.986 194.807 90.139 195.15 91.291C194.925 91.672 194.729 92.066 194.563 92.471H193.885C192.078 89.573 191.009 86.278 190.818 82.932C189.277 86 187.737 89.067 186.196 92.135C185.851 90.832 185.059 89.635 183.963 88.761C183.846 89.996 183.729 91.231 183.613 92.466H183.215C182.051 91.41 180.886 90.354 179.722 89.298C179.573 90.353 179.425 91.408 179.276 92.463H178.866C178.499 91.463 178.131 90.463 177.763 89.464C177.009 90.463 176.255 91.462 175.5 92.461L174.271 92.46C174.106 91.392 173.942 90.324 173.777 89.256C172.503 90.323 171.23 91.39 169.956 92.457L168.661 92.456C168.307 91.159 167.953 89.861 167.599 88.564C166.699 89.861 165.799 91.157 164.899 92.454H164.713C162.457 90.377 160.202 88.301 157.946 86.224C158.066 88.281 158.186 90.338 158.307 92.395C156.291 90.362 154.274 88.329 152.258 86.297C152.892 88.348 153.526 90.398 154.161 92.449L153.033 92.448C152.153 91.921 151.272 91.394 150.392 90.867C150.234 91.393 150.077 91.92 149.919 92.447L147.775 92.446C147.428 91.851 147.183 91.206 147.069 90.538C146.447 91.174 145.824 91.809 145.202 92.445L143.414 92.444C143.332 91.704 143.413 90.948 143.665 90.242C142.983 90.976 142.3 91.71 141.618 92.443L140.015 92.442C140.058 90.323 140.101 88.205 140.143 86.086C138.675 88.043 137.498 90.188 136.647 92.44H135.934C134.62 90.683 133.524 88.784 132.705 86.784C133.033 88.669 133.36 90.554 133.688 92.439H132.968C131.802 91.474 130.636 90.509 129.47 89.544C129.665 90.509 129.86 91.473 130.055 92.438L128.821 92.437L127.07 91.437L126.507 92.436L125.62 92.435L125.18 88.26L122.085 92.433L121.123 92.432C119.627 89.401 118.916 86.036 119.097 82.705C117.439 83.918 116.475 85.805 116.054 87.728C115.716 89.271 115.694 90.852 115.735 92.429L114.634 92.428C113.023 90.609 111.877 88.435 111.352 86.129C110.291 87.886 110.683 90.059 111.105 92.035C109.625 90.382 107.851 88.956 105.878 87.835C106.192 88.889 106.507 89.943 106.821 90.996C106.185 89.905 105.548 88.815 104.912 87.724C104.158 89.412 103.02 90.951 101.595 92.209C100.031 91.232 98.857 89.727 98.346 88.04C96.984 89.191 95.971 90.695 95.453 92.338C93.379 89.282 92.162 85.727 91.956 82.118C90.415 85.186 88.875 88.253 87.334 91.321C86.989 90.018 86.196 88.821 85.101 87.947C84.974 89.293 84.846 90.638 84.719 91.984C83.432 90.817 82.146 89.651 80.859 88.484C80.672 89.808 80.486 91.132 80.3 92.456C79.834 91.187 79.367 89.919 78.901 88.65C77.807 90.1 76.712 91.549 75.618 92.999C75.384 91.48 75.15 89.962 74.916 88.443C73.291 89.804 71.666 91.166 70.041 92.527C69.607 90.935 69.172 89.343 68.738 87.751C67.814 89.082 66.89 90.414 65.966 91.745C63.673 89.634 61.379 87.522 59.086 85.411C59.206 87.468 59.326 89.525 59.447 91.581C57.431 89.548 55.414 87.515 53.398 85.483C54.118 87.81 54.837 90.137 55.557 92.463C54.215 91.66 52.874 90.856 51.532 90.053C51.194 91.182 50.856 92.31 50.518 93.438C49.294 92.519 48.455 91.168 48.208 89.723C47.116 90.838 46.024 91.954 44.932 93.069C44.43 91.92 44.384 90.604 44.804 89.426C43.575 90.747 42.347 92.068 41.118 93.389C41.173 90.683 41.227 87.977 41.282 85.27C39.675 87.413 38.412 89.779 37.549 92.266C36.013 90.337 34.762 88.211 33.844 85.967C34.212 88.084 34.58 90.201 34.948 92.317C33.502 91.12 32.056 89.923 30.61 88.726C30.859 89.956 31.108 91.186 31.356 92.416L28.21 90.619L26.899 92.943L26.319 87.443L22.652 92.387C20.882 89.163 20.04 85.503 20.236 81.888C18.578 83.101 17.614 84.988 17.193 86.911C16.772 88.834 16.84 90.817 16.911 92.778C14.692 90.766 13.133 88.132 12.491 85.312C11.43 87.069 11.822 89.242 12.244 91.218C10.764 89.565 8.99003 88.139 7.01703 87.018C7.58803 88.933 8.15903 90.849 8.73003 92.764L8.16203 95.84C7.01003 101.977 7.48703 106.683 13.146 108.919C18.804 111.155 37.698 108.819 43.835 109.159C62.194 110.176 78.098 108.786 101.972 110.176C151.785 113.076 206.103 111.121 255.936 108.517C255.936 108.517 270.227 113.142 291.663 112.619C313.099 112.095 336.744 112.357 351.381 111.572C366.018 110.786 393.885 111.31 406.27 111.572C418.655 111.834 426.818 111.834 432.448 110.524C438.078 109.215 448.211 110.262 457.5 110.262C466.789 110.262 474.389 114.273 483.959 112.66C493.529 111.047 492.685 105.549 492.966 101.883C493.246 98.216 491.168 92.246 491.168 92.246Z" fill="#1C4732"/>
<path d="M11.026 194.061C52.081 201.374 92.108 208.52 133.676 205.193C171.196 202.191 209.984 194.99 245.707 206.849C256.342 210.379 266.941 215.624 278.11 214.723C288.71 213.869 298.039 207.587 308.265 204.672C318.527 201.747 329.41 202.282 340.073 202.707C389.948 204.697 482.986 206.169 493.975 193.942L11.026 194.061Z" fill="#D8C850"/>
<path d="M69.672 149.272C68.074 142.919 64.255 135.529 60.54 129.995C63.751 132.259 66.11 135.439 67.828 138.829C69.547 142.219 69.993 145.67 71.107 149.273" fill="#D8C850"/>
<path d="M71.849 149.272C68.58 137.621 66.224 126.267 61.616 114.318C67.58 124.642 71.157 137.697 73.135 149.272" fill="#D8C850"/>
<path d="M77.977 122.121C76.31 130.89 75.6011 140.37 75.8631 149.272H76.9271C76.9051 140.103 78 131.29 77.977 122.121Z" fill="#D8C850"/>
<path d="M73.912 149.272C71.589 135.062 71.086 120.593 73.133 105.522C73.601 114.107 73.536 122.535 74.004 131.12C74.319 136.904 75.153 143.68 75.153 149.273" fill="#D8C850"/>
<path d="M80.5801 149.272C80.5801 149.416 77.1721 149.532 72.9691 149.532C68.7651 149.532 65.3571 149.415 65.3571 149.272C65.3571 149.128 68.7641 149.012 72.9691 149.012C77.1721 149.012 80.5801 149.128 80.5801 149.272Z" fill="#D8C850"/>
<path d="M78.1741 150.446C78.1741 150.59 75.3051 150.706 71.7661 150.706C68.2261 150.706 65.3571 150.589 65.3571 150.446C65.3571 150.302 68.2261 150.186 71.7661 150.186C75.3041 150.185 78.1741 150.302 78.1741 150.446Z" fill="#D8C850"/>
<path d="M157.348 125.397C155.75 119.044 151.931 111.654 148.216 106.12C151.427 108.384 153.786 111.564 155.504 114.954C157.223 118.344 157.669 121.795 158.783 125.397" fill="#D8C850"/>
<path d="M159.525 125.397C156.256 113.746 153.9 102.392 149.292 90.4431C155.256 100.767 158.833 113.822 160.811 125.397" fill="#D8C850"/>
<path d="M165.654 98.2461C163.987 107.015 163.278 116.495 163.54 125.397H164.604C164.582 116.228 165.676 107.415 165.654 98.2461Z" fill="#D8C850"/>
<path d="M161.589 125.397C159.266 111.187 158.763 96.7181 160.81 81.6471C161.278 90.2321 161.213 98.6601 161.681 107.245C161.996 113.029 162.83 119.806 162.83 125.398" fill="#D8C850"/>
<path d="M168.256 125.397C168.256 125.541 164.848 125.657 160.645 125.657C156.441 125.657 153.033 125.54 153.033 125.397C153.033 125.253 156.44 125.137 160.645 125.137C164.848 125.136 168.256 125.253 168.256 125.397Z" fill="#D8C850"/>
<path d="M165.85 126.571C165.85 126.715 162.981 126.831 159.442 126.831C155.902 126.831 153.033 126.714 153.033 126.571C153.033 126.428 155.902 126.311 159.442 126.311C162.981 126.31 165.85 126.427 165.85 126.571Z" fill="#D8C850"/>
<path d="M217.175 147.749C215.577 141.396 211.758 134.006 208.043 128.471C211.254 130.735 213.613 133.915 215.331 137.305C217.05 140.695 217.496 144.146 218.61 147.749" fill="#D8C850"/>
<path d="M219.353 147.749C216.084 136.098 213.728 124.744 209.12 112.795C215.084 123.119 218.661 136.174 220.639 147.749" fill="#D8C850"/>
<path d="M225.481 120.599C223.814 129.368 223.105 138.848 223.367 147.75H224.431C224.409 138.58 225.504 129.768 225.481 120.599Z" fill="#D8C850"/>
<path d="M221.416 147.749C219.093 133.539 218.59 119.07 220.637 103.999C221.105 112.584 221.04 121.012 221.508 129.597C221.823 135.381 222.657 142.157 222.657 147.75" fill="#D8C850"/>
<path d="M228.083 147.749C228.083 147.893 224.675 148.009 220.472 148.009C216.268 148.009 212.86 147.892 212.86 147.749C212.86 147.605 216.267 147.489 220.472 147.489C224.675 147.489 228.083 147.606 228.083 147.749Z" fill="#D8C850"/>
<path d="M225.677 148.923C225.677 149.067 222.808 149.183 219.269 149.183C215.729 149.183 212.86 149.066 212.86 148.923C212.86 148.779 215.729 148.663 219.269 148.663C222.808 148.663 225.677 148.779 225.677 148.923Z" fill="#D8C850"/>
<path d="M290.733 147.859C289.135 141.506 285.316 134.116 281.601 128.582C284.812 130.846 287.171 134.026 288.889 137.416C290.608 140.806 291.054 144.257 292.168 147.859" fill="#D8C850"/>
<path d="M292.91 147.859C289.641 136.208 287.285 124.854 282.677 112.905C288.641 123.229 292.218 136.284 294.196 147.859" fill="#D8C850"/>
<path d="M299.038 120.708C297.371 129.477 296.662 138.957 296.924 147.859H297.988C297.966 138.69 299.061 129.877 299.038 120.708Z" fill="#D8C850"/>
<path d="M294.973 147.859C292.65 133.649 292.147 119.18 294.194 104.109C294.661 112.694 294.597 121.122 295.065 129.707C295.38 135.491 296.214 142.267 296.214 147.86" fill="#D8C850"/>
<path d="M301.641 147.859C301.641 148.003 298.233 148.119 294.03 148.119C289.826 148.119 286.418 148.002 286.418 147.859C286.418 147.716 289.825 147.599 294.03 147.599C298.233 147.598 301.641 147.715 301.641 147.859Z" fill="#D8C850"/>
<path d="M299.235 149.033C299.235 149.177 296.366 149.294 292.827 149.294C289.287 149.294 286.418 149.177 286.418 149.033C286.418 148.889 289.287 148.773 292.827 148.773C296.365 148.772 299.235 148.889 299.235 149.033Z" fill="#D8C850"/>
<path d="M347.654 134.33C346.056 127.977 342.237 120.587 338.522 115.052C341.733 117.316 344.092 120.496 345.81 123.886C347.529 127.276 347.975 130.727 349.089 134.329" fill="#D8C850"/>
<path d="M349.832 134.33C346.563 122.679 344.207 111.325 339.599 99.3761C345.563 109.7 349.14 122.755 351.118 134.33" fill="#D8C850"/>
<path d="M355.96 107.179C354.293 115.948 353.584 125.428 353.846 134.33H354.91C354.888 125.161 355.983 116.349 355.96 107.179Z" fill="#D8C850"/>
<path d="M351.895 134.33C349.572 120.12 349.069 105.651 351.116 90.5801C351.584 99.1651 351.519 107.593 351.987 116.178C352.302 121.962 353.136 128.738 353.136 134.331" fill="#D8C850"/>
<path d="M358.562 134.33C358.562 134.474 355.154 134.59 350.951 134.59C346.747 134.59 343.339 134.473 343.339 134.33C343.339 134.187 346.746 134.07 350.951 134.07C355.154 134.07 358.562 134.186 358.562 134.33Z" fill="#D8C850"/>
<path d="M356.156 135.504C356.156 135.648 353.287 135.764 349.748 135.764C346.208 135.764 343.339 135.647 343.339 135.504C343.339 135.361 346.208 135.244 349.748 135.244C353.287 135.244 356.156 135.36 356.156 135.504Z" fill="#D8C850"/>
<path d="M429.731 144.612C428.133 138.259 424.314 130.869 420.599 125.335C423.81 127.599 426.169 130.779 427.887 134.169C429.606 137.559 430.052 141.01 431.166 144.612" fill="#D8C850"/>
<path d="M431.909 144.612C428.64 132.961 426.284 121.607 421.676 109.658C427.64 119.982 431.217 133.037 433.195 144.612" fill="#D8C850"/>
<path d="M438.037 117.461C436.37 126.23 435.661 135.71 435.923 144.612H436.987C436.965 135.442 438.06 126.63 438.037 117.461Z" fill="#D8C850"/>
<path d="M433.972 144.612C431.649 130.402 431.146 115.933 433.193 100.862C433.661 109.447 433.596 117.875 434.064 126.46C434.379 132.244 435.213 139.021 435.213 144.613" fill="#D8C850"/>
<path d="M440.639 144.612C440.639 144.756 437.231 144.872 433.028 144.872C428.824 144.872 425.416 144.755 425.416 144.612C425.416 144.469 428.823 144.352 433.028 144.352C437.231 144.351 440.639 144.468 440.639 144.612Z" fill="#D8C850"/>
<path d="M438.233 145.786C438.233 145.93 435.364 146.046 431.825 146.046C428.285 146.046 425.416 145.929 425.416 145.786C425.416 145.642 428.285 145.526 431.825 145.526C435.364 145.525 438.233 145.642 438.233 145.786Z" fill="#D8C850"/>
<path d="M465.141 49.3781C464.645 48.0531 464.138 46.7091 463.304 45.5671C462.469 44.4251 461.249 43.4891 459.845 43.3171C458.441 43.1451 456.885 43.9031 456.427 45.2421C456.226 42.2251 455.798 39.1291 454.288 36.5101C452.778 33.8901 449.96 31.8321 446.942 32.0171C444.096 32.1911 441.66 34.3051 440.306 36.8141C438.952 39.3231 438.487 42.2011 438.043 45.0181C436.964 43.6941 434.686 44.1101 433.56 45.3941C432.434 46.6781 432.149 48.4731 431.91 50.1631L465.534 50.5131L465.141 49.3781Z" fill="#EBEBEB"/>
<path d="M80.208 55.0711C79.712 53.7461 79.2061 52.403 78.3711 51.26C77.5361 50.118 76.3161 49.182 74.9121 49.01C73.5071 48.838 71.9511 49.5961 71.4941 50.9351C71.2931 47.9181 70.8651 44.8221 69.3551 42.2031C67.8451 39.5831 65.027 37.5251 62.009 37.7101C59.163 37.8841 56.7271 39.9981 55.3731 42.5071C54.0191 45.0161 53.5541 47.8941 53.1101 50.7111C52.0311 49.3871 49.753 49.8031 48.627 51.0871C47.501 52.3711 47.2161 54.1651 46.9771 55.8561L80.601 56.2061L80.208 55.0711Z" fill="#EBEBEB"/>
<path d="M220.75 40.578C220.398 39.639 220.04 38.688 219.449 37.879C218.858 37.07 217.994 36.407 216.999 36.285C216.004 36.163 214.902 36.7 214.578 37.648C214.435 35.511 214.132 33.319 213.063 31.463C211.993 29.607 209.997 28.15 207.86 28.281C205.844 28.404 204.119 29.902 203.16 31.679C202.201 33.456 201.872 35.495 201.557 37.49C200.793 36.552 199.18 36.847 198.382 37.756C197.585 38.665 197.383 39.936 197.213 41.134L221.028 41.382L220.75 40.578Z" fill="#F5F5F5"/>
<path d="M492.99 176.759H8.55103V194.829H492.99V176.759Z" fill="#34684E"/>
<path d="M491.168 166.317C490.254 164.633 489.34 162.949 488.426 161.265C487.672 163.08 486.534 164.734 485.109 166.086C483.545 165.036 482.371 163.418 481.86 161.605C480.498 162.842 479.485 164.459 478.967 166.224C476.893 162.939 475.676 159.118 475.47 155.238C473.929 158.536 472.389 161.833 470.848 165.131C470.503 163.73 469.71 162.443 468.615 161.504C468.488 162.95 468.36 164.397 468.233 165.843C466.946 164.589 465.66 163.335 464.373 162.081C464.187 163.504 464 164.927 463.814 166.351C463.348 164.987 462.881 163.623 462.415 162.26C461.321 163.818 460.226 165.377 459.132 166.935C458.898 165.303 458.664 163.67 458.43 162.038C456.805 163.501 455.18 164.965 453.555 166.428C453.121 164.717 452.686 163.005 452.252 161.294C451.328 162.725 450.404 164.156 449.48 165.588C447.187 163.318 444.893 161.049 442.6 158.779C442.72 160.99 442.84 163.201 442.96 165.412C440.944 163.227 438.927 161.042 436.911 158.857C437.631 161.358 438.35 163.859 439.07 166.36C437.728 165.496 436.387 164.633 435.045 163.769C434.707 164.982 434.369 166.195 434.031 167.408C432.807 166.42 431.968 164.968 431.722 163.414C430.63 164.613 429.538 165.812 428.446 167.011C427.944 165.776 427.898 164.361 428.317 163.096C427.089 164.516 425.86 165.936 424.632 167.356C424.687 164.447 424.741 161.538 424.796 158.629C423.188 160.932 421.926 163.476 421.063 166.149C419.527 164.075 418.276 161.79 417.358 159.378C417.726 161.653 418.094 163.929 418.461 166.204C417.015 164.917 415.569 163.631 414.123 162.344C414.372 163.666 414.621 164.988 414.869 166.31L411.723 164.378L410.412 166.876L409.832 160.963L406.164 166.278C404.394 162.812 403.552 158.879 403.748 154.992C402.09 156.296 401.126 158.324 400.705 160.391C400.284 162.458 400.352 164.589 400.423 166.698C398.204 164.535 396.645 161.704 396.003 158.673C394.943 160.561 395.334 162.898 395.756 165.022C394.276 163.245 392.503 161.713 390.529 160.507C391.1 162.566 391.671 164.625 392.242 166.684H391.819C391.067 165.298 390.314 163.912 389.562 162.526C388.928 164.053 388.018 165.465 386.897 166.68L385.398 166.679C384.262 165.665 383.41 164.332 382.996 162.865C381.846 163.91 380.948 165.228 380.384 166.676H379.628C377.849 163.579 376.796 160.066 376.606 156.499C375.065 159.797 373.525 163.094 371.984 166.391C371.639 164.99 370.846 163.703 369.751 162.764C369.636 164.066 369.522 165.367 369.407 166.669H368.922C367.784 165.56 366.646 164.451 365.509 163.342C365.364 164.45 365.219 165.559 365.073 166.667H364.626C364.267 165.618 363.909 164.569 363.55 163.521C362.814 164.569 362.078 165.617 361.342 166.665L360.048 166.664C359.887 165.542 359.726 164.42 359.565 163.298C358.32 164.419 357.075 165.54 355.83 166.662L354.429 166.661C354.082 165.292 353.734 163.923 353.387 162.555C352.504 163.923 351.621 165.291 350.737 166.659H350.423C348.194 164.453 345.964 162.246 343.735 160.04C343.855 162.245 343.975 164.45 344.094 166.656H344.079C342.068 164.477 340.057 162.297 338.046 160.118C338.673 162.296 339.3 164.475 339.926 166.653L338.7 166.652C337.86 166.111 337.02 165.57 336.18 165.03C336.03 165.57 335.879 166.11 335.728 166.65L333.522 166.649C333.197 166.031 332.965 165.365 332.856 164.675C332.257 165.332 331.658 165.99 331.06 166.647L329.195 166.646C329.127 165.875 329.208 165.091 329.452 164.356C328.792 165.119 328.132 165.882 327.472 166.645L325.804 166.644C325.846 164.393 325.889 162.141 325.931 159.889C324.478 161.971 323.311 164.249 322.462 166.642H321.669C320.379 164.775 319.301 162.761 318.493 160.64C318.816 162.64 319.14 164.641 319.463 166.641H318.669C317.532 165.629 316.395 164.618 315.258 163.606C315.448 164.617 315.639 165.628 315.829 166.639L314.483 166.638L312.858 165.64L312.335 166.636L311.4 166.635L310.968 162.225L307.926 166.633L306.874 166.632C305.403 163.394 304.705 159.806 304.884 156.253C303.226 157.557 302.262 159.585 301.841 161.652C301.508 163.285 301.482 164.958 301.52 166.628L300.357 166.627C298.78 164.688 297.656 162.379 297.138 159.933C296.078 161.821 296.469 164.157 296.891 166.282C295.411 164.505 293.637 162.973 291.664 161.767C291.742 162.047 291.819 162.326 291.897 162.606C291.246 164.083 290.344 165.447 289.235 166.62L288.003 166.619C286.791 165.591 285.884 164.204 285.452 162.674C284.266 163.751 283.346 165.116 282.785 166.616H282.161C280.335 163.487 279.254 159.925 279.062 156.307C277.521 159.605 275.981 162.902 274.44 166.199C274.095 164.798 273.302 163.511 272.207 162.572C272.089 163.917 271.97 165.263 271.852 166.608H271.514C270.331 165.455 269.148 164.302 267.965 163.149C267.814 164.301 267.663 165.454 267.512 166.606H267.127C266.753 165.513 266.38 164.42 266.006 163.328C265.239 164.42 264.472 165.512 263.705 166.604L262.522 166.603C262.355 165.437 262.188 164.271 262.021 163.105C260.727 164.27 259.434 165.435 258.14 166.6L256.919 166.599C256.56 165.186 256.202 163.773 255.843 162.361C254.932 163.773 254.02 165.185 253.108 166.597H253.012C250.738 164.347 248.464 162.096 246.191 159.846C246.311 162.057 246.431 164.268 246.551 166.479C244.535 164.294 242.518 162.109 240.502 159.924C241.141 162.146 241.781 164.369 242.42 166.591L241.361 166.59C240.453 166.005 239.544 165.421 238.636 164.836C238.473 165.42 238.31 166.004 238.148 166.588L236.047 166.587C235.684 165.934 235.43 165.22 235.313 164.482C234.674 165.183 234.036 165.885 233.397 166.586L231.662 166.585C231.571 165.772 231.651 164.94 231.909 164.163C231.211 164.97 230.513 165.777 229.815 166.584L228.258 166.583C228.301 164.287 228.344 161.992 228.387 159.697C226.908 161.817 225.725 164.141 224.873 166.581H224.216C222.885 164.677 221.776 162.618 220.949 160.447C221.279 162.491 221.61 164.536 221.94 166.58H221.273C220.087 165.525 218.9 164.469 217.714 163.414C217.913 164.469 218.111 165.524 218.31 166.579L217.154 166.578L215.314 165.448L214.722 166.576L213.869 166.575L213.424 162.033L210.291 166.573L209.392 166.572C207.879 163.3 207.159 159.663 207.34 156.062C205.682 157.366 204.718 159.394 204.297 161.461C204.2 161.937 204.131 162.416 204.08 162.898C203.978 162.71 203.876 162.523 203.774 162.335C203.323 163.42 202.732 164.446 202.027 165.386C200.863 163.684 200.021 161.76 199.593 159.742C198.532 161.63 198.924 163.967 199.346 166.091C198.97 165.64 198.575 165.206 198.163 164.787C197.746 164.132 197.418 163.421 197.207 162.674C196.979 162.882 196.764 163.103 196.556 163.331C195.783 162.693 194.974 162.098 194.119 161.576C194.463 162.815 194.807 164.054 195.15 165.294C194.925 165.703 194.729 166.127 194.563 166.563L193.885 166.562C192.078 163.446 191.009 159.905 190.818 156.308C189.277 159.606 187.737 162.903 186.196 166.2C185.851 164.799 185.059 163.512 183.963 162.573C183.846 163.9 183.729 165.228 183.613 166.555H183.215C182.051 165.42 180.886 164.285 179.722 163.15C179.573 164.284 179.425 165.418 179.276 166.553H178.866C178.499 165.478 178.131 164.404 177.763 163.329C177.009 164.403 176.255 165.477 175.5 166.551L174.271 166.55C174.106 165.402 173.942 164.254 173.777 163.106C172.503 164.253 171.23 165.4 169.956 166.547L168.661 166.546C168.307 165.151 167.953 163.757 167.599 162.362C166.699 163.756 165.799 165.15 164.899 166.544H164.713C162.457 164.312 160.202 162.079 157.946 159.847C158.066 162.058 158.186 164.269 158.307 166.48C156.291 164.295 154.274 162.11 152.258 159.925C152.892 162.129 153.526 164.334 154.161 166.538L153.033 166.537C152.153 165.97 151.272 165.404 150.392 164.837C150.234 165.403 150.077 165.969 149.919 166.535L147.775 166.534C147.428 165.895 147.183 165.201 147.069 164.483C146.447 165.166 145.824 165.85 145.202 166.533L143.414 166.532C143.332 165.736 143.413 164.924 143.665 164.165C142.983 164.954 142.3 165.743 141.618 166.532L140.015 166.531C140.058 164.254 140.101 161.976 140.143 159.699C138.675 161.803 137.498 164.109 136.647 166.529L135.934 166.528C134.62 164.639 133.524 162.599 132.705 160.448C133.033 162.474 133.36 164.5 133.688 166.527L132.968 166.526C131.802 165.489 130.636 164.451 129.47 163.414C129.665 164.451 129.86 165.488 130.055 166.524L128.821 166.523L127.07 165.448L126.507 166.522L125.62 166.521L125.18 162.033L122.085 166.519L121.123 166.518C119.627 163.26 118.916 159.643 119.097 156.062C117.439 157.366 116.475 159.394 116.054 161.461C115.716 163.119 115.694 164.819 115.735 166.515L114.634 166.514C113.023 164.559 111.877 162.221 111.352 159.743C110.291 161.631 110.683 163.968 111.105 166.092C109.625 164.315 107.851 162.783 105.878 161.577C106.192 162.71 106.507 163.843 106.821 164.975C106.185 163.803 105.548 162.631 104.912 161.458C104.158 163.273 103.02 164.927 101.595 166.279C100.031 165.229 98.857 163.611 98.346 161.798C96.984 163.035 95.971 164.652 95.453 166.418C93.379 163.133 92.162 159.311 91.956 155.432C90.415 158.729 88.875 162.027 87.334 165.325C86.989 163.924 86.196 162.637 85.101 161.698C84.974 163.144 84.846 164.591 84.719 166.037C83.432 164.783 82.146 163.529 80.859 162.275C80.672 163.698 80.486 165.121 80.3 166.545C79.834 165.181 79.367 163.817 78.901 162.454C77.807 164.012 76.712 165.571 75.618 167.129C75.384 165.496 75.15 163.864 74.916 162.232C73.291 163.695 71.666 165.159 70.041 166.622C69.607 164.911 69.172 163.199 68.738 161.488C67.814 162.919 66.89 164.35 65.966 165.782C63.673 163.512 61.379 161.242 59.086 158.973C59.206 161.184 59.326 163.395 59.447 165.606C57.431 163.421 55.414 161.236 53.398 159.051C54.118 161.552 54.837 164.053 55.557 166.554C54.215 165.69 52.874 164.827 51.532 163.963C51.194 165.176 50.856 166.389 50.518 167.602C49.294 166.614 48.455 165.162 48.208 163.608C47.116 164.807 46.024 166.006 44.932 167.205C44.43 165.97 44.384 164.555 44.804 163.29C43.575 164.71 42.347 166.13 41.118 167.55C41.173 164.641 41.227 161.732 41.282 158.823C39.675 161.126 38.412 163.67 37.549 166.343C36.013 164.269 34.762 161.984 33.844 159.572C34.212 161.847 34.58 164.123 34.948 166.398C33.502 165.111 32.056 163.825 30.61 162.538C30.859 163.86 31.108 165.182 31.356 166.504L28.21 164.572L26.899 167.07L26.319 161.157L22.652 166.472C20.882 163.007 20.04 159.073 20.236 155.186C18.578 156.49 17.614 158.518 17.193 160.585C16.772 162.652 16.84 164.783 16.911 166.892C14.692 164.729 13.133 161.898 12.491 158.867C11.43 160.755 11.822 163.091 12.244 165.216C10.764 163.439 8.99003 161.907 7.01703 160.701C7.58803 162.76 8.15903 164.819 8.73003 166.878L8.16903 170.183C7.01703 176.78 7.49403 181.839 13.153 184.242C18.812 186.645 37.705 184.135 43.842 184.5C62.201 185.593 78.105 184.098 101.979 185.593C151.792 188.711 206.11 186.609 255.943 183.809C255.943 183.809 270.234 188.781 291.67 188.218C313.106 187.655 336.751 187.937 351.388 187.092C366.025 186.248 393.892 186.811 406.277 187.092C418.662 187.373 426.825 187.373 432.455 185.966C438.085 184.559 448.218 185.685 457.507 185.685C466.796 185.685 474.396 189.996 483.966 188.263C493.536 186.53 492.692 180.619 492.973 176.678C493.246 172.734 491.168 166.317 491.168 166.317Z" fill="#34684E"/>
<path d="M294.495 249.945C291.602 237.58 284.687 223.196 277.961 212.426C283.775 216.832 288.045 223.021 291.157 229.619C294.269 236.217 295.077 242.934 297.094 249.945" fill="#183A29"/>
<path d="M298.437 249.945C292.518 227.268 288.253 205.172 279.909 181.915C290.707 202.009 297.184 227.417 300.765 249.945" fill="#183A29"/>
<path d="M298.558 249.912C293.74 231.422 289.828 212.693 284.198 194.421C283.458 192.02 282.691 189.628 281.891 187.247C281.499 186.08 281.1 184.915 280.693 183.753C280.608 183.511 280.292 182.325 280.097 182.346C279.955 182.362 280.538 183.368 280.67 183.624C282.708 187.555 284.545 191.589 286.219 195.688C289.579 203.914 292.299 212.396 294.576 220.982C297.109 230.532 299.088 240.224 300.645 249.979C300.67 250.137 300.911 250.07 300.886 249.913C297.935 231.427 293.554 212.986 286.46 195.622C284.542 190.928 282.41 186.324 280.017 181.853C279.951 181.73 279.74 181.814 279.789 181.949C285.982 199.261 290.23 217.136 294.565 234.979C295.782 239.988 297.017 244.992 298.317 249.98C298.357 250.134 298.598 250.068 298.558 249.912Z" fill="#263238"/>
<path d="M309.533 197.102C306.515 214.169 305.23 232.62 305.706 249.945H307.633C307.592 232.099 309.574 214.948 309.533 197.102Z" fill="#183A29"/>
<path d="M302.173 249.945C297.968 222.289 297.06 208.524 300.766 179.191C301.612 195.899 301.492 197.906 302.339 214.615C302.909 225.872 304.42 239.061 304.42 249.945" fill="#183A29"/>
<path d="M302.293 249.912C300.885 240.639 299.565 231.335 298.946 221.971C298.386 213.497 298.487 205.009 299.105 196.541C299.528 190.742 300.164 184.961 300.89 179.193C300.807 179.193 300.723 179.193 300.64 179.193C301.036 187.024 301.33 194.858 301.657 202.692C302.071 212.619 302.734 222.514 303.467 232.421C303.898 238.253 304.284 244.096 304.294 249.946C304.294 250.107 304.544 250.107 304.544 249.946C304.526 239.507 303.38 229.108 302.702 218.701C302.166 210.461 301.889 202.203 301.561 193.953C301.366 189.032 301.139 184.112 300.89 179.193C300.882 179.028 300.66 179.037 300.64 179.193C299.422 188.874 298.456 198.604 298.329 208.368C298.219 216.824 298.805 225.258 299.795 233.653C300.439 239.11 301.227 244.548 302.052 249.98C302.076 250.137 302.317 250.07 302.293 249.912Z" fill="#263238"/>
<path d="M314.245 249.945C314.245 250.089 308.074 250.205 300.464 250.205C292.851 250.205 286.682 250.088 286.682 249.945C286.682 249.802 292.851 249.685 300.464 249.685C308.075 249.685 314.245 249.801 314.245 249.945Z" fill="#263238"/>
<path d="M309.889 252.23C309.889 252.374 304.694 252.49 298.286 252.49C291.877 252.49 286.682 252.373 286.682 252.23C286.682 252.087 291.876 251.97 298.286 251.97C304.694 251.969 309.889 252.086 309.889 252.23Z" fill="#263238"/>
<path d="M316.628 254.4C316.628 254.544 311.433 254.66 305.025 254.66C298.616 254.66 293.421 254.543 293.421 254.4C293.421 254.257 298.615 254.14 305.025 254.14C311.433 254.139 316.628 254.256 316.628 254.4Z" fill="#263238"/>
<path d="M381.203 274.316C378.31 261.951 371.395 247.567 364.669 236.796C370.483 241.202 374.753 247.391 377.865 253.989C380.977 260.588 381.785 267.304 383.802 274.315" fill="#183A29"/>
<path d="M385.145 274.316C379.226 251.639 374.961 229.542 366.617 206.286C377.415 226.38 383.892 251.787 387.473 274.316" fill="#183A29"/>
<path d="M385.265 274.283C380.447 255.793 376.535 237.064 370.905 218.792C370.165 216.391 369.398 213.999 368.598 211.618C368.206 210.451 367.807 209.286 367.4 208.124C367.315 207.882 366.999 206.696 366.804 206.718C366.662 206.733 367.245 207.74 367.377 207.996C369.415 211.927 371.252 215.961 372.926 220.06C376.286 228.286 379.006 236.768 381.283 245.354C383.816 254.904 385.795 264.596 387.352 274.351C387.377 274.509 387.618 274.442 387.593 274.285C384.642 255.799 380.261 237.358 373.167 219.994C371.249 215.3 369.117 210.696 366.725 206.225C366.659 206.102 366.448 206.186 366.496 206.321C372.689 223.633 376.937 241.508 381.272 259.351C382.489 264.36 383.724 269.364 385.024 274.352C385.064 274.505 385.306 274.439 385.265 274.283Z" fill="#263238"/>
<path d="M396.24 221.473C393.222 238.54 391.937 256.991 392.413 274.316H394.34C394.299 256.47 396.282 239.319 396.24 221.473Z" fill="#183A29"/>
<path d="M388.88 274.316C384.675 246.66 383.767 232.895 387.473 203.562C388.319 220.27 388.199 222.277 389.046 238.986C389.616 250.243 391.127 263.432 391.127 274.316" fill="#183A29"/>
<path d="M389 274.283C387.592 265.01 386.272 255.706 385.653 246.342C385.093 237.868 385.194 229.38 385.812 220.912C386.235 215.113 386.871 209.332 387.597 203.564C387.514 203.564 387.43 203.564 387.347 203.564C387.743 211.395 388.037 219.229 388.364 227.064C388.779 236.991 389.441 246.885 390.174 256.793C390.605 262.625 390.99 268.468 391.001 274.318C391.001 274.479 391.251 274.479 391.251 274.318C391.233 263.879 390.087 253.48 389.409 243.073C388.873 234.833 388.596 226.575 388.268 218.324C388.073 213.403 387.846 208.483 387.597 203.564C387.589 203.399 387.367 203.408 387.347 203.564C386.129 213.245 385.163 222.975 385.035 232.739C384.925 241.195 385.511 249.629 386.501 258.024C387.145 263.481 387.933 268.919 388.758 274.351C388.783 274.508 389.024 274.44 389 274.283Z" fill="#263238"/>
<path d="M400.952 274.316C400.952 274.46 394.781 274.576 387.171 274.576C379.558 274.576 373.389 274.46 373.389 274.316C373.389 274.172 379.558 274.056 387.171 274.056C394.782 274.056 400.952 274.172 400.952 274.316Z" fill="#263238"/>
<path d="M396.596 276.6C396.596 276.744 391.401 276.86 384.993 276.86C378.584 276.86 373.389 276.743 373.389 276.6C373.389 276.456 378.583 276.34 384.993 276.34C391.401 276.34 396.596 276.457 396.596 276.6Z" fill="#263238"/>
<path d="M403.336 278.771C403.336 278.915 398.141 279.031 391.733 279.031C385.323 279.031 380.129 278.915 380.129 278.771C380.129 278.627 385.323 278.511 391.733 278.511C398.14 278.51 403.336 278.627 403.336 278.771Z" fill="#263238"/>
<path d="M453.656 293.436C450.763 281.071 443.848 266.687 437.122 255.917C442.936 260.323 447.206 266.512 450.318 273.11C453.43 279.708 454.238 286.425 456.255 293.436" fill="#183A29"/>
<path d="M457.598 293.436C451.679 270.759 447.414 248.663 439.07 225.406C449.868 245.5 456.345 270.908 459.926 293.436" fill="#183A29"/>
<path d="M457.719 293.403C452.901 274.913 448.989 256.184 443.359 237.912C442.619 235.511 441.852 233.119 441.052 230.738C440.66 229.571 440.261 228.406 439.854 227.244C439.769 227.002 439.453 225.816 439.258 225.838C439.116 225.854 439.699 226.86 439.831 227.116C441.869 231.047 443.706 235.081 445.38 239.18C448.74 247.406 451.46 255.888 453.737 264.474C456.27 274.024 458.249 283.716 459.806 293.471C459.831 293.629 460.072 293.562 460.047 293.405C457.096 274.919 452.715 256.478 445.621 239.114C443.703 234.42 441.571 229.816 439.178 225.345C439.112 225.222 438.901 225.306 438.949 225.441C445.142 242.753 449.39 260.628 453.725 278.47C454.942 283.479 456.177 288.483 457.477 293.471C457.518 293.625 457.76 293.559 457.719 293.403Z" fill="#263238"/>
<path d="M468.694 240.593C465.676 257.66 464.391 276.111 464.867 293.436H466.794C466.753 275.59 468.735 258.439 468.694 240.593Z" fill="#183A29"/>
<path d="M461.334 293.436C457.128 265.78 456.221 252.016 459.927 222.682C460.773 239.39 460.653 241.397 461.5 258.106C462.07 269.363 463.581 282.552 463.581 293.436" fill="#183A29"/>
<path d="M461.454 293.403C460.046 284.13 458.726 274.826 458.107 265.462C457.547 256.988 457.648 248.5 458.266 240.032C458.689 234.233 459.325 228.452 460.051 222.684C459.968 222.684 459.884 222.684 459.801 222.684C460.197 230.515 460.491 238.349 460.818 246.183C461.232 256.11 461.895 266.004 462.628 275.912C463.059 281.744 463.444 287.587 463.454 293.437C463.454 293.598 463.704 293.598 463.704 293.437C463.686 282.998 462.54 272.599 461.862 262.192C461.326 253.952 461.049 245.694 460.721 237.444C460.526 232.523 460.299 227.603 460.05 222.684C460.042 222.519 459.82 222.528 459.8 222.684C458.582 232.365 457.616 242.095 457.488 251.859C457.378 260.315 457.964 268.749 458.954 277.144C459.598 282.601 460.386 288.039 461.211 293.471C461.237 293.628 461.478 293.561 461.454 293.403Z" fill="#263238"/>
<path d="M473.406 293.436C473.406 293.58 467.236 293.696 459.625 293.696C452.012 293.696 445.843 293.579 445.843 293.436C445.843 293.292 452.012 293.176 459.625 293.176C467.236 293.176 473.406 293.293 473.406 293.436Z" fill="#263238"/>
<path d="M469.05 295.721C469.05 295.865 463.855 295.981 457.447 295.981C451.037 295.981 445.843 295.864 445.843 295.721C445.843 295.578 451.037 295.461 457.447 295.461C463.855 295.461 469.05 295.577 469.05 295.721Z" fill="#263238"/>
<path d="M475.789 297.891C475.789 298.035 470.594 298.151 464.186 298.151C457.776 298.151 452.582 298.034 452.582 297.891C452.582 297.747 457.776 297.631 464.186 297.631C470.594 297.631 475.789 297.747 475.789 297.891Z" fill="#263238"/>
<path d="M180.362 262.937C177.469 250.572 170.554 236.188 163.828 225.418C169.642 229.824 173.912 236.013 177.024 242.611C180.136 249.209 180.944 255.926 182.961 262.937" fill="#183A29"/>
<path d="M184.304 262.937C178.385 240.26 174.12 218.163 165.776 194.907C176.574 215.001 183.051 240.408 186.632 262.937" fill="#183A29"/>
<path d="M184.424 262.904C179.606 244.414 175.694 225.685 170.064 207.413C169.324 205.013 168.557 202.621 167.757 200.239C167.365 199.072 166.966 197.907 166.559 196.745C166.474 196.503 166.158 195.317 165.963 195.339C165.821 195.355 166.404 196.361 166.536 196.617C168.574 200.548 170.411 204.582 172.085 208.681C175.445 216.907 178.165 225.389 180.442 233.975C182.975 243.525 184.954 253.217 186.511 262.972C186.536 263.13 186.777 263.063 186.752 262.906C183.801 244.42 179.42 225.979 172.326 208.615C170.408 203.921 168.277 199.317 165.883 194.846C165.817 194.723 165.606 194.807 165.655 194.942C171.848 212.254 176.096 230.129 180.431 247.971C181.648 252.98 182.883 257.984 184.183 262.972C184.224 263.126 184.465 263.06 184.424 262.904Z" fill="#263238"/>
<path d="M195.4 210.094C192.382 227.161 191.098 245.612 191.573 262.937H193.5C193.458 245.091 195.441 227.94 195.4 210.094Z" fill="#183A29"/>
<path d="M188.039 262.937C183.833 235.281 182.926 221.517 186.632 192.183C187.478 208.891 187.358 210.898 188.205 227.606C188.775 238.864 190.286 252.052 190.286 262.936" fill="#183A29"/>
<path d="M188.16 262.904C186.752 253.631 185.432 244.327 184.813 234.963C184.253 226.489 184.354 218.001 184.972 209.533C185.395 203.734 186.032 197.953 186.757 192.185C186.674 192.185 186.59 192.185 186.507 192.185C186.903 200.016 187.197 207.85 187.524 215.685C187.938 225.612 188.601 235.506 189.334 245.414C189.765 251.246 190.15 257.089 190.161 262.939C190.161 263.1 190.411 263.1 190.411 262.939C190.393 252.5 189.247 242.101 188.569 231.694C188.033 223.454 187.756 215.196 187.428 206.946C187.233 202.025 187.006 197.105 186.757 192.186C186.749 192.021 186.527 192.03 186.507 192.186C185.289 201.867 184.323 211.597 184.195 221.361C184.085 229.817 184.671 238.251 185.661 246.646C186.305 252.103 187.093 257.541 187.918 262.973C187.943 263.129 188.184 263.062 188.16 262.904Z" fill="#263238"/>
<path d="M200.112 262.937C200.112 263.081 193.941 263.197 186.331 263.197C178.718 263.197 172.549 263.08 172.549 262.937C172.549 262.793 178.718 262.677 186.331 262.677C193.941 262.677 200.112 262.794 200.112 262.937Z" fill="#263238"/>
<path d="M195.755 265.222C195.755 265.366 190.56 265.482 184.152 265.482C177.743 265.482 172.548 265.366 172.548 265.222C172.548 265.078 177.742 264.962 184.152 264.962C190.56 264.962 195.755 265.078 195.755 265.222Z" fill="#263238"/>
<path d="M202.495 267.392C202.495 267.536 197.3 267.652 190.892 267.652C184.482 267.652 179.288 267.536 179.288 267.392C179.288 267.248 184.482 267.132 190.892 267.132C197.299 267.132 202.495 267.249 202.495 267.392Z" fill="#263238"/>
<path d="M113.355 417.823C110.462 405.458 103.547 391.074 96.821 380.304C102.635 384.71 106.905 390.899 110.017 397.497C113.129 404.096 113.937 410.812 115.954 417.823" fill="#183A29"/>
<path d="M117.297 417.823C111.378 395.146 107.113 373.05 98.769 349.793C109.567 369.887 116.044 395.295 119.625 417.823" fill="#183A29"/>
<path d="M128.393 364.979C125.375 382.046 124.09 400.497 124.566 417.822H126.493C126.452 399.977 128.434 382.826 128.393 364.979Z" fill="#183A29"/>
<path d="M121.032 417.823C116.827 390.167 115.916 362.005 119.621 332.672C120.468 349.38 120.351 365.784 121.197 382.492C121.767 393.749 123.278 406.938 123.278 417.822" fill="#183A29"/>
<path d="M133.105 417.823C133.105 417.967 126.935 418.083 119.325 418.083C111.712 418.083 105.543 417.966 105.543 417.823C105.543 417.68 111.712 417.563 119.325 417.563C126.934 417.562 133.105 417.679 133.105 417.823Z" fill="#263238"/>
<path d="M128.749 420.107C128.749 420.251 123.554 420.367 117.146 420.367C110.736 420.367 105.542 420.25 105.542 420.107C105.542 419.964 110.736 419.847 117.146 419.847C123.553 419.847 128.749 419.963 128.749 420.107Z" fill="#263238"/>
<path d="M135.488 422.277C135.488 422.421 130.293 422.537 123.885 422.537C117.475 422.537 112.281 422.42 112.281 422.277C112.281 422.134 117.475 422.017 123.885 422.017C130.293 422.017 135.488 422.134 135.488 422.277Z" fill="#263238"/>
<path d="M194.176 454.276C191.283 441.911 184.368 427.527 177.641 416.757C183.455 421.163 187.725 427.352 190.837 433.95C193.949 440.549 194.757 447.265 196.774 454.276" fill="#183A29"/>
<path d="M198.118 454.276C192.199 431.599 187.934 409.502 179.59 386.246C190.388 406.34 196.865 431.748 200.446 454.276" fill="#183A29"/>
<path d="M209.214 401.433C206.196 418.5 204.911 436.951 205.387 454.276H207.314C207.272 436.43 209.255 419.279 209.214 401.433Z" fill="#183A29"/>
<path d="M201.853 454.276C197.648 426.62 196.737 398.458 200.442 369.125C201.288 385.833 201.172 402.237 202.018 418.945C202.588 430.202 204.099 443.391 204.099 454.275" fill="#183A29"/>
<path d="M213.926 454.276C213.926 454.42 207.755 454.536 200.145 454.536C192.532 454.536 186.363 454.419 186.363 454.276C186.363 454.132 192.532 454.016 200.145 454.016C207.755 454.016 213.926 454.132 213.926 454.276Z" fill="#263238"/>
<path d="M209.569 456.561C209.569 456.705 204.374 456.821 197.967 456.821C191.557 456.821 186.363 456.704 186.363 456.561C186.363 456.418 191.557 456.301 197.967 456.301C204.374 456.3 209.569 456.417 209.569 456.561Z" fill="#263238"/>
<path d="M216.309 458.731C216.309 458.875 211.114 458.991 204.706 458.991C198.296 458.991 193.102 458.874 193.102 458.731C193.102 458.588 198.296 458.471 204.706 458.471C211.113 458.471 216.309 458.587 216.309 458.731Z" fill="#263238"/>
<path d="M85.146 284.526C82.253 272.161 75.338 257.777 68.611 247.007C74.425 251.413 78.695 257.602 81.807 264.2C84.919 270.798 85.727 277.515 87.744 284.526" fill="#183A29"/>
<path d="M89.0879 284.526C83.1689 261.849 78.9039 239.753 70.5599 216.496C81.3579 236.59 87.8349 261.998 91.4159 284.526" fill="#183A29"/>
<path d="M100.184 231.683C97.1659 248.75 95.8819 267.201 96.3569 284.526H98.2839C98.2419 266.68 100.225 249.529 100.184 231.683Z" fill="#183A29"/>
<path d="M92.823 284.526C88.618 256.87 87.706 228.709 91.412 199.375C92.259 216.083 92.142 232.488 92.988 249.195C93.558 260.453 95.069 273.641 95.069 284.525" fill="#183A29"/>
<path d="M104.896 284.526C104.896 284.67 98.7249 284.786 91.1149 284.786C83.5019 284.786 77.3329 284.669 77.3329 284.526C77.3329 284.383 83.5019 284.266 91.1149 284.266C98.7249 284.265 104.896 284.382 104.896 284.526Z" fill="#263238"/>
<path d="M100.539 286.81C100.539 286.954 95.344 287.07 88.936 287.07C82.526 287.07 77.332 286.954 77.332 286.81C77.332 286.666 82.526 286.55 88.936 286.55C95.344 286.55 100.539 286.666 100.539 286.81Z" fill="#263238"/>
<path d="M107.279 288.98C107.279 289.124 102.084 289.24 95.676 289.24C89.267 289.24 84.072 289.123 84.072 288.98C84.072 288.837 89.266 288.72 95.676 288.72C102.083 288.72 107.279 288.837 107.279 288.98Z" fill="#263238"/>
<path d="M49.732 452.747C46.839 440.382 39.924 425.998 33.198 415.228C39.012 419.634 43.282 425.823 46.394 432.421C49.506 439.019 50.314 445.736 52.331 452.747" fill="#183A29"/>
<path d="M53.674 452.747C47.755 430.07 43.49 407.974 35.146 384.717C45.944 404.811 52.421 430.218 56.002 452.747" fill="#183A29"/>
<path d="M64.77 399.904C61.752 416.971 60.467 435.422 60.943 452.747H62.87C62.829 434.901 64.811 417.75 64.77 399.904Z" fill="#183A29"/>
<path d="M57.409 452.747C53.204 425.091 52.293 396.93 55.998 367.596C56.845 384.304 56.728 400.708 57.574 417.416C58.144 428.673 59.655 441.862 59.655 452.746" fill="#183A29"/>
<path d="M69.482 452.747C69.482 452.891 63.311 453.007 55.701 453.007C48.088 453.007 41.919 452.89 41.919 452.747C41.919 452.603 48.088 452.487 55.701 452.487C63.311 452.487 69.482 452.603 69.482 452.747Z" fill="#263238"/>
<path d="M65.126 455.031C65.126 455.175 59.931 455.291 53.524 455.291C47.115 455.291 41.92 455.174 41.92 455.031C41.92 454.888 47.114 454.771 53.524 454.771C59.93 454.771 65.126 454.888 65.126 455.031Z" fill="#263238"/>
<path d="M71.865 457.202C71.865 457.346 66.67 457.462 60.262 457.462C53.853 457.462 48.658 457.345 48.658 457.202C48.658 457.059 53.852 456.942 60.262 456.942C66.67 456.941 71.865 457.058 71.865 457.202Z" fill="#263238"/>
<path d="M49.347 354.253C46.454 341.888 39.539 327.504 32.813 316.733C38.627 321.139 42.897 327.328 46.009 333.926C49.121 340.525 49.929 347.241 51.946 354.252" fill="#183A29"/>
<path d="M53.289 354.253C47.37 331.576 43.105 309.48 34.761 286.223C45.559 306.317 52.036 331.724 55.617 354.253" fill="#183A29"/>
<path d="M64.385 301.41C61.367 318.477 60.082 336.928 60.558 354.253H62.485C62.443 336.407 64.426 319.256 64.385 301.41Z" fill="#183A29"/>
<path d="M57.024 354.253C52.818 326.597 51.61 312.718 55.315 283.385C56.161 300.093 56.343 302.215 57.189 318.923C57.759 330.18 59.27 343.369 59.27 354.253" fill="#183A29"/>
<path d="M69.097 354.253C69.097 354.397 62.927 354.513 55.317 354.513C47.704 354.513 41.535 354.396 41.535 354.253C41.535 354.109 47.704 353.993 55.317 353.993C62.926 353.993 69.097 354.109 69.097 354.253Z" fill="#263238"/>
<path d="M64.74 356.538C64.74 356.682 59.545 356.798 53.138 356.798C46.729 356.798 41.534 356.681 41.534 356.538C41.534 356.394 46.728 356.278 53.138 356.278C59.545 356.277 64.74 356.394 64.74 356.538Z" fill="#263238"/>
<path d="M71.48 358.708C71.48 358.852 66.285 358.968 59.877 358.968C53.467 358.968 48.273 358.852 48.273 358.708C48.273 358.564 53.467 358.448 59.877 358.448C66.284 358.448 71.48 358.564 71.48 358.708Z" fill="#263238"/>
<path d="M166.049 360.981C163.156 348.616 156.241 334.232 149.515 323.462C155.329 327.868 159.599 334.057 162.711 340.655C165.823 347.253 166.631 353.97 168.648 360.981" fill="#183A29"/>
<path d="M169.991 360.981C164.072 338.304 159.807 316.208 151.463 292.951C162.261 313.045 168.738 338.452 172.319 360.981" fill="#183A29"/>
<path d="M181.087 308.138C178.069 325.205 176.784 343.656 177.26 360.981H179.187C179.145 343.135 181.128 325.984 181.087 308.138Z" fill="#183A29"/>
<path d="M173.726 360.981C169.521 333.325 168.613 319.561 172.319 290.227C173.165 306.935 173.045 308.943 173.892 325.651C174.462 336.908 175.973 350.097 175.973 360.981" fill="#183A29"/>
<path d="M185.799 360.981C185.799 361.125 179.628 361.241 172.018 361.241C164.405 361.241 158.236 361.124 158.236 360.981C158.236 360.838 164.405 360.721 172.018 360.721C179.628 360.721 185.799 360.837 185.799 360.981Z" fill="#263238"/>
<path d="M181.442 363.266C181.442 363.41 176.247 363.526 169.839 363.526C163.43 363.526 158.235 363.409 158.235 363.266C158.235 363.122 163.429 363.006 169.839 363.006C176.247 363.005 181.442 363.122 181.442 363.266Z" fill="#263238"/>
<path d="M188.182 365.436C188.182 365.58 182.987 365.696 176.58 365.696C170.17 365.696 164.976 365.58 164.976 365.436C164.976 365.292 170.17 365.176 176.58 365.176C182.986 365.175 188.182 365.292 188.182 365.436Z" fill="#263238"/>
<path d="M438.242 380.121C435.349 367.756 428.434 353.372 421.708 342.602C427.522 347.008 431.792 353.197 434.904 359.795C438.016 366.394 438.824 373.11 440.84 380.121" fill="#183A29"/>
<path d="M442.184 380.121C436.265 357.444 432 335.347 423.656 312.091C434.454 332.185 440.931 357.592 444.512 380.121" fill="#183A29"/>
<path d="M453.279 327.277C450.261 344.344 448.977 362.795 449.452 380.12H451.379C451.338 362.274 453.321 345.123 453.279 327.277Z" fill="#183A29"/>
<path d="M445.919 380.121C441.714 352.465 440.806 338.7 444.512 309.367C445.358 326.075 445.238 328.082 446.085 344.79C446.655 356.047 448.166 369.236 448.166 380.12" fill="#183A29"/>
<path d="M457.991 380.12C457.991 380.264 451.82 380.38 444.21 380.38C436.597 380.38 430.428 380.263 430.428 380.12C430.428 379.976 436.597 379.86 444.21 379.86C451.821 379.86 457.991 379.977 457.991 380.12Z" fill="#263238"/>
<path d="M453.635 382.405C453.635 382.549 448.44 382.665 442.032 382.665C435.623 382.665 430.428 382.548 430.428 382.405C430.428 382.262 435.622 382.145 442.032 382.145C448.44 382.145 453.635 382.261 453.635 382.405Z" fill="#263238"/>
<path d="M460.375 384.575C460.375 384.719 455.18 384.835 448.772 384.835C442.363 384.835 437.168 384.718 437.168 384.575C437.168 384.432 442.362 384.315 448.772 384.315C455.179 384.315 460.375 384.431 460.375 384.575Z" fill="#263238"/>
<path d="M238.053 320.275C235.16 307.91 228.245 293.526 221.518 282.756C227.332 287.162 231.602 293.351 234.714 299.949C237.826 306.547 238.634 313.264 240.65 320.275" fill="#183A29"/>
<path d="M241.995 320.275C236.076 297.598 231.811 275.502 223.467 252.245C234.265 272.339 240.742 297.746 244.323 320.275" fill="#183A29"/>
<path d="M253.091 267.432C250.073 284.499 248.788 302.95 249.264 320.275H251.191C251.149 302.429 253.132 285.278 253.091 267.432Z" fill="#183A29"/>
<path d="M245.73 320.275C241.525 292.619 240.617 278.855 244.323 249.521C245.169 266.229 245.049 268.237 245.896 284.944C246.466 296.202 247.977 309.39 247.977 320.274" fill="#183A29"/>
<path d="M257.803 320.275C257.803 320.419 251.632 320.535 244.022 320.535C236.409 320.535 230.24 320.418 230.24 320.275C230.24 320.132 236.409 320.015 244.022 320.015C251.632 320.014 257.803 320.131 257.803 320.275Z" fill="#263238"/>
<path d="M253.446 322.559C253.446 322.703 248.251 322.819 241.844 322.819C235.434 322.819 230.24 322.702 230.24 322.559C230.24 322.415 235.434 322.299 241.844 322.299C248.251 322.299 253.446 322.415 253.446 322.559Z" fill="#263238"/>
<path d="M260.186 324.729C260.186 324.873 254.991 324.989 248.583 324.989C242.173 324.989 236.979 324.872 236.979 324.729C236.979 324.586 242.173 324.469 248.583 324.469C254.991 324.469 260.186 324.586 260.186 324.729Z" fill="#263238"/>
<path d="M333.063 443.909C333.063 444.053 320.784 444.169 305.641 444.169C290.493 444.169 278.216 444.052 278.216 443.909C278.216 443.766 290.492 443.649 305.641 443.649C320.784 443.648 333.063 443.765 333.063 443.909Z" fill="#263238"/>
<path d="M322.559 450.043C322.559 450.187 314.983 450.303 305.641 450.303C296.295 450.303 288.721 450.186 288.721 450.043C288.721 449.899 296.295 449.783 305.641 449.783C314.983 449.783 322.559 449.9 322.559 450.043Z" fill="#263238"/>
<path d="M451.857 443.909C451.857 444.053 439.578 444.169 424.435 444.169C409.287 444.169 397.01 444.052 397.01 443.909C397.01 443.766 409.286 443.649 424.435 443.649C439.578 443.648 451.857 443.765 451.857 443.909Z" fill="#263238"/>
<path d="M441.353 450.043C441.353 450.187 433.777 450.303 424.435 450.303C415.089 450.303 407.515 450.186 407.515 450.043C407.515 449.899 415.089 449.783 424.435 449.783C433.777 449.783 441.353 449.9 441.353 450.043Z" fill="#263238"/>
<path d="M419.758 396.379C412.224 386.186 402.03 375.549 402.03 375.549L383.32 393.844L417.929 443.909H437.818C437.818 443.909 427.292 406.572 419.758 396.379Z" fill="#FFBF9D"/>
<path d="M296.931 389.129C296.931 389.129 295.908 414.047 296.058 423.921C296.209 433.795 296.931 443.909 296.931 443.909H318.123L326.07 397.431L296.931 389.129Z" fill="#FFBF9D"/>
<path d="M415.699 386.131C415.699 386.131 401.18 289.988 398.693 276.444C395.131 257.047 368.129 237.107 337.283 239.558C306.437 242.009 277.528 388.682 278.378 389.957C279.228 391.232 301.378 417.396 320.467 413.765C332.351 411.504 328.97 406.113 343.85 405.262C358.73 404.412 372.334 415.04 388.065 406.537C403.795 398.035 415.699 386.131 415.699 386.131Z" fill="#263238"/>
<g opacity="0.3">
<path d="M349.242 314.017C347.647 312.215 344.73 312.537 343.597 314.661C341.474 318.641 341.023 322.43 339.6 326.732C332.734 347.48 328.163 370.022 324.291 391.026C324.112 391.996 324.497 393.004 325.028 393.836C326.635 396.359 329.465 395.561 331.752 394.707C336.25 393.027 341.054 391.109 343.663 387.078C345.865 383.677 346.076 379.405 346.221 375.357C346.763 360.166 347.304 344.975 347.846 329.784C348.059 323.764 349.027 320.038 349.242 314.017Z" fill="black"/>
</g>
<path d="M347.282 389.129C347.264 389.13 347.228 388.848 347.174 388.308C347.122 387.721 347.053 386.934 346.967 385.946C346.79 383.895 346.6 380.921 346.427 377.243C346.074 369.889 345.91 359.706 346.385 348.477C346.872 337.244 347.908 327.112 348.889 319.815C349.377 316.166 349.82 313.219 350.172 311.191C350.343 310.214 350.479 309.437 350.581 308.856C350.68 308.323 350.741 308.045 350.758 308.048C350.776 308.051 350.75 308.335 350.684 308.873C350.606 309.457 350.503 310.239 350.372 311.222C350.082 313.259 349.694 316.211 349.254 319.862C348.368 327.164 347.391 337.284 346.905 348.5C346.43 359.712 346.536 369.878 346.794 377.229C346.921 380.905 347.054 383.879 347.169 385.933C347.215 386.923 347.251 387.712 347.279 388.3C347.298 388.842 347.3 389.127 347.282 389.129Z" fill="#455A64"/>
<path d="M325.073 385.56C325.055 385.557 325.074 385.364 325.125 385.001C325.191 384.581 325.273 384.057 325.373 383.416C325.597 382.041 325.952 380.056 326.414 377.608C327.337 372.712 328.725 365.969 330.455 358.566C332.189 351.161 333.937 344.502 335.282 339.705C335.954 337.306 336.516 335.37 336.925 334.039C337.12 333.42 337.279 332.914 337.406 332.508C337.521 332.16 337.59 331.979 337.608 331.984C337.625 331.989 337.59 332.179 337.507 332.537C337.405 332.949 337.277 333.464 337.12 334.094C336.751 335.512 336.249 337.445 335.637 339.801C334.384 344.62 332.694 351.287 330.962 358.685C329.233 366.081 327.79 372.806 326.775 377.68C326.278 380.064 325.871 382.018 325.572 383.453C325.433 384.087 325.319 384.605 325.228 385.02C325.144 385.377 325.091 385.563 325.073 385.56Z" fill="#455A64"/>
<path d="M239.467 295.305C239.467 295.305 236.012 300.144 246.841 309.821C257.67 319.498 265.504 339.084 265.504 339.084L252.223 360.973C252.223 360.973 262.166 370.895 263.891 369.959C265.616 369.023 294.997 340.466 294.997 340.466L298.223 324.798L257.44 290.697L239.467 295.305Z" fill="#FF725E"/>
<path opacity="0.3" d="M239.467 295.305C239.467 295.305 236.012 300.144 246.841 309.821C257.67 319.498 265.504 339.084 265.504 339.084L252.223 360.973C252.223 360.973 262.166 370.895 263.891 369.959C265.616 369.023 294.997 340.466 294.997 340.466L298.223 324.798L257.44 290.697L239.467 295.305Z" fill="black"/>
<path d="M252.065 238.761C248.444 236.51 243.71 236.159 239.797 237.853L239.835 248.866C241.986 253.324 242.308 258.631 240.711 263.316C240.265 264.624 239.691 266.129 240.417 267.306C241.178 268.54 242.899 268.649 244.348 268.619C246.327 268.578 248.403 268.511 250.115 267.517C251.962 266.445 253.072 264.478 254.084 262.597C256.308 258.465 258.54 254.047 258.306 249.361C258.095 245.102 255.686 241.012 252.065 238.761Z" fill="#FF725E"/>
<g opacity="0.3">
<path d="M252.065 238.761C248.444 236.51 243.71 236.159 239.797 237.853L239.835 248.866C241.986 253.324 242.308 258.631 240.711 263.316C240.265 264.624 239.691 266.129 240.417 267.306C241.178 268.54 242.899 268.649 244.348 268.619C246.327 268.578 248.403 268.511 250.115 267.517C251.962 266.445 253.072 264.478 254.084 262.597C256.308 258.465 258.54 254.047 258.306 249.361C258.095 245.102 255.686 241.012 252.065 238.761Z" fill="black"/>
</g>
<path d="M206.326 234.149C196.311 235.112 187.827 239.728 182.093 247.995C178.858 252.659 178.532 255.267 177.175 259.277C175.818 263.287 175.589 267.571 177.108 271.522C178.913 276.215 181.385 280.797 185.234 284.032C189.188 287.355 193.17 290.699 197.666 293.241C202.162 295.784 207.25 297.507 212.411 297.312L221.592 287.688C225.823 281.811 230.102 275.845 232.652 269.067C235.202 262.289 235.86 254.485 232.826 247.91C228.609 238.777 216.341 233.186 206.326 234.149Z" fill="#263238"/>
<path d="M182.181 258.534L184.279 254.446L199.768 243.79C201.277 241.764 204.087 241.23 206.235 242.561L253.571 274.831L249.193 285.561L243.884 301.615L232.963 293.862C232.963 293.862 225.514 302.941 212.49 297.777C206.013 295.209 196.483 289.158 188.846 283.956C181.971 279.274 176.499 267.089 182.181 258.534Z" fill="#FFBF9D"/>
<path d="M221.253 278.923C220.6 278.601 219.847 278.579 219.197 278.76C217.899 279.123 216.996 280.318 217.015 281.649C217.034 282.98 217.973 284.363 219.285 284.993C220.329 284.952 221.327 284.488 221.981 283.673C222.083 283.546 222.178 283.414 222.265 283.277C222.687 282.609 222.912 281.794 222.764 280.969C222.616 280.144 222.058 279.321 221.253 278.923Z" fill="#FF9A6C"/>
<path d="M201.471 286.855C202.261 287.362 203.34 287.11 203.884 286.296C204.427 285.483 204.23 284.413 203.441 283.907C202.652 283.401 201.571 283.651 201.029 284.464C200.484 285.278 200.682 286.349 201.471 286.855Z" fill="#263238"/>
<path d="M194.426 283.925C194.737 283.854 194.567 282.19 195.545 280.549C196.498 278.897 198.058 278.192 197.962 277.894C197.925 277.754 197.451 277.734 196.758 278.032C196.071 278.323 195.179 278.985 194.576 280.011C193.975 281.037 193.842 282.122 193.934 282.845C194.023 283.581 194.281 283.966 194.426 283.925Z" fill="#263238"/>
<path d="M213.668 282.061C213.579 281.998 212.798 282.915 211.605 284.444C211.313 284.837 210.994 285.185 210.666 285.086C210.304 285.005 209.956 284.562 209.589 284.069C208.808 283.073 207.988 282.029 207.13 280.935C203.603 276.517 200.603 273.053 200.427 273.197C200.25 273.341 202.965 277.039 206.492 281.456C207.368 282.535 208.202 283.565 209.001 284.549C209.384 284.99 209.763 285.584 210.518 285.742C210.899 285.815 211.308 285.642 211.54 285.416C211.781 285.196 211.925 284.963 212.061 284.762C213.138 283.151 213.758 282.122 213.668 282.061Z" fill="#263238"/>
<path d="M232.937 293.873C232.937 293.873 238.2 286.171 238.133 275.411C238.133 275.411 243.867 284.548 235.692 295.801L232.937 293.873Z" fill="#FF9A6C"/>
<path d="M191.1 281.167C191.644 281.012 191.815 279.526 192.495 277.952C193.124 276.357 194.052 275.18 193.774 274.69C193.633 274.466 193.143 274.498 192.509 274.91C191.881 275.314 191.149 276.132 190.698 277.221C190.249 278.311 190.192 279.403 190.354 280.128C190.514 280.863 190.841 281.227 191.1 281.167Z" fill="#263238"/>
<path d="M212.078 269.119C212.884 269.599 213.142 270.677 212.656 271.527C212.172 272.376 211.126 272.678 210.321 272.198C209.515 271.718 209.257 270.639 209.741 269.791C210.226 268.94 211.272 268.639 212.078 269.119Z" fill="#263238"/>
<path d="M208.166 262.071C208.241 262.381 206.677 262.972 205.646 264.58C204.594 266.171 204.661 267.882 204.352 267.929C204.21 267.959 203.981 267.544 203.937 266.79C203.891 266.046 204.084 264.951 204.732 263.954C205.382 262.958 206.292 262.354 206.98 262.113C207.678 261.865 208.137 261.924 208.166 262.071Z" fill="#263238"/>
<path d="M202.472 260.237C202.675 260.773 201.581 261.858 200.723 263.408C199.817 264.931 199.429 266.427 198.866 266.516C198.6 266.545 198.33 266.131 198.279 265.359C198.225 264.596 198.442 263.487 199.048 262.43C199.655 261.375 200.501 260.631 201.184 260.3C201.874 259.959 202.364 259.99 202.472 260.237Z" fill="#263238"/>
<path d="M222.459 253.397L223.19 256.766C209.225 259.851 177.417 262.857 179.27 262.741C179.27 262.741 180.788 255.24 186.149 249.584C191.51 243.928 202.811 233.958 210.216 239.183C217.621 244.409 222.459 253.397 222.459 253.397Z" fill="#263238"/>
<path d="M221.856 277.805C222.126 277.878 221.789 279.918 220.713 282.202C219.645 284.491 218.293 286.054 218.064 285.894C217.819 285.729 218.743 283.964 219.77 281.76C220.807 279.561 221.572 277.722 221.856 277.805Z" fill="#263238"/>
<path d="M209.637 233.002C191.446 231.12 180.641 244.699 177.332 253.337C174.023 261.974 176.696 261.081 176.696 261.081C176.696 261.081 188.963 253.949 199.836 252.571C219.418 250.089 241.205 266.404 241.205 266.404C241.205 266.404 251.192 237.301 209.637 233.002Z" fill="#FF725E"/>
<path opacity="0.3" d="M209.637 233.002C191.446 231.12 180.641 244.699 177.332 253.337C174.023 261.974 176.696 261.081 176.696 261.081C176.696 261.081 188.963 253.949 199.836 252.571C219.418 250.089 241.205 266.404 241.205 266.404C241.205 266.404 251.192 237.301 209.637 233.002Z" fill="black"/>
<path d="M224.209 257.449C223.324 256.922 221.841 254.658 222.224 253.702C223.245 251.148 225.93 247.046 231.89 250.525C240.037 255.282 233.581 262.481 233.339 262.359C233.149 262.263 227.265 259.27 224.209 257.449Z" fill="#FFBF9D"/>
<path d="M231.675 258.373C231.67 258.322 231.857 258.289 232.107 258.114C232.351 257.942 232.66 257.583 232.748 257.066C232.935 256.021 231.991 254.498 230.546 253.602C229.816 253.148 229.02 252.891 228.282 252.812C227.541 252.713 226.9 252.855 226.57 253.244C226.219 253.617 226.299 254.075 226.469 254.309C226.633 254.551 226.827 254.595 226.815 254.646C226.822 254.681 226.577 254.741 226.279 254.479C226.136 254.351 226 254.143 225.955 253.86C225.91 253.572 225.997 253.237 226.206 252.954C226.617 252.351 227.525 252.123 228.335 252.209C229.168 252.262 230.074 252.533 230.893 253.043C232.504 254.054 233.55 255.791 233.202 257.168C233.017 257.828 232.565 258.206 232.228 258.34C231.88 258.474 231.673 258.41 231.675 258.373Z" fill="#FF9A6C"/>
<path d="M246.674 245.966C245.774 242.168 242.964 238.874 239.356 237.385C235.756 235.899 231.453 236.25 228.14 238.295C231.792 241.3 234.732 245.164 236.64 249.491C237.181 250.718 237.739 252.09 238.944 252.677C240.054 253.218 241.376 252.916 242.55 252.532C244.056 252.039 245.634 251.332 246.403 249.946C247.064 248.755 246.988 247.29 246.674 245.966Z" fill="#FF725E"/>
<g opacity="0.3">
<path d="M246.674 245.966C245.774 242.168 242.964 238.874 239.356 237.385C235.756 235.899 231.453 236.25 228.14 238.295C231.792 241.3 234.732 245.164 236.64 249.491C237.181 250.718 237.739 252.09 238.944 252.677C240.054 253.218 241.376 252.916 242.55 252.532C244.056 252.039 245.634 251.332 246.403 249.946C247.064 248.755 246.988 247.29 246.674 245.966Z" fill="black"/>
</g>
<path d="M228.117 238.308C228.125 238.303 228.133 238.299 228.141 238.294C228.067 238.233 227.997 238.167 227.922 238.106L228.117 238.308Z" fill="#455A64"/>
<path d="M241.31 267.029C241.188 267.004 242.015 264.767 242.133 261.004C242.276 257.287 241.445 251.941 238.359 247.094C235.261 242.252 230.761 239.248 227.33 237.812C223.867 236.334 221.491 236.142 221.519 236.022C221.522 236.004 221.668 236.011 221.946 236.04C222.222 236.077 222.636 236.102 223.156 236.212C224.202 236.39 225.702 236.769 227.472 237.473C230.99 238.842 235.628 241.859 238.798 246.815C241.957 251.776 242.741 257.252 242.501 261.02C242.394 262.922 242.106 264.442 241.827 265.466C241.708 265.983 241.556 266.369 241.473 266.636C241.383 266.898 241.327 267.034 241.31 267.029Z" fill="#263238"/>
<path d="M241.075 252.966C241.032 252.868 242.233 252.668 243.55 251.409C244.193 250.785 244.84 249.899 245.233 248.784C245.632 247.675 245.732 246.338 245.486 244.992C244.993 242.252 243.2 240.273 241.787 239.17C240.346 238.047 239.274 237.604 239.316 237.521C239.329 237.492 239.608 237.567 240.087 237.776C240.565 237.985 241.241 238.334 242.009 238.876C242.77 239.423 243.625 240.173 244.371 241.182C245.122 242.184 245.73 243.466 245.999 244.898C246.261 246.329 246.139 247.763 245.684 248.948C245.235 250.137 244.512 251.055 243.799 251.68C243.077 252.303 242.376 252.646 241.876 252.811C241.375 252.977 241.081 252.992 241.075 252.966Z" fill="#263238"/>
<path d="M258.327 359.413C258.327 359.413 245.341 371.529 243.737 373.031C242.133 374.534 237.272 386.554 239.393 388.145C241.514 389.736 243.737 387.703 243.737 387.703C243.737 387.703 252.121 385.405 255.303 386.377C258.485 387.349 261.225 386.2 261.225 386.2L264.23 371.704L268.156 366.982L257.955 359.412" fill="#FFBF9D"/>
<path d="M251.691 391.121C243.626 385.306 232.147 380.367 222.637 377.464C228.336 377.077 234.039 378.536 239.269 380.834C244.499 383.131 248.429 386.682 253.225 389.786" fill="#183A29"/>
<path d="M254.018 389.095C238.864 378.746 224.985 367.889 208.101 358.444C224.808 364.76 241.696 376.435 255.393 387.898" fill="#183A29"/>
<path d="M233.404 352.182C240.396 363.813 249.123 375.37 258.311 385.357L259.449 384.366C250.25 373.849 242.603 362.701 233.404 352.182Z" fill="#183A29"/>
<path d="M256.225 387.174C239.523 373.003 231.911 365.341 219.019 346.113C228.109 355.545 229.07 356.792 238.159 366.225C244.283 372.58 251.956 379.592 257.551 386.02" fill="#183A29"/>
<path d="M264.693 362.204C264.693 362.204 250.713 371.774 250.383 372.213C250.053 372.653 250.238 375.849 249.689 376.948C249.139 378.048 243.422 383.106 243.751 384.095C244.081 385.085 243.751 386.954 245.62 386.514C247.489 386.074 249.908 384.975 249.908 384.975C249.908 384.975 249.028 388.713 248.589 388.933C248.149 389.153 246.83 392.232 248.589 392.671C250.348 393.111 252.838 391.461 253.792 390.252C254.746 389.043 258.924 390.582 261.233 389.372C263.542 388.162 264.302 385.414 264.692 382.665C265.082 379.916 265.411 374.728 265.411 374.728L274.089 367.442L264.693 362.204Z" fill="#FFBF9D"/>
<path d="M253.225 373.36C253.335 373.448 252.624 374.515 251.526 375.641C250.43 376.77 249.382 377.509 249.291 377.402C249.196 377.291 250.075 376.388 251.152 375.278C252.232 374.171 253.111 373.267 253.225 373.36Z" fill="#FF9A6C"/>
<path d="M257.242 367.335C257.327 367.434 255.663 369.047 253.246 370.591C252.648 370.983 251.992 371.267 251.531 371.579C251.053 371.903 250.714 372.306 250.52 372.694C250.12 373.48 250.215 374.081 250.135 374.084C250.079 374.114 249.825 373.486 250.184 372.543C250.359 372.079 250.724 371.581 251.248 371.192C251.791 370.796 252.383 370.537 252.971 370.15C255.335 368.639 257.144 367.213 257.242 367.335Z" fill="#FF9A6C"/>
<path d="M252.583 382.424C252.705 382.482 252.192 383.595 251.007 384.468C249.829 385.351 248.615 385.521 248.595 385.388C248.554 385.241 249.615 384.866 250.697 384.05C251.789 383.25 252.454 382.342 252.583 382.424Z" fill="#FF9A6C"/>
<path d="M256.672 385.952C256.791 386.033 256.047 387.332 255.011 388.852C253.974 390.373 253.038 391.54 252.919 391.459C252.8 391.378 253.544 390.08 254.581 388.559C255.616 387.039 256.553 385.871 256.672 385.952Z" fill="#FF9A6C"/>
<path d="M260.691 386.135C260.825 386.154 260.671 387.366 259.807 388.551C258.951 389.744 257.848 390.268 257.788 390.147C257.704 390.019 258.601 389.345 259.385 388.246C260.183 387.158 260.544 386.096 260.691 386.135Z" fill="#FF9A6C"/>
<path d="M253.585 297.166C255.333 299.183 281.003 334.23 280.611 335.797L254.638 364.285L265.916 377.148C265.916 377.148 302.441 352.663 305.967 340.126C309.493 327.589 286.495 286.508 284.029 281.117C280.665 273.76 264.037 262.311 253.585 271.282C240.501 282.513 253.585 297.166 253.585 297.166Z" fill="#FF725E"/>
<path d="M253.585 297.166C253.585 297.166 253.404 296.991 253.092 296.612C252.781 296.233 252.332 295.657 251.793 294.866C250.737 293.285 249.218 290.84 248.249 287.313C247.785 285.554 247.503 283.509 247.746 281.289C247.885 280.185 248.13 279.042 248.559 277.91C249.005 276.787 249.576 275.66 250.331 274.6C251.099 273.554 251.966 272.515 253.01 271.601C254.026 270.662 255.193 269.791 256.536 269.162C259.211 267.87 262.464 267.522 265.686 268.078C268.92 268.619 272.138 269.962 275.158 271.844C278.156 273.747 281.081 276.149 283.27 279.346C286.847 286.126 290.599 293.335 294.322 301.078C296.169 304.951 298.012 308.947 299.752 313.092C301.491 317.236 303.155 321.522 304.522 326C305.191 328.242 305.793 330.532 306.191 332.889C306.567 335.237 306.809 337.694 306.23 340.123C305.52 342.505 304.127 344.575 302.647 346.527C301.144 348.474 299.472 350.297 297.731 352.065C292.748 357.086 287.385 361.514 282.055 365.695C276.709 369.861 271.358 373.75 266.054 377.358L265.873 377.481L265.727 377.315C261.846 372.882 258.087 368.589 254.458 364.444L254.317 364.283L254.461 364.126C264.119 353.558 272.879 343.972 280.468 335.669L280.424 335.752C280.419 335.694 280.322 335.415 280.231 335.24C280.136 335.042 280.031 334.845 279.924 334.651C279.707 334.262 279.48 333.88 279.249 333.502C278.787 332.747 278.313 332.01 277.841 331.285C276.894 329.837 275.95 328.439 275.024 327.085C273.172 324.377 271.395 321.844 269.726 319.478C266.385 314.75 263.469 310.7 261.077 307.395C256.296 300.781 253.585 297.166 253.585 297.166C253.585 297.166 253.783 297.369 254.127 297.8C254.475 298.248 254.975 298.892 255.628 299.733C256.932 301.443 258.831 303.981 261.25 307.267C263.668 310.554 266.61 314.586 269.976 319.299C271.657 321.657 273.447 324.184 275.311 326.886C276.243 328.238 277.194 329.633 278.148 331.081C278.624 331.806 279.103 332.543 279.57 333.302C279.804 333.682 280.034 334.067 280.257 334.463C280.367 334.662 280.476 334.863 280.577 335.072C280.664 335.307 280.802 335.442 280.798 335.843V335.878L280.754 335.927C273.185 344.249 264.447 353.855 254.815 364.446L254.818 364.128C258.453 368.268 262.217 372.556 266.104 376.984L265.777 376.941C271.062 373.338 276.407 369.448 281.739 365.287C287.056 361.113 292.407 356.691 297.361 351.698C299.091 349.941 300.751 348.131 302.235 346.209C303.697 344.287 305.059 342.242 305.73 339.986C306.277 337.702 306.056 335.284 305.683 332.972C305.292 330.648 304.696 328.375 304.033 326.146C302.678 321.694 301.023 317.419 299.293 313.283C297.561 309.146 295.727 305.154 293.888 301.284C290.192 293.564 286.423 286.293 282.908 279.583C280.784 276.462 277.896 274.067 274.943 272.183C271.967 270.315 268.796 268.981 265.623 268.44C262.461 267.883 259.289 268.213 256.677 269.46C255.364 270.068 254.224 270.91 253.219 271.83C252.186 272.727 251.328 273.744 250.568 274.767C249.821 275.804 249.255 276.907 248.81 278.005C248.383 279.113 248.135 280.233 247.991 281.317C247.738 283.497 247.999 285.516 248.444 287.262C249.372 290.762 250.854 293.215 251.879 294.808C252.402 295.605 252.836 296.19 253.132 296.579C253.431 296.968 253.585 297.166 253.585 297.166Z" fill="#263238"/>
<path d="M331.965 239.777C331.965 239.777 291.138 249.034 268.126 257.018C245.114 265.002 245.255 268.891 245.255 268.891L242.076 300.333C242.076 300.333 263.914 316.905 279.219 316.518C294.524 316.13 305.291 307.048 315.235 301.616C325.18 296.184 349 289.06 349 289.06C349 289.06 355.357 239.363 331.965 239.777Z" fill="#FF725E"/>
<path opacity="0.3" d="M282.13 278.149C282.13 278.149 297.293 292.431 303.4 308.676L298.223 311.468L282.13 278.149Z" fill="black"/>
<path d="M317.996 279.273C318.032 279.271 318.081 279.591 318.139 280.172C318.201 280.753 318.249 281.598 318.272 282.642C318.32 284.731 318.205 287.628 317.732 290.787C317.254 293.946 316.51 296.749 315.849 298.731C315.52 299.723 315.225 300.515 314.994 301.052C314.767 301.591 314.626 301.882 314.593 301.869C314.516 301.84 314.931 300.62 315.497 298.623C316.064 296.626 316.743 293.838 317.217 290.709C317.685 287.58 317.858 284.716 317.903 282.641C317.951 280.566 317.914 279.278 317.996 279.273Z" fill="#263238"/>
<path d="M339.016 294.25C339.016 294.25 386.312 277.19 391.42 261.505C392.736 257.463 381.401 250.526 377.622 247.934C366.737 240.465 344.513 236.87 334.071 239.032C334.071 239.032 349.218 267.644 339.016 294.25Z" fill="#455A64"/>
<path d="M374.045 256.922C374.061 256.93 373.988 257.097 373.835 257.408C373.65 257.769 373.421 258.213 373.144 258.754C372.843 259.339 372.463 260.047 371.984 260.849C371.51 261.653 370.994 262.584 370.349 263.568C369.112 265.568 367.52 267.875 365.644 270.357C363.744 272.819 361.546 275.444 359.076 278.051C356.589 280.643 354.071 282.965 351.702 284.98C349.313 286.973 347.084 288.672 345.145 290.004C344.193 290.694 343.288 291.255 342.507 291.766C341.729 292.282 341.039 292.696 340.47 293.024C339.943 293.327 339.51 293.577 339.159 293.779C338.856 293.946 338.693 294.027 338.684 294.011C338.675 293.996 338.82 293.885 339.105 293.689C339.442 293.465 339.858 293.189 340.363 292.852C340.915 292.498 341.587 292.06 342.347 291.523C343.11 290.99 343.998 290.411 344.932 289.703C346.836 288.339 349.032 286.617 351.392 284.614C353.732 282.589 356.226 280.269 358.7 277.691C361.157 275.098 363.354 272.497 365.265 270.063C367.153 267.61 368.768 265.335 370.04 263.368C370.702 262.401 371.238 261.487 371.734 260.699C372.235 259.914 372.64 259.222 372.967 258.654C373.279 258.133 373.535 257.705 373.743 257.357C373.925 257.064 374.029 256.914 374.045 256.922Z" fill="#263238"/>
<path d="M352.46 256.344C352.496 256.347 352.478 256.912 352.416 257.934C352.364 258.956 352.211 260.431 351.952 262.244C351.441 265.868 350.354 270.84 348.419 276.094C346.472 281.345 344.064 285.83 342.095 288.915C341.113 290.46 340.27 291.68 339.645 292.49C339.028 293.306 338.674 293.747 338.645 293.726C338.616 293.705 338.915 293.224 339.479 292.374C340.051 291.53 340.844 290.284 341.781 288.722C343.66 285.602 345.997 281.126 347.93 275.913C349.851 270.697 350.986 265.778 351.588 262.186C351.892 260.39 352.1 258.928 352.214 257.915C352.339 256.901 352.424 256.341 352.46 256.344Z" fill="#263238"/>
<g opacity="0.3">
<path d="M362.55 249.572C362.145 249.118 361.348 249.274 360.938 249.723C360.528 250.173 360.398 250.804 360.275 251.4C357.579 264.45 350.325 276.031 343.203 287.293C342.546 288.332 341.871 289.384 341.103 290.343C343.245 289.075 347.875 285.34 351.434 281.799C354.73 278.52 355.732 274.169 357.377 269.82C358.672 266.394 361.036 263.27 361.54 259.642C361.944 256.734 362.348 253.827 362.752 250.919C362.817 250.455 362.863 249.923 362.55 249.572Z" fill="black"/>
</g>
</svg>
